<svg width="646" height="289" viewBox="0 0 646 289" fill="none" xmlns="http://www.w3.org/2000/svg">
<path d="M16.302 66.342H34.242V75H5.382V20.556H16.302V66.342ZM38.3748 53.238C38.3748 48.87 39.2328 44.996 40.9488 41.616C42.7168 38.236 45.0828 35.636 48.0468 33.816C51.0628 31.996 54.4168 31.086 58.1088 31.086C61.3328 31.086 64.1408 31.736 66.5328 33.036C68.9768 34.336 70.9268 35.974 72.3828 37.95V31.788H83.3808V75H72.3828V68.682C70.9788 70.71 69.0288 72.4 66.5328 73.752C64.0888 75.052 61.2548 75.702 58.0308 75.702C54.3908 75.702 51.0628 74.766 48.0468 72.894C45.0828 71.022 42.7168 68.396 40.9488 65.016C39.2328 61.584 38.3748 57.658 38.3748 53.238ZM72.3828 53.394C72.3828 50.742 71.8628 48.48 70.8228 46.608C69.7828 44.684 68.3788 43.228 66.6108 42.24C64.8428 41.2 62.9448 40.68 60.9168 40.68C58.8888 40.68 57.0168 41.174 55.3008 42.162C53.5848 43.15 52.1808 44.606 51.0888 46.53C50.0488 48.402 49.5288 50.638 49.5288 53.238C49.5288 55.838 50.0488 58.126 51.0888 60.102C52.1808 62.026 53.5848 63.508 55.3008 64.548C57.0688 65.588 58.9408 66.108 60.9168 66.108C62.9448 66.108 64.8428 65.614 66.6108 64.626C68.3788 63.586 69.7828 62.13 70.8228 60.258C71.8628 58.334 72.3828 56.046 72.3828 53.394ZM134.84 31.788V75H123.842V69.54C122.438 71.412 120.592 72.894 118.304 73.986C116.068 75.026 113.624 75.546 110.972 75.546C107.592 75.546 104.602 74.844 102.002 73.44C99.4021 71.984 97.3481 69.878 95.8401 67.122C94.3841 64.314 93.6561 60.986 93.6561 57.138V31.788H104.576V55.578C104.576 59.01 105.434 61.662 107.15 63.534C108.866 65.354 111.206 66.264 114.17 66.264C117.186 66.264 119.552 65.354 121.268 63.534C122.984 61.662 123.842 59.01 123.842 55.578V31.788H134.84ZM169.56 31.164C174.708 31.164 178.868 32.802 182.04 36.078C185.212 39.302 186.798 43.826 186.798 49.65V75H175.878V51.132C175.878 47.7 175.02 45.074 173.304 43.254C171.588 41.382 169.248 40.446 166.284 40.446C163.268 40.446 160.876 41.382 159.108 43.254C157.392 45.074 156.534 47.7 156.534 51.132V75H145.614V31.788H156.534V37.17C157.99 35.298 159.836 33.842 162.072 32.802C164.36 31.71 166.856 31.164 169.56 31.164ZM194.375 53.394C194.375 48.922 195.285 45.022 197.105 41.694C198.925 38.314 201.447 35.714 204.671 33.894C207.895 32.022 211.587 31.086 215.747 31.086C221.103 31.086 225.523 32.438 229.007 35.142C232.543 37.794 234.909 41.538 236.105 46.374H224.327C223.703 44.502 222.637 43.046 221.129 42.006C219.673 40.914 217.853 40.368 215.669 40.368C212.549 40.368 210.079 41.512 208.259 43.8C206.439 46.036 205.529 49.234 205.529 53.394C205.529 57.502 206.439 60.7 208.259 62.988C210.079 65.224 212.549 66.342 215.669 66.342C220.089 66.342 222.975 64.366 224.327 60.414H236.105C234.909 65.094 232.543 68.812 229.007 71.568C225.471 74.324 221.051 75.702 215.747 75.702C211.587 75.702 207.895 74.792 204.671 72.972C201.447 71.1 198.925 68.5 197.105 65.172C195.285 61.792 194.375 57.866 194.375 53.394ZM268.441 31.164C271.717 31.164 274.629 31.892 277.177 33.348C279.725 34.752 281.701 36.858 283.105 39.666C284.561 42.422 285.289 45.75 285.289 49.65V75H274.369V51.132C274.369 47.7 273.511 45.074 271.795 43.254C270.079 41.382 267.739 40.446 264.775 40.446C261.759 40.446 259.367 41.382 257.599 43.254C255.883 45.074 255.025 47.7 255.025 51.132V75H244.105V17.28H255.025V37.17C256.429 35.298 258.301 33.842 260.641 32.802C262.981 31.71 265.581 31.164 268.441 31.164ZM357.549 20.556L339.141 56.046V75H328.221V56.046L309.735 20.556H322.059L333.759 45.438L345.381 20.556H357.549ZM383.035 75.702C378.875 75.702 375.131 74.792 371.803 72.972C368.475 71.1 365.849 68.474 363.925 65.094C362.053 61.714 361.117 57.814 361.117 53.394C361.117 48.974 362.079 45.074 364.003 41.694C365.979 38.314 368.657 35.714 372.037 33.894C375.417 32.022 379.187 31.086 383.347 31.086C387.507 31.086 391.277 32.022 394.657 33.894C398.037 35.714 400.689 38.314 402.613 41.694C404.589 45.074 405.577 48.974 405.577 53.394C405.577 57.814 404.563 61.714 402.535 65.094C400.559 68.474 397.855 71.1 394.423 72.972C391.043 74.792 387.247 75.702 383.035 75.702ZM383.035 66.186C385.011 66.186 386.857 65.718 388.573 64.782C390.341 63.794 391.745 62.338 392.785 60.414C393.825 58.49 394.345 56.15 394.345 53.394C394.345 49.286 393.253 46.14 391.069 43.956C388.937 41.72 386.311 40.602 383.191 40.602C380.071 40.602 377.445 41.72 375.313 43.956C373.233 46.14 372.193 49.286 372.193 53.394C372.193 57.502 373.207 60.674 375.235 62.91C377.315 65.094 379.915 66.186 383.035 66.186ZM454.381 31.788V75H443.383V69.54C441.979 71.412 440.133 72.894 437.845 73.986C435.609 75.026 433.165 75.546 430.513 75.546C427.133 75.546 424.143 74.844 421.543 73.44C418.943 71.984 416.889 69.878 415.381 67.122C413.925 64.314 413.197 60.986 413.197 57.138V31.788H424.117V55.578C424.117 59.01 424.975 61.662 426.691 63.534C428.407 65.354 430.747 66.264 433.711 66.264C436.727 66.264 439.093 65.354 440.809 63.534C442.525 61.662 443.383 59.01 443.383 55.578V31.788H454.381ZM476.075 38.496C477.479 36.208 479.299 34.414 481.535 33.114C483.823 31.814 486.423 31.164 489.335 31.164V42.63H486.449C483.017 42.63 480.417 43.436 478.649 45.048C476.933 46.66 476.075 49.468 476.075 53.472V75H465.155V31.788H476.075V38.496ZM24.414 117.556C30.134 117.556 35.152 118.674 39.468 120.91C43.836 123.146 47.19 126.344 49.53 130.504C51.922 134.612 53.118 139.396 53.118 144.856C53.118 150.316 51.922 155.1 49.53 159.208C47.19 163.264 43.836 166.41 39.468 168.646C35.152 170.882 30.134 172 24.414 172H5.382V117.556H24.414ZM24.024 162.718C29.744 162.718 34.164 161.158 37.284 158.038C40.404 154.918 41.964 150.524 41.964 144.856C41.964 139.188 40.404 134.768 37.284 131.596C34.164 128.372 29.744 126.76 24.024 126.76H16.302V162.718H24.024ZM101.462 149.458C101.462 151.018 101.358 152.422 101.15 153.67H69.5602C69.8202 156.79 70.9122 159.234 72.8362 161.002C74.7602 162.77 77.1262 163.654 79.9342 163.654C83.9902 163.654 86.8762 161.912 88.5922 158.428H100.37C99.1222 162.588 96.7302 166.02 93.1942 168.724C89.6582 171.376 85.3162 172.702 80.1682 172.702C76.0082 172.702 72.2642 171.792 68.9362 169.972C65.6602 168.1 63.0862 165.474 61.2142 162.094C59.3942 158.714 58.4842 154.814 58.4842 150.394C58.4842 145.922 59.3942 141.996 61.2142 138.616C63.0342 135.236 65.5822 132.636 68.8582 130.816C72.1342 128.996 75.9042 128.086 80.1682 128.086C84.2762 128.086 87.9422 128.97 91.1662 130.738C94.4422 132.506 96.9642 135.028 98.7322 138.304C100.552 141.528 101.462 145.246 101.462 149.458ZM90.1522 146.338C90.1002 143.53 89.0862 141.294 87.1102 139.63C85.1342 137.914 82.7162 137.056 79.8562 137.056C77.1522 137.056 74.8642 137.888 72.9922 139.552C71.1722 141.164 70.0542 143.426 69.6382 146.338H90.1522ZM133.379 128.164C138.527 128.164 142.687 129.802 145.859 133.078C149.031 136.302 150.617 140.826 150.617 146.65V172H139.697V148.132C139.697 144.7 138.839 142.074 137.123 140.254C135.407 138.382 133.067 137.446 130.103 137.446C127.087 137.446 124.695 138.382 122.927 140.254C121.211 142.074 120.353 144.7 120.353 148.132V172H109.433V128.788H120.353V134.17C121.809 132.298 123.655 130.842 125.891 129.802C128.179 128.71 130.675 128.164 133.379 128.164ZM173.715 137.758V158.662C173.715 160.118 174.053 161.184 174.729 161.86C175.457 162.484 176.653 162.796 178.317 162.796H183.387V172H176.523C167.319 172 162.717 167.528 162.717 158.584V137.758H157.569V128.788H162.717V118.102H173.715V128.788H183.387V137.758H173.715ZM188.433 150.238C188.433 145.87 189.291 141.996 191.007 138.616C192.775 135.236 195.141 132.636 198.105 130.816C201.121 128.996 204.475 128.086 208.167 128.086C211.391 128.086 214.199 128.736 216.591 130.036C219.035 131.336 220.985 132.974 222.441 134.95V128.788H233.439V172H222.441V165.682C221.037 167.71 219.087 169.4 216.591 170.752C214.147 172.052 211.313 172.702 208.089 172.702C204.449 172.702 201.121 171.766 198.105 169.894C195.141 168.022 192.775 165.396 191.007 162.016C189.291 158.584 188.433 154.658 188.433 150.238ZM222.441 150.394C222.441 147.742 221.921 145.48 220.881 143.608C219.841 141.684 218.437 140.228 216.669 139.24C214.901 138.2 213.003 137.68 210.975 137.68C208.947 137.68 207.075 138.174 205.359 139.162C203.643 140.15 202.239 141.606 201.147 143.53C200.107 145.402 199.587 147.638 199.587 150.238C199.587 152.838 200.107 155.126 201.147 157.102C202.239 159.026 203.643 160.508 205.359 161.548C207.127 162.588 208.999 163.108 210.975 163.108C213.003 163.108 214.901 162.614 216.669 161.626C218.437 160.586 219.841 159.13 220.881 157.258C221.921 155.334 222.441 153.046 222.441 150.394ZM255.025 114.28V172H244.105V114.28H255.025ZM374.677 144.7C374.677 139.344 375.873 134.56 378.265 130.348C380.709 126.084 384.011 122.782 388.171 120.442C392.383 118.05 397.089 116.854 402.289 116.854C408.373 116.854 413.703 118.414 418.279 121.534C422.855 124.654 426.053 128.97 427.873 134.482H415.315C414.067 131.882 412.299 129.932 410.011 128.632C407.775 127.332 405.175 126.682 402.211 126.682C399.039 126.682 396.205 127.436 393.709 128.944C391.265 130.4 389.341 132.48 387.937 135.184C386.585 137.888 385.909 141.06 385.909 144.7C385.909 148.288 386.585 151.46 387.937 154.216C389.341 156.92 391.265 159.026 393.709 160.534C396.205 161.99 399.039 162.718 402.211 162.718C405.175 162.718 407.775 162.068 410.011 160.768C412.299 159.416 414.067 157.44 415.315 154.84H427.873C426.053 160.404 422.855 164.746 418.279 167.866C413.755 170.934 408.425 172.468 402.289 172.468C397.089 172.468 392.383 171.298 388.171 168.958C384.011 166.566 380.709 163.264 378.265 159.052C375.873 154.84 374.677 150.056 374.677 144.7ZM448.12 114.28V172H437.2V114.28H448.12ZM464.447 123.64C462.523 123.64 460.911 123.042 459.611 121.846C458.363 120.598 457.739 119.064 457.739 117.244C457.739 115.424 458.363 113.916 459.611 112.72C460.911 111.472 462.523 110.848 464.447 110.848C466.371 110.848 467.957 111.472 469.205 112.72C470.505 113.916 471.155 115.424 471.155 117.244C471.155 119.064 470.505 120.598 469.205 121.846C467.957 123.042 466.371 123.64 464.447 123.64ZM469.829 128.788V172H458.909V128.788H469.829ZM504.564 128.164C509.712 128.164 513.872 129.802 517.044 133.078C520.216 136.302 521.802 140.826 521.802 146.65V172H510.882V148.132C510.882 144.7 510.024 142.074 508.308 140.254C506.592 138.382 504.252 137.446 501.288 137.446C498.272 137.446 495.88 138.382 494.112 140.254C492.396 142.074 491.538 144.7 491.538 148.132V172H480.618V128.788H491.538V134.17C492.994 132.298 494.84 130.842 497.076 129.802C499.364 128.71 501.86 128.164 504.564 128.164ZM537.725 123.64C535.801 123.64 534.189 123.042 532.889 121.846C531.641 120.598 531.017 119.064 531.017 117.244C531.017 115.424 531.641 113.916 532.889 112.72C534.189 111.472 535.801 110.848 537.725 110.848C539.649 110.848 541.235 111.472 542.483 112.72C543.783 113.916 544.433 115.424 544.433 117.244C544.433 119.064 543.783 120.598 542.483 121.846C541.235 123.042 539.649 123.64 537.725 123.64ZM543.107 128.788V172H532.187V128.788H543.107ZM551.088 150.394C551.088 145.922 551.998 142.022 553.818 138.694C555.638 135.314 558.16 132.714 561.384 130.894C564.608 129.022 568.3 128.086 572.46 128.086C577.816 128.086 582.236 129.438 585.72 132.142C589.256 134.794 591.622 138.538 592.818 143.374H581.04C580.416 141.502 579.35 140.046 577.842 139.006C576.386 137.914 574.566 137.368 572.382 137.368C569.262 137.368 566.792 138.512 564.972 140.8C563.152 143.036 562.242 146.234 562.242 150.394C562.242 154.502 563.152 157.7 564.972 159.988C566.792 162.224 569.262 163.342 572.382 163.342C576.802 163.342 579.688 161.366 581.04 157.414H592.818C591.622 162.094 589.256 165.812 585.72 168.568C582.184 171.324 577.764 172.702 572.46 172.702C568.3 172.702 564.608 171.792 561.384 169.972C558.16 168.1 555.638 165.5 553.818 162.172C551.998 158.792 551.088 154.866 551.088 150.394ZM65.286 224.788L52.65 268H40.872L32.994 237.814L25.116 268H13.26L0.546 224.788H11.622L19.266 257.704L27.534 224.788H39.078L47.19 257.626L54.834 224.788H65.286ZM76.7325 219.64C74.8085 219.64 73.1965 219.042 71.8965 217.846C70.6485 216.598 70.0245 215.064 70.0245 213.244C70.0245 211.424 70.6485 209.916 71.8965 208.72C73.1965 207.472 74.8085 206.848 76.7325 206.848C78.6565 206.848 80.2425 207.472 81.4905 208.72C82.7905 209.916 83.4405 211.424 83.4405 213.244C83.4405 215.064 82.7905 216.598 81.4905 217.846C80.2425 219.042 78.6565 219.64 76.7325 219.64ZM82.1145 224.788V268H71.1945V224.788H82.1145ZM105.617 233.758V254.662C105.617 256.118 105.955 257.184 106.631 257.86C107.359 258.484 108.555 258.796 110.219 258.796H115.289V268H108.425C99.2215 268 94.6195 263.528 94.6195 254.584V233.758H89.4715V224.788H94.6195V214.102H105.617V224.788H115.289V233.758H105.617ZM147.48 224.164C150.756 224.164 153.668 224.892 156.216 226.348C158.764 227.752 160.74 229.858 162.144 232.666C163.6 235.422 164.328 238.75 164.328 242.65V268H153.408V244.132C153.408 240.7 152.55 238.074 150.834 236.254C149.118 234.382 146.778 233.446 143.814 233.446C140.798 233.446 138.406 234.382 136.638 236.254C134.922 238.074 134.064 240.7 134.064 244.132V268H123.144V210.28H134.064V230.17C135.468 228.298 137.34 226.842 139.68 225.802C142.02 224.71 144.62 224.164 147.48 224.164ZM190.646 240.7C190.646 235.344 191.842 230.56 194.234 226.348C196.678 222.084 199.98 218.782 204.14 216.442C208.352 214.05 213.058 212.854 218.258 212.854C224.342 212.854 229.672 214.414 234.248 217.534C238.824 220.654 242.022 224.97 243.842 230.482H231.284C230.036 227.882 228.268 225.932 225.98 224.632C223.744 223.332 221.144 222.682 218.18 222.682C215.008 222.682 212.174 223.436 209.678 224.944C207.234 226.4 205.31 228.48 203.906 231.184C202.554 233.888 201.878 237.06 201.878 240.7C201.878 244.288 202.554 247.46 203.906 250.216C205.31 252.92 207.234 255.026 209.678 256.534C212.174 257.99 215.008 258.718 218.18 258.718C221.144 258.718 223.744 258.068 225.98 256.768C228.268 255.416 230.036 253.44 231.284 250.84H243.842C242.022 256.404 238.824 260.746 234.248 263.866C229.724 266.934 224.394 268.468 218.258 268.468C213.058 268.468 208.352 267.298 204.14 264.958C199.98 262.566 196.678 259.264 194.234 255.052C191.842 250.84 190.646 246.056 190.646 240.7ZM272.357 268.702C268.197 268.702 264.453 267.792 261.125 265.972C257.797 264.1 255.171 261.474 253.247 258.094C251.375 254.714 250.439 250.814 250.439 246.394C250.439 241.974 251.401 238.074 253.325 234.694C255.301 231.314 257.979 228.714 261.359 226.894C264.739 225.022 268.509 224.086 272.669 224.086C276.829 224.086 280.599 225.022 283.979 226.894C287.359 228.714 290.011 231.314 291.935 234.694C293.911 238.074 294.899 241.974 294.899 246.394C294.899 250.814 293.885 254.714 291.857 258.094C289.881 261.474 287.177 264.1 283.745 265.972C280.365 267.792 276.569 268.702 272.357 268.702ZM272.357 259.186C274.333 259.186 276.179 258.718 277.895 257.782C279.663 256.794 281.067 255.338 282.107 253.414C283.147 251.49 283.667 249.15 283.667 246.394C283.667 242.286 282.575 239.14 280.391 236.956C278.259 234.72 275.633 233.602 272.513 233.602C269.393 233.602 266.767 234.72 264.635 236.956C262.555 239.14 261.515 242.286 261.515 246.394C261.515 250.502 262.529 253.674 264.557 255.91C266.637 258.094 269.237 259.186 272.357 259.186ZM326.855 224.164C332.003 224.164 336.163 225.802 339.335 229.078C342.507 232.302 344.093 236.826 344.093 242.65V268H333.173V244.132C333.173 240.7 332.315 238.074 330.599 236.254C328.883 234.382 326.543 233.446 323.579 233.446C320.563 233.446 318.171 234.382 316.403 236.254C314.687 238.074 313.829 240.7 313.829 244.132V268H302.909V224.788H313.829V230.17C315.285 228.298 317.131 226.842 319.367 225.802C321.655 224.71 324.151 224.164 326.855 224.164ZM374.29 233.758H366.724V268H355.648V233.758H350.734V224.788H355.648V222.604C355.648 217.3 357.156 213.4 360.172 210.904C363.188 208.408 367.738 207.238 373.822 207.394V216.598C371.17 216.546 369.324 216.988 368.284 217.924C367.244 218.86 366.724 220.55 366.724 222.994V224.788H374.29V233.758ZM386.904 219.64C384.98 219.64 383.368 219.042 382.068 217.846C380.82 216.598 380.196 215.064 380.196 213.244C380.196 211.424 380.82 209.916 382.068 208.72C383.368 207.472 384.98 206.848 386.904 206.848C388.828 206.848 390.414 207.472 391.662 208.72C392.962 209.916 393.612 211.424 393.612 213.244C393.612 215.064 392.962 216.598 391.662 217.846C390.414 219.042 388.828 219.64 386.904 219.64ZM392.286 224.788V268H381.366V224.788H392.286ZM400.267 246.238C400.267 241.87 401.125 237.996 402.841 234.616C404.609 231.236 407.001 228.636 410.017 226.816C413.033 224.996 416.387 224.086 420.079 224.086C422.887 224.086 425.565 224.71 428.113 225.958C430.661 227.154 432.689 228.766 434.197 230.794V210.28H445.273V268H434.197V261.604C432.845 263.736 430.947 265.452 428.503 266.752C426.059 268.052 423.225 268.702 420.001 268.702C416.361 268.702 413.033 267.766 410.017 265.894C407.001 264.022 404.609 261.396 402.841 258.016C401.125 254.584 400.267 250.658 400.267 246.238ZM434.275 246.394C434.275 243.742 433.755 241.48 432.715 239.608C431.675 237.684 430.271 236.228 428.503 235.24C426.735 234.2 424.837 233.68 422.809 233.68C420.781 233.68 418.909 234.174 417.193 235.162C415.477 236.15 414.073 237.606 412.981 239.53C411.941 241.402 411.421 243.638 411.421 246.238C411.421 248.838 411.941 251.126 412.981 253.102C414.073 255.026 415.477 256.508 417.193 257.548C418.961 258.588 420.833 259.108 422.809 259.108C424.837 259.108 426.735 258.614 428.503 257.626C430.271 256.586 431.675 255.13 432.715 253.258C433.755 251.334 434.275 249.046 434.275 246.394ZM496.109 245.458C496.109 247.018 496.005 248.422 495.797 249.67H464.207C464.467 252.79 465.559 255.234 467.483 257.002C469.407 258.77 471.773 259.654 474.581 259.654C478.637 259.654 481.523 257.912 483.239 254.428H495.017C493.769 258.588 491.377 262.02 487.841 264.724C484.305 267.376 479.963 268.702 474.815 268.702C470.655 268.702 466.911 267.792 463.583 265.972C460.307 264.1 457.733 261.474 455.861 258.094C454.041 254.714 453.131 250.814 453.131 246.394C453.131 241.922 454.041 237.996 455.861 234.616C457.681 231.236 460.229 228.636 463.505 226.816C466.781 224.996 470.551 224.086 474.815 224.086C478.923 224.086 482.589 224.97 485.813 226.738C489.089 228.506 491.611 231.028 493.379 234.304C495.199 237.528 496.109 241.246 496.109 245.458ZM484.799 242.338C484.747 239.53 483.733 237.294 481.757 235.63C479.781 233.914 477.363 233.056 474.503 233.056C471.799 233.056 469.511 233.888 467.639 235.552C465.819 237.164 464.701 239.426 464.285 242.338H484.799ZM528.025 224.164C533.173 224.164 537.333 225.802 540.505 229.078C543.677 232.302 545.263 236.826 545.263 242.65V268H534.343V244.132C534.343 240.7 533.485 238.074 531.769 236.254C530.053 234.382 527.713 233.446 524.749 233.446C521.733 233.446 519.341 234.382 517.573 236.254C515.857 238.074 514.999 240.7 514.999 244.132V268H504.079V224.788H514.999V230.17C516.455 228.298 518.301 226.842 520.537 225.802C522.825 224.71 525.321 224.164 528.025 224.164ZM552.84 246.394C552.84 241.922 553.75 238.022 555.57 234.694C557.39 231.314 559.912 228.714 563.136 226.894C566.36 225.022 570.052 224.086 574.212 224.086C579.568 224.086 583.988 225.438 587.472 228.142C591.008 230.794 593.374 234.538 594.57 239.374H582.792C582.168 237.502 581.102 236.046 579.594 235.006C578.138 233.914 576.318 233.368 574.134 233.368C571.014 233.368 568.544 234.512 566.724 236.8C564.904 239.036 563.994 242.234 563.994 246.394C563.994 250.502 564.904 253.7 566.724 255.988C568.544 258.224 571.014 259.342 574.134 259.342C578.554 259.342 581.44 257.366 582.792 253.414H594.57C593.374 258.094 591.008 261.812 587.472 264.568C583.936 267.324 579.516 268.702 574.212 268.702C570.052 268.702 566.36 267.792 563.136 265.972C559.912 264.1 557.39 261.5 555.57 258.172C553.75 254.792 552.84 250.866 552.84 246.394ZM642.74 245.458C642.74 247.018 642.636 248.422 642.428 249.67H610.838C611.098 252.79 612.19 255.234 614.114 257.002C616.038 258.77 618.404 259.654 621.212 259.654C625.268 259.654 628.154 257.912 629.87 254.428H641.648C640.4 258.588 638.008 262.02 634.472 264.724C630.936 267.376 626.594 268.702 621.446 268.702C617.286 268.702 613.542 267.792 610.214 265.972C606.938 264.1 604.364 261.474 602.492 258.094C600.672 254.714 599.761 250.814 599.761 246.394C599.761 241.922 600.672 237.996 602.492 234.616C604.312 231.236 606.86 228.636 610.136 226.816C613.412 224.996 617.182 224.086 621.446 224.086C625.554 224.086 629.22 224.97 632.444 226.738C635.72 228.506 638.242 231.028 640.01 234.304C641.83 237.528 642.74 241.246 642.74 245.458ZM631.43 242.338C631.378 239.53 630.364 237.294 628.388 235.63C626.412 233.914 623.994 233.056 621.134 233.056C618.43 233.056 616.142 233.888 614.27 235.552C612.45 237.164 611.332 239.426 610.916 242.338H631.43Z" fill="white"/>
<path fill-rule="evenodd" clip-rule="evenodd" d="M288.136 132.392C288.136 137.236 290.082 141.8 293.474 144.916C293.652 145.08 293.767 145.302 293.798 145.544C294.114 147.992 294.33 150.655 294.558 153.476C294.75 155.856 294.949 158.287 295.215 160.715C295.287 160.349 295.341 159.977 295.37 159.593C295.409 159.055 295.857 158.639 296.396 158.639C296.936 158.639 297.384 159.055 297.424 159.593C297.794 164.597 302.027 168.051 305.671 168.113C305.743 168.111 305.814 168.111 305.884 168.113C306.447 168.122 306.898 168.58 306.898 169.143C306.898 169.705 306.447 170.164 305.884 170.172C305.814 170.174 305.743 170.174 305.671 170.172C302.967 170.217 299.941 172.132 298.407 175.162C299.779 178.502 301.55 181.03 303.81 182.872C304.367 183.327 305.007 183.487 305.713 183.349C306.419 183.21 306.951 182.821 307.298 182.191C309.012 179.058 310.016 175.436 310.199 171.713C310.379 168.063 311.066 164.96 312.425 161.651C313.375 159.342 315.515 157.908 318.011 157.908C320.51 157.908 322.649 159.342 323.598 161.651C324.959 164.96 325.645 168.063 325.825 171.713C326.009 175.436 327.012 179.058 328.726 182.191C329.073 182.821 329.605 183.21 330.312 183.349C331.017 183.487 331.657 183.327 332.215 182.872C339.572 176.874 340.579 164.443 341.466 153.476C341.694 150.657 341.911 147.992 342.226 145.544C342.257 145.302 342.372 145.08 342.551 144.916C345.943 141.8 347.888 137.236 347.888 132.392V132.073C347.888 129.976 347.435 127.9 346.572 126.001C344.613 127.955 343.179 130.663 342.943 133.851C342.902 134.388 342.456 134.804 341.916 134.804C341.377 134.804 340.929 134.388 340.89 133.851C340.402 127.274 334.826 122.736 330.024 122.657C329.934 122.658 329.845 122.658 329.756 122.657C329.193 122.648 328.742 122.19 328.742 121.627C328.742 121.064 329.193 120.606 329.756 120.598H330.024C332.287 120.562 334.72 119.534 336.713 117.77C335.653 117.506 334.565 117.357 333.462 117.333C330.755 117.381 328.114 117.911 325.612 118.908C320.57 120.92 315.455 120.92 310.41 118.908C307.909 117.911 305.27 117.381 302.562 117.333C294.606 117.502 288.136 124.11 288.136 132.073V132.392ZM349.218 166.778C349.63 167.382 350.14 167.894 350.702 168.297C350.14 168.698 349.63 169.21 349.218 169.813C348.806 169.21 348.297 168.698 347.734 168.297C348.297 167.894 348.808 167.382 349.218 166.778ZM344.659 167.267C344.694 167.266 344.728 167.266 344.762 167.267C346.109 167.238 348.027 165.889 348.192 163.676C348.232 163.139 348.679 162.722 349.218 162.722C349.757 162.722 350.205 163.139 350.244 163.676C350.409 165.889 352.327 167.238 353.674 167.267C353.708 167.266 353.743 167.266 353.777 167.267C354.34 167.276 354.791 167.734 354.791 168.297C354.791 168.86 354.34 169.318 353.777 169.326C353.743 169.326 353.708 169.326 353.674 169.326C352.327 169.354 350.409 170.702 350.244 172.916C350.205 173.454 349.757 173.87 349.218 173.87C348.679 173.87 348.232 173.454 348.192 172.916C348.027 170.702 346.109 169.354 344.762 169.326C344.728 169.326 344.694 169.326 344.659 169.326C344.097 169.318 343.645 168.86 343.645 168.297C343.647 167.734 344.098 167.276 344.659 167.267ZM299.06 167.332C299.863 168.072 300.745 168.681 301.665 169.143C300.745 169.604 299.863 170.213 299.06 170.953C297.926 171.996 297.027 173.233 296.396 174.59C295.766 173.233 294.865 171.996 293.731 170.953C292.928 170.213 292.048 169.604 291.128 169.143C292.048 168.681 292.928 168.072 293.731 167.332C294.865 166.289 295.766 165.052 296.396 163.695C297.027 165.052 297.925 166.289 299.06 167.332ZM293.038 109.358C293.601 109.349 294.052 108.891 294.052 108.328C294.052 107.765 293.601 107.307 293.038 107.299C293.004 107.299 292.969 107.299 292.935 107.299C291.588 107.269 289.67 105.923 289.505 103.708C289.466 103.17 289.018 102.755 288.479 102.755C287.94 102.755 287.493 103.17 287.453 103.708C287.288 105.923 285.37 107.271 284.023 107.299C283.989 107.299 283.955 107.299 283.92 107.299C283.358 107.307 282.906 107.765 282.906 108.328C282.906 108.891 283.358 109.349 283.92 109.358H284.023C285.37 109.387 287.288 110.735 287.453 112.949C287.493 113.486 287.94 113.903 288.479 113.903C289.018 113.903 289.466 113.486 289.505 112.949C289.67 110.735 291.588 109.387 292.935 109.358C292.969 109.359 293.005 109.358 293.038 109.358ZM288.481 106.811C288.893 107.414 289.402 107.927 289.965 108.328C289.402 108.731 288.893 109.243 288.481 109.847C288.069 109.243 287.559 108.731 286.997 108.328C287.558 107.927 288.069 107.414 288.481 106.811ZM338.304 124.161C337.136 123.087 335.837 122.231 334.485 121.627C335.837 121.025 337.136 120.169 338.304 119.093C339.895 117.628 341.12 115.86 341.916 113.918C342.714 115.86 343.937 117.628 345.529 119.093C346.698 120.169 347.996 121.025 349.349 121.627C347.996 122.231 346.698 123.087 345.529 124.161C343.937 125.627 342.714 127.394 341.916 129.338C341.12 127.394 339.895 125.627 338.304 124.161Z" fill="white"/>
</svg>
