<svg width="478" height="89" viewBox="0 0 478 89" fill="none" xmlns="http://www.w3.org/2000/svg">
<path d="M19.7259 26.7643H29.4278V31.4465H13.8204V2.0033H19.7259V26.7643ZM31.6628 19.6777C31.6628 17.3155 32.1268 15.2204 33.0548 13.3925C34.0109 11.5646 35.2905 10.1585 36.8934 9.17429C38.5244 8.19003 40.3383 7.69791 42.3349 7.69791C44.0785 7.69791 45.597 8.04942 46.8906 8.75246C48.2123 9.4555 49.2669 10.3413 50.0543 11.4099V8.07755H56.002V31.4465H50.0543V28.0298C49.295 29.1265 48.2404 30.0405 46.8906 30.7716C45.5689 31.4747 44.0363 31.8262 42.2927 31.8262C40.3242 31.8262 38.5244 31.32 36.8934 30.3076C35.2905 29.2952 34.0109 27.8751 33.0548 26.0472C32.1268 24.1912 31.6628 22.068 31.6628 19.6777ZM50.0543 19.762C50.0543 18.3278 49.7731 17.1046 49.2106 16.0922C48.6482 15.0517 47.8889 14.2643 46.9328 13.73C45.9767 13.1675 44.9502 12.8863 43.8535 12.8863C42.7567 12.8863 41.7444 13.1535 40.8164 13.6878C39.8883 14.2221 39.1291 15.0095 38.5385 16.05C37.9761 17.0624 37.6949 18.2716 37.6949 19.6777C37.6949 21.0838 37.9761 22.3211 38.5385 23.3897C39.1291 24.4302 39.8883 25.2317 40.8164 25.7941C41.7725 26.3565 42.7849 26.6378 43.8535 26.6378C44.9502 26.6378 45.9767 26.3706 46.9328 25.8363C47.8889 25.2739 48.6482 24.4865 49.2106 23.4741C49.7731 22.4336 50.0543 21.1962 50.0543 19.762ZM83.8311 8.07755V31.4465H77.8834V28.4938C77.1241 29.5061 76.1258 30.3076 74.8884 30.8982C73.6792 31.4606 72.3575 31.7418 70.9233 31.7418C69.0954 31.7418 67.4784 31.3622 66.0723 30.6029C64.6663 29.8155 63.5555 28.6766 62.7399 27.1861C61.9525 25.6676 61.5588 23.8678 61.5588 21.7868V8.07755H67.4644V20.9431C67.4644 22.7992 67.9284 24.2334 68.8564 25.2457C69.7844 26.23 71.0499 26.7221 72.6528 26.7221C74.2838 26.7221 75.5634 26.23 76.4914 25.2457C77.4194 24.2334 77.8834 22.7992 77.8834 20.9431V8.07755H83.8311ZM102.608 7.74009C105.392 7.74009 107.642 8.62592 109.357 10.3976C111.072 12.1411 111.93 14.5877 111.93 17.7373V31.4465H106.025V18.5388C106.025 16.6827 105.561 15.2626 104.633 14.2783C103.705 13.266 102.439 12.7598 100.836 12.7598C99.2051 12.7598 97.9115 13.266 96.9554 14.2783C96.0274 15.2626 95.5634 16.6827 95.5634 18.5388V31.4465H89.6578V8.07755H95.5634V10.9881C96.3508 9.97575 97.3491 9.18835 98.5583 8.62592C99.7956 8.03536 101.145 7.74009 102.608 7.74009ZM116.027 19.762C116.027 17.3436 116.519 15.2345 117.504 13.4347C118.488 11.6068 119.852 10.2007 121.595 9.21647C123.339 8.20409 125.336 7.69791 127.585 7.69791C130.482 7.69791 132.872 8.42907 134.756 9.89138C136.669 11.3256 137.948 13.3503 138.595 15.9656H132.225C131.888 14.9533 131.311 14.1659 130.496 13.6034C129.708 13.0129 128.724 12.7176 127.543 12.7176C125.856 12.7176 124.52 13.3363 123.536 14.5736C122.552 15.7828 122.059 17.5123 122.059 19.762C122.059 21.9836 122.552 23.7131 123.536 24.9505C124.52 26.1597 125.856 26.7643 127.543 26.7643C129.933 26.7643 131.494 25.6957 132.225 23.5584H138.595C137.948 26.0894 136.669 28.1001 134.756 29.5905C132.844 31.081 130.454 31.8262 127.585 31.8262C125.336 31.8262 123.339 31.334 121.595 30.3498C119.852 29.3374 118.488 27.9313 117.504 26.1316C116.519 24.3037 116.027 22.1805 116.027 19.762ZM156.082 7.74009C157.854 7.74009 159.429 8.13379 160.807 8.92119C162.184 9.68047 163.253 10.8194 164.012 12.338C164.8 13.8284 165.193 15.6282 165.193 17.7373V31.4465H159.288V18.5388C159.288 16.6827 158.824 15.2626 157.896 14.2783C156.968 13.266 155.702 12.7598 154.1 12.7598C152.468 12.7598 151.175 13.266 150.219 14.2783C149.291 15.2626 148.827 16.6827 148.827 18.5388V31.4465H142.921V0.231642H148.827V10.9881C149.586 9.97575 150.598 9.18835 151.864 8.62592C153.129 8.03536 154.535 7.74009 156.082 7.74009ZM204.272 2.0033L194.317 21.1962V31.4465H188.411V21.1962L178.414 2.0033H185.079L191.406 15.4594L197.691 2.0033H204.272ZM218.054 31.8262C215.805 31.8262 213.78 31.334 211.98 30.3498C210.18 29.3374 208.76 27.9173 207.72 26.0894C206.707 24.2615 206.201 22.1524 206.201 19.762C206.201 17.3717 206.721 15.2626 207.762 13.4347C208.831 11.6068 210.279 10.2007 212.107 9.21647C213.935 8.20409 215.973 7.69791 218.223 7.69791C220.473 7.69791 222.512 8.20409 224.34 9.21647C226.168 10.2007 227.602 11.6068 228.642 13.4347C229.711 15.2626 230.245 17.3717 230.245 19.762C230.245 22.1524 229.697 24.2615 228.6 26.0894C227.531 27.9173 226.069 29.3374 224.213 30.3498C222.385 31.334 220.332 31.8262 218.054 31.8262ZM218.054 26.6799C219.123 26.6799 220.121 26.4268 221.049 25.9207C222.006 25.3863 222.765 24.5989 223.327 23.5584C223.89 22.5179 224.171 21.2525 224.171 19.762C224.171 17.5404 223.58 15.8391 222.399 14.658C221.246 13.4488 219.826 12.8441 218.139 12.8441C216.452 12.8441 215.031 13.4488 213.878 14.658C212.754 15.8391 212.191 17.5404 212.191 19.762C212.191 21.9836 212.739 23.6991 213.836 24.9083C214.961 26.0894 216.367 26.6799 218.054 26.6799ZM256.638 8.07755V31.4465H250.691V28.4938C249.931 29.5061 248.933 30.3076 247.696 30.8982C246.487 31.4606 245.165 31.7418 243.731 31.7418C241.903 31.7418 240.286 31.3622 238.88 30.6029C237.474 29.8155 236.363 28.6766 235.547 27.1861C234.76 25.6676 234.366 23.8678 234.366 21.7868V8.07755H240.272V20.9431C240.272 22.7992 240.736 24.2334 241.664 25.2457C242.592 26.23 243.857 26.7221 245.46 26.7221C247.091 26.7221 248.371 26.23 249.299 25.2457C250.227 24.2334 250.691 22.7992 250.691 20.9431V8.07755H256.638ZM268.371 11.7052C269.13 10.4679 270.114 9.49768 271.323 8.79465C272.561 8.09161 273.967 7.74009 275.542 7.74009V13.9409H273.981C272.125 13.9409 270.719 14.3768 269.763 15.2485C268.835 16.1203 268.371 17.6389 268.371 19.8042V31.4465H262.465V8.07755H268.371V11.7052ZM340.068 2.0033C343.161 2.0033 345.875 2.60791 348.209 3.81714C350.571 5.02636 352.385 6.75583 353.651 9.00556C354.944 11.2272 355.591 13.8143 355.591 16.7671C355.591 19.7199 354.944 22.307 353.651 24.5286C352.385 26.7221 350.571 28.4235 348.209 29.6327C345.875 30.8419 343.161 31.4465 340.068 31.4465H329.776V2.0033H340.068ZM339.857 26.4268C342.951 26.4268 345.341 25.5832 347.028 23.8959C348.715 22.2086 349.559 19.8323 349.559 16.7671C349.559 13.7019 348.715 11.3115 347.028 9.59611C345.341 7.85257 342.951 6.98081 339.857 6.98081H335.681V26.4268H339.857ZM381.736 19.2559C381.736 20.0995 381.679 20.8588 381.567 21.5337H364.483C364.624 23.221 365.214 24.5427 366.255 25.4988C367.295 26.455 368.575 26.933 370.093 26.933C372.287 26.933 373.848 25.991 374.776 24.1068H381.145C380.47 26.3565 379.177 28.2126 377.264 29.6749C375.352 31.1091 373.004 31.8262 370.22 31.8262C367.97 31.8262 365.945 31.334 364.146 30.3498C362.374 29.3374 360.982 27.9173 359.97 26.0894C358.985 24.2615 358.493 22.1524 358.493 19.762C358.493 17.3436 358.985 15.2204 359.97 13.3925C360.954 11.5646 362.332 10.1585 364.103 9.17429C365.875 8.19003 367.914 7.69791 370.22 7.69791C372.441 7.69791 374.424 8.17597 376.168 9.1321C377.939 10.0882 379.303 11.4521 380.259 13.2238C381.243 14.9673 381.736 16.978 381.736 19.2559ZM375.619 17.5686C375.591 16.05 375.043 14.8408 373.974 13.9409C372.905 13.0129 371.598 12.5489 370.051 12.5489C368.589 12.5489 367.351 12.9988 366.339 13.8987C365.355 14.7705 364.75 15.9938 364.525 17.5686H375.619ZM398.996 7.74009C401.78 7.74009 404.03 8.62592 405.745 10.3976C407.461 12.1411 408.318 14.5877 408.318 17.7373V31.4465H402.413V18.5388C402.413 16.6827 401.949 15.2626 401.021 14.2783C400.093 13.266 398.827 12.7598 397.224 12.7598C395.593 12.7598 394.3 13.266 393.344 14.2783C392.416 15.2626 391.952 16.6827 391.952 18.5388V31.4465H386.046V8.07755H391.952V10.9881C392.739 9.97575 393.737 9.18835 394.947 8.62592C396.184 8.03536 397.534 7.74009 398.996 7.74009ZM420.81 12.9285V24.2334C420.81 25.0208 420.993 25.5973 421.358 25.9628C421.752 26.3003 422.399 26.469 423.299 26.469H426.04V31.4465H422.328C417.351 31.4465 414.862 29.0281 414.862 24.1912V12.9285H412.078V8.07755H414.862V2.29857H420.81V8.07755H426.04V12.9285H420.81ZM428.769 19.6777C428.769 17.3155 429.233 15.2204 430.161 13.3925C431.118 11.5646 432.397 10.1585 434 9.17429C435.631 8.19003 437.445 7.69791 439.442 7.69791C441.185 7.69791 442.704 8.04942 443.997 8.75246C445.319 9.4555 446.374 10.3413 447.161 11.4099V8.07755H453.109V31.4465H447.161V28.0298C446.402 29.1265 445.347 30.0405 443.997 30.7716C442.676 31.4747 441.143 31.8262 439.399 31.8262C437.431 31.8262 435.631 31.32 434 30.3076C432.397 29.2952 431.118 27.8751 430.161 26.0472C429.233 24.1912 428.769 22.068 428.769 19.6777ZM447.161 19.762C447.161 18.3278 446.88 17.1046 446.317 16.0922C445.755 15.0517 444.996 14.2643 444.039 13.73C443.083 13.1675 442.057 12.8863 440.96 12.8863C439.863 12.8863 438.851 13.1535 437.923 13.6878C436.995 14.2221 436.236 15.0095 435.645 16.05C435.083 17.0624 434.802 18.2716 434.802 19.6777C434.802 21.0838 435.083 22.3211 435.645 23.3897C436.236 24.4302 436.995 25.2317 437.923 25.7941C438.879 26.3565 439.892 26.6378 440.96 26.6378C442.057 26.6378 443.083 26.3706 444.039 25.8363C444.996 25.2739 445.755 24.4865 446.317 23.4741C446.88 22.4336 447.161 21.1962 447.161 19.762ZM464.782 0.231642V31.4465H458.876V0.231642H464.782ZM0.83133 73.6827C0.83133 70.7862 1.47812 68.199 2.77172 65.9212C4.09343 63.6152 5.87914 61.8295 8.12887 60.564C10.4067 59.2705 12.9517 58.6237 15.7639 58.6237C19.0541 58.6237 21.9365 59.4673 24.4112 61.1546C26.8859 62.8419 28.6154 65.176 29.5996 68.1569H22.8083C22.1334 66.7508 21.1773 65.6962 19.9399 64.9932C18.7307 64.2901 17.3246 63.9386 15.7217 63.9386C14.0063 63.9386 12.4736 64.3464 11.1238 65.1619C9.8021 65.9493 8.7616 67.0742 8.00232 68.5365C7.27116 69.9988 6.90558 71.7142 6.90558 73.6827C6.90558 75.6231 7.27116 77.3385 8.00232 78.829C8.7616 80.2913 9.8021 81.4302 11.1238 82.2457C12.4736 83.0331 14.0063 83.4268 15.7217 83.4268C17.3246 83.4268 18.7307 83.0753 19.9399 82.3723C21.1773 81.6411 22.1334 80.5725 22.8083 79.1664H29.5996C28.6154 82.1754 26.8859 84.5236 24.4112 86.2109C21.9647 87.87 19.0822 88.6996 15.7639 88.6996C12.9517 88.6996 10.4067 88.0669 8.12887 86.8014C5.87914 85.5078 4.09343 83.7221 2.77172 81.4443C1.47812 79.1664 0.83133 76.5792 0.83133 73.6827ZM40.5493 57.2316V88.4465H34.6437V57.2316H40.5493ZM49.3789 62.2935C48.3384 62.2935 47.4666 61.9701 46.7636 61.3233C46.0886 60.6484 45.7512 59.8188 45.7512 58.8346C45.7512 57.8503 46.0886 57.0348 46.7636 56.388C47.4666 55.7131 48.3384 55.3756 49.3789 55.3756C50.4194 55.3756 51.2771 55.7131 51.952 56.388C52.655 57.0348 53.0065 57.8503 53.0065 58.8346C53.0065 59.8188 52.655 60.6484 51.952 61.3233C51.2771 61.9701 50.4194 62.2935 49.3789 62.2935ZM52.2894 65.0775V88.4465H46.3839V65.0775H52.2894ZM71.0741 64.7401C73.8581 64.7401 76.1078 65.6259 77.8232 67.3976C79.5386 69.1411 80.3963 71.5877 80.3963 74.7373V88.4465H74.4908V75.5388C74.4908 73.6827 74.0268 72.2626 73.0988 71.2783C72.1708 70.266 70.9053 69.7598 69.3024 69.7598C67.6714 69.7598 66.3778 70.266 65.4216 71.2783C64.4936 72.2626 64.0296 73.6827 64.0296 75.5388V88.4465H58.1241V65.0775H64.0296V67.9881C64.817 66.9757 65.8153 66.1883 67.0246 65.6259C68.2619 65.0354 69.6117 64.7401 71.0741 64.7401ZM89.0071 62.2935C87.9666 62.2935 87.0949 61.9701 86.3918 61.3233C85.7169 60.6484 85.3795 59.8188 85.3795 58.8346C85.3795 57.8503 85.7169 57.0348 86.3918 56.388C87.0949 55.7131 87.9666 55.3756 89.0071 55.3756C90.0476 55.3756 90.9053 55.7131 91.5803 56.388C92.2833 57.0348 92.6348 57.8503 92.6348 58.8346C92.6348 59.8188 92.2833 60.6484 91.5803 61.3233C90.9053 61.9701 90.0476 62.2935 89.0071 62.2935ZM91.9177 65.0775V88.4465H86.0122V65.0775H91.9177ZM96.2338 76.762C96.2338 74.3436 96.7259 72.2345 97.7102 70.4347C98.6944 68.6068 100.058 67.2007 101.802 66.2165C103.545 65.2041 105.542 64.6979 107.792 64.6979C110.688 64.6979 113.079 65.4291 114.963 66.8914C116.875 68.3256 118.155 70.3503 118.801 72.9656H112.432C112.094 71.9533 111.518 71.1659 110.702 70.6034C109.915 70.0129 108.931 69.7176 107.75 69.7176C106.062 69.7176 104.727 70.3363 103.742 71.5736C102.758 72.7828 102.266 74.5123 102.266 76.762C102.266 78.9836 102.758 80.7131 103.742 81.9505C104.727 83.1597 106.062 83.7643 107.75 83.7643C110.14 83.7643 111.701 82.6957 112.432 80.5584H118.801C118.155 83.0894 116.875 85.1001 114.963 86.5905C113.05 88.081 110.66 88.8262 107.792 88.8262C105.542 88.8262 103.545 88.334 101.802 87.3498C100.058 86.3374 98.6944 84.9313 97.7102 83.1316C96.7259 81.3037 96.2338 79.1805 96.2338 76.762ZM165.575 65.0775L158.741 88.4465H152.372L148.111 72.122L143.851 88.4465H137.439L130.564 65.0775H136.553L140.687 82.8785L145.159 65.0775H151.402L155.789 82.8363L159.922 65.0775H165.575ZM171.765 62.2935C170.725 62.2935 169.853 61.9701 169.15 61.3233C168.475 60.6484 168.137 59.8188 168.137 58.8346C168.137 57.8503 168.475 57.0348 169.15 56.388C169.853 55.7131 170.725 55.3756 171.765 55.3756C172.806 55.3756 173.663 55.7131 174.338 56.388C175.041 57.0348 175.393 57.8503 175.393 58.8346C175.393 59.8188 175.041 60.6484 174.338 61.3233C173.663 61.9701 172.806 62.2935 171.765 62.2935ZM174.676 65.0775V88.4465H168.77V65.0775H174.676ZM187.386 69.9285V81.2334C187.386 82.0208 187.569 82.5973 187.934 82.9628C188.328 83.3003 188.975 83.469 189.875 83.469H192.617V88.4465H188.905C183.927 88.4465 181.438 86.0281 181.438 81.1912V69.9285H178.654V65.0775H181.438V59.2986H187.386V65.0775H192.617V69.9285H187.386ZM210.025 64.7401C211.797 64.7401 213.372 65.1338 214.75 65.9212C216.128 66.6805 217.196 67.8194 217.955 69.338C218.743 70.8284 219.137 72.6282 219.137 74.7373V88.4465H213.231V75.5388C213.231 73.6827 212.767 72.2626 211.839 71.2783C210.911 70.266 209.646 69.7598 208.043 69.7598C206.412 69.7598 205.118 70.266 204.162 71.2783C203.234 72.2626 202.77 73.6827 202.77 75.5388V88.4465H196.864V57.2316H202.77V67.9881C203.529 66.9757 204.541 66.1883 205.807 65.6259C207.072 65.0354 208.478 64.7401 210.025 64.7401ZM233.369 73.6827C233.369 70.7862 234.016 68.199 235.31 65.9212C236.632 63.6152 238.417 61.8295 240.667 60.564C242.945 59.2705 245.49 58.6237 248.302 58.6237C251.592 58.6237 254.475 59.4673 256.949 61.1546C259.424 62.8419 261.153 65.176 262.138 68.1569H255.346C254.671 66.7508 253.715 65.6962 252.478 64.9932C251.269 64.2901 249.863 63.9386 248.26 63.9386C246.544 63.9386 245.012 64.3464 243.662 65.1619C242.34 65.9493 241.3 67.0742 240.54 68.5365C239.809 69.9988 239.444 71.7142 239.444 73.6827C239.444 75.6231 239.809 77.3385 240.54 78.829C241.3 80.2913 242.34 81.4302 243.662 82.2457C245.012 83.0331 246.544 83.4268 248.26 83.4268C249.863 83.4268 251.269 83.0753 252.478 82.3723C253.715 81.6411 254.671 80.5725 255.346 79.1664H262.138C261.153 82.1754 259.424 84.5236 256.949 86.2109C254.503 87.87 251.62 88.6996 248.302 88.6996C245.49 88.6996 242.945 88.0669 240.667 86.8014C238.417 85.5078 236.632 83.7221 235.31 81.4443C234.016 79.1664 233.369 76.5792 233.369 73.6827ZM277.559 88.8262C275.309 88.8262 273.284 88.334 271.484 87.3498C269.685 86.3374 268.264 84.9173 267.224 83.0894C266.212 81.2615 265.705 79.1524 265.705 76.762C265.705 74.3717 266.226 72.2626 267.266 70.4347C268.335 68.6068 269.783 67.2007 271.611 66.2165C273.439 65.2041 275.478 64.6979 277.727 64.6979C279.977 64.6979 282.016 65.2041 283.844 66.2165C285.672 67.2007 287.106 68.6068 288.146 70.4347C289.215 72.2626 289.749 74.3717 289.749 76.762C289.749 79.1524 289.201 81.2615 288.104 83.0894C287.036 84.9173 285.573 86.3374 283.717 87.3498C281.889 88.334 279.837 88.8262 277.559 88.8262ZM277.559 83.6799C278.627 83.6799 279.626 83.4268 280.554 82.9207C281.51 82.3863 282.269 81.5989 282.831 80.5584C283.394 79.5179 283.675 78.2525 283.675 76.762C283.675 74.5404 283.085 72.8391 281.903 71.658C280.75 70.4488 279.33 69.8441 277.643 69.8441C275.956 69.8441 274.536 70.4488 273.383 71.658C272.258 72.8391 271.695 74.5404 271.695 76.762C271.695 78.9836 272.244 80.6991 273.34 81.9083C274.465 83.0894 275.871 83.6799 277.559 83.6799ZM307.031 64.7401C309.815 64.7401 312.065 65.6259 313.78 67.3976C315.496 69.1411 316.354 71.5877 316.354 74.7373V88.4465H310.448V75.5388C310.448 73.6827 309.984 72.2626 309.056 71.2783C308.128 70.266 306.862 69.7598 305.26 69.7598C303.629 69.7598 302.335 70.266 301.379 71.2783C300.451 72.2626 299.987 73.6827 299.987 75.5388V88.4465H294.081V65.0775H299.987V67.9881C300.774 66.9757 301.772 66.1883 302.982 65.6259C304.219 65.0354 305.569 64.7401 307.031 64.7401ZM332.684 69.9285H328.592V88.4465H322.602V69.9285H319.945V65.0775H322.602V63.8964C322.602 61.028 323.418 58.9189 325.049 57.5691C326.68 56.2193 329.14 55.5865 332.431 55.6709V60.6484C330.996 60.6203 329.998 60.8593 329.436 61.3655C328.873 61.8717 328.592 62.7856 328.592 64.1074V65.0775H332.684V69.9285ZM339.506 62.2935C338.465 62.2935 337.593 61.9701 336.89 61.3233C336.215 60.6484 335.878 59.8188 335.878 58.8346C335.878 57.8503 336.215 57.0348 336.89 56.388C337.593 55.7131 338.465 55.3756 339.506 55.3756C340.546 55.3756 341.404 55.7131 342.079 56.388C342.782 57.0348 343.133 57.8503 343.133 58.8346C343.133 59.8188 342.782 60.6484 342.079 61.3233C341.404 61.9701 340.546 62.2935 339.506 62.2935ZM342.416 65.0775V88.4465H336.511V65.0775H342.416ZM346.732 76.6777C346.732 74.3155 347.196 72.2204 348.124 70.3925C349.08 68.5646 350.374 67.1585 352.005 66.1743C353.636 65.19 355.45 64.6979 357.447 64.6979C358.965 64.6979 360.413 65.0354 361.791 65.7103C363.169 66.3571 364.266 67.2288 365.082 68.3256V57.2316H371.071V88.4465H365.082V84.9876C364.35 86.1406 363.324 87.0686 362.002 87.7716C360.681 88.4747 359.148 88.8262 357.404 88.8262C355.436 88.8262 353.636 88.32 352.005 87.3076C350.374 86.2952 349.08 84.8751 348.124 83.0472C347.196 81.1912 346.732 79.068 346.732 76.6777ZM365.124 76.762C365.124 75.3278 364.843 74.1046 364.28 73.0922C363.718 72.0517 362.958 71.2643 362.002 70.73C361.046 70.1675 360.02 69.8863 358.923 69.8863C357.826 69.8863 356.814 70.1535 355.886 70.6878C354.958 71.2221 354.199 72.0095 353.608 73.05C353.046 74.0624 352.764 75.2716 352.764 76.6777C352.764 78.0838 353.046 79.3211 353.608 80.3897C354.199 81.4302 354.958 82.2317 355.886 82.7941C356.842 83.3565 357.854 83.6378 358.923 83.6378C360.02 83.6378 361.046 83.3706 362.002 82.8363C362.958 82.2739 363.718 81.4865 364.28 80.4741C364.843 79.4336 365.124 78.1962 365.124 76.762ZM398.563 76.2559C398.563 77.0995 398.507 77.8588 398.394 78.5337H381.311C381.451 80.221 382.042 81.5427 383.082 82.4988C384.123 83.455 385.402 83.933 386.921 83.933C389.114 83.933 390.675 82.991 391.603 81.1068H397.973C397.298 83.3565 396.004 85.2126 394.092 86.6749C392.18 88.1091 389.831 88.8262 387.047 88.8262C384.798 88.8262 382.773 88.334 380.973 87.3498C379.201 86.3374 377.809 84.9173 376.797 83.0894C375.813 81.2615 375.321 79.1524 375.321 76.762C375.321 74.3436 375.813 72.2204 376.797 70.3925C377.781 68.5646 379.159 67.1585 380.931 66.1743C382.703 65.19 384.741 64.6979 387.047 64.6979C389.269 64.6979 391.252 65.176 392.995 66.1321C394.767 67.0882 396.131 68.4521 397.087 70.2238C398.071 71.9673 398.563 73.978 398.563 76.2559ZM392.447 74.5686C392.419 73.05 391.87 71.8408 390.802 70.9409C389.733 70.0129 388.425 69.5489 386.879 69.5489C385.416 69.5489 384.179 69.9988 383.167 70.8987C382.182 71.7705 381.578 72.9938 381.353 74.5686H392.447ZM415.824 64.7401C418.608 64.7401 420.857 65.6259 422.573 67.3976C424.288 69.1411 425.146 71.5877 425.146 74.7373V88.4465H419.24V75.5388C419.24 73.6827 418.776 72.2626 417.848 71.2783C416.92 70.266 415.655 69.7598 414.052 69.7598C412.421 69.7598 411.127 70.266 410.171 71.2783C409.243 72.2626 408.779 73.6827 408.779 75.5388V88.4465H402.874V65.0775H408.779V67.9881C409.567 66.9757 410.565 66.1883 411.774 65.6259C413.011 65.0354 414.361 64.7401 415.824 64.7401ZM429.243 76.762C429.243 74.3436 429.735 72.2345 430.72 70.4347C431.704 68.6068 433.068 67.2007 434.811 66.2165C436.555 65.2041 438.551 64.6979 440.801 64.6979C443.698 64.6979 446.088 65.4291 447.972 66.8914C449.884 68.3256 451.164 70.3503 451.811 72.9656H445.441C445.104 71.9533 444.527 71.1659 443.712 70.6034C442.924 70.0129 441.94 69.7176 440.759 69.7176C439.072 69.7176 437.736 70.3363 436.752 71.5736C435.767 72.7828 435.275 74.5123 435.275 76.762C435.275 78.9836 435.767 80.7131 436.752 81.9505C437.736 83.1597 439.072 83.7643 440.759 83.7643C443.149 83.7643 444.71 82.6957 445.441 80.5584H451.811C451.164 83.0894 449.884 85.1001 447.972 86.5905C446.06 88.081 443.67 88.8262 440.801 88.8262C438.551 88.8262 436.555 88.334 434.811 87.3498C433.068 86.3374 431.704 84.9313 430.72 83.1316C429.735 81.3037 429.243 79.1805 429.243 76.762ZM477.861 76.2559C477.861 77.0995 477.805 77.8588 477.692 78.5337H460.608C460.749 80.221 461.34 81.5427 462.38 82.4988C463.42 83.455 464.7 83.933 466.219 83.933C468.412 83.933 469.973 82.991 470.901 81.1068H477.27C476.595 83.3565 475.302 85.2126 473.39 86.6749C471.477 88.1091 469.129 88.8262 466.345 88.8262C464.095 88.8262 462.071 88.334 460.271 87.3498C458.499 86.3374 457.107 84.9173 456.095 83.0894C455.111 81.2615 454.618 79.1524 454.618 76.762C454.618 74.3436 455.111 72.2204 456.095 70.3925C457.079 68.5646 458.457 67.1585 460.229 66.1743C462 65.19 464.039 64.6979 466.345 64.6979C468.567 64.6979 470.549 65.176 472.293 66.1321C474.064 67.0882 475.428 68.4521 476.385 70.2238C477.369 71.9673 477.861 73.978 477.861 76.2559ZM471.744 74.5686C471.716 73.05 471.168 71.8408 470.099 70.9409C469.031 70.0129 467.723 69.5489 466.176 69.5489C464.714 69.5489 463.477 69.9988 462.464 70.8987C461.48 71.7705 460.875 72.9938 460.651 74.5686H471.744Z" fill="white"/>
</svg>
