<svg width="81" height="80" viewBox="0 0 81 80" fill="none" xmlns="http://www.w3.org/2000/svg">
<rect x="0.333984" width="80" height="80" rx="40" fill="#2B8CFF"/>
<g clip-path="url(#clip0_1230_538)">
<path d="M24.334 49.4117H37.5105V50.3529C37.5105 51.9098 36.2438 53.1764 34.6869 53.1764H32.8046V55.0588H47.8634V53.1764H45.981C44.4241 53.1764 43.1575 51.9098 43.1575 50.3529V49.4117H56.334V44.7058H24.334V49.4117Z" fill="white"/>
<path d="M44.0886 31.3337C43.9953 30.395 43.2403 29.6864 42.2936 29.6489C41.2309 29.6066 40.7562 30.3839 40.3338 30.689C39.8833 30.3581 39.4612 29.6474 38.4504 29.6474C37.4739 29.6474 36.675 30.3656 36.5789 31.3337C36.4595 32.5349 37.3944 33.0642 37.5102 33.2122V34.2374C37.5102 35.6534 38.2442 36.9257 39.3926 37.6474V34.2696H41.275V37.6474C42.4234 36.9257 43.1573 35.6534 43.1573 34.2374V33.2122C43.2728 33.0645 44.208 32.5343 44.0886 31.3337Z" fill="white"/>
<path d="M24.334 24.9412V42.8235H56.334V24.9412H24.334ZM29.981 40H28.0987V38.1177H29.981V40ZM33.7457 40H31.8634V38.1177H33.7457V40ZM45.0399 34.0194V34.2372C45.0399 36.9547 43.1986 39.3129 40.5623 39.9719L40.334 40.029L40.1057 39.9719C37.4694 39.3129 35.6281 36.9547 35.6281 34.2372V34.0194C33.5869 31.7195 35.0343 27.8972 38.2997 27.7678C39.0218 27.739 39.7226 27.9143 40.334 28.2684C42.6139 26.9479 45.6816 28.3278 45.962 31.1472C46.0679 32.2123 45.7346 33.2366 45.0399 34.0194ZM48.8046 40H46.9222V38.1177H48.8046V40ZM52.5693 40H50.6869V38.1177H52.5693V40Z" fill="white"/>
</g>
<defs>
<clipPath id="clip0_1230_538">
<rect width="32" height="32" fill="white" transform="translate(24.334 24)"/>
</clipPath>
</defs>
</svg>
