<svg width="80" height="80" viewBox="0 0 80 80" fill="none" xmlns="http://www.w3.org/2000/svg">
<rect width="80" height="80" rx="40" fill="#2B8CFF"/>
<path d="M39.0824 38.0298C39.0824 38.3238 38.8446 38.5616 38.5506 38.5616H34.9142C34.6202 38.5616 34.3816 38.3238 34.3816 38.0298V34.3926C34.3816 34.0994 34.6201 33.8608 34.9142 33.8608H38.5506C38.8446 33.8608 39.0824 34.0994 39.0824 34.3926V38.0298ZM45.2286 34.3926C45.2286 34.0994 44.9901 33.8608 44.6961 33.8608H41.0597C40.7657 33.8608 40.5271 34.0994 40.5271 34.3926V38.0298C40.5271 38.3238 40.7656 38.5616 41.0597 38.5616H44.6961C44.9901 38.5616 45.2286 38.3238 45.2286 38.0298V34.3926ZM51.3719 34.3926C51.3719 34.0994 51.1334 33.8608 50.8401 33.8608H47.2029C46.9089 33.8608 46.6711 34.0994 46.6711 34.3926V38.0298C46.6711 38.3238 46.9089 38.5616 47.2029 38.5616H50.8401C51.1333 38.5616 51.3719 38.3238 51.3719 38.0298V34.3926ZM32.9391 39.7937C32.9391 39.4997 32.7013 39.2619 32.4073 39.2619H30.6487L30.9336 40.3254L31.0308 40.6893C31.0794 40.8731 31.027 41.0691 30.8926 41.2028C30.7589 41.3372 30.5629 41.3897 30.3791 41.341L29.3019 41.0524L28.6623 40.8814C28.524 40.9635 28.3827 41.038 28.2383 41.1063V43.4301C28.2383 43.724 28.4768 43.9626 28.7701 43.9626H32.4073C32.7013 43.9626 32.9391 43.7241 32.9391 43.4301V39.7937ZM39.0824 39.7937C39.0824 39.4997 38.8446 39.2619 38.5506 39.2619H34.9142C34.6202 39.2619 34.3816 39.4997 34.3816 39.7937V43.4301C34.3816 43.7241 34.6201 43.9627 34.9142 43.9627H38.5506C38.8446 43.9627 39.0824 43.7242 39.0824 43.4301V39.7937ZM44.6961 39.2619H41.0597C40.7657 39.2619 40.5271 39.4997 40.5271 39.7937V43.4301C40.5271 43.7241 40.7656 43.9627 41.0597 43.9627H44.6961C44.782 43.9627 44.8632 43.9429 44.9346 43.9065C45.0752 43.8358 45.1807 43.7044 45.2156 43.5457C45.224 43.5085 45.2286 43.4697 45.2286 43.4302V39.7938C45.2286 39.4997 44.9901 39.2619 44.6961 39.2619ZM50.8401 39.2619H47.203C46.909 39.2619 46.6712 39.4997 46.6712 39.7937V42.1843C47.0069 41.942 47.3617 41.7262 47.7347 41.5394C48.5255 41.1414 49.3922 40.8748 50.3076 40.7676C50.6092 40.7311 50.9161 40.7129 51.2275 40.7129C51.2754 40.7129 51.324 40.7137 51.3719 40.7144V39.7938C51.3719 39.4997 51.1334 39.2619 50.8401 39.2619ZM32.4074 44.6623H28.7702C28.477 44.6623 28.2384 44.9001 28.2384 45.1941V48.8312C28.2384 49.1244 28.4769 49.363 28.7702 49.363H32.4074C32.7014 49.363 32.9391 49.1245 32.9391 48.8312V45.194C32.9391 44.9 32.7014 44.6623 32.4074 44.6623ZM38.5506 44.6623H34.9142C34.6202 44.6623 34.3816 44.9001 34.3816 45.1941V48.8312C34.3816 49.1244 34.6201 49.363 34.9142 49.363H38.5506C38.8446 49.363 39.0824 49.1245 39.0824 48.8312V45.194C39.0824 44.9 38.8446 44.6623 38.5506 44.6623ZM40.5272 45.194V48.8312C40.5272 49.1244 40.7657 49.363 41.0597 49.363H43.4701C43.439 49.0842 43.4238 48.8008 43.4238 48.5144C43.4238 48.4423 43.4246 48.3708 43.4268 48.2995C43.4511 47.3948 43.6304 46.5287 43.9396 45.7258C44.0809 45.3566 44.2495 45.0019 44.4433 44.6624H41.0598C40.7657 44.6623 40.5272 44.9 40.5272 45.194ZM26.0681 40.5275C23.8439 40.5275 22.0352 38.7188 22.0352 36.4945C22.0352 34.2702 23.8439 32.4615 26.0681 32.4615C28.2916 32.4615 30.1011 34.2702 30.1011 36.4945C30.1011 37.226 29.9036 37.9424 29.5291 38.5653C29.4547 38.6891 29.4342 38.838 29.4714 38.977L29.7654 40.0755L28.714 39.7944C28.5674 39.7549 28.4109 39.7807 28.284 39.8635C27.6246 40.2981 26.8582 40.5275 26.0681 40.5275ZM23.8674 34.9722C23.8674 35.2662 24.1052 35.504 24.3992 35.504H27.7348C28.0288 35.504 28.2666 35.2662 28.2666 34.9722C28.2666 34.6783 28.0288 34.4405 27.7348 34.4405H24.3992C24.1052 34.4405 23.8674 34.6783 23.8674 34.9722ZM23.8674 36.4946C23.8674 36.7886 24.1052 37.0264 24.3992 37.0264H27.7348C28.0288 37.0264 28.2666 36.7886 28.2666 36.4946C28.2666 36.2006 28.0288 35.9628 27.7348 35.9628H24.3992C24.1052 35.9628 23.8674 36.2006 23.8674 36.4946ZM24.3992 38.5464H27.7348C28.0288 38.5464 28.2666 38.3086 28.2666 38.0146C28.2666 37.7214 28.0288 37.4828 27.7348 37.4828H24.3992C24.1052 37.4828 23.8674 37.7213 23.8674 38.0146C23.8674 38.3086 24.1052 38.5464 24.3992 38.5464ZM31.5809 29.4746C31.8741 29.4746 32.1126 29.2369 32.1126 28.9429V25.2776C32.1126 24.9844 31.8741 24.7458 31.5809 24.7458C31.2869 24.7458 31.0483 24.9843 31.0483 25.2776V28.9429C31.0484 29.2369 31.2869 29.4746 31.5809 29.4746ZM48.0295 29.4746C48.3235 29.4746 48.562 29.2369 48.562 28.9429V27.6424V26.5781V25.2776C48.562 24.9844 48.3235 24.7458 48.0295 24.7458C47.7363 24.7458 47.4977 24.9843 47.4977 25.2776V26.5781V27.6424V28.9429C47.4977 29.2369 47.7362 29.4746 48.0295 29.4746ZM26.1501 31.3981C26.8916 31.4095 27.5942 31.5804 28.227 31.8782C28.7876 32.141 29.2928 32.5034 29.7197 32.9417H53.4587V41.0387C53.8255 41.1474 54.1803 41.2833 54.5221 41.4437V28.6976C54.5221 27.5292 53.5718 26.5781 52.4035 26.5781H49.6254V28.9429C49.6254 29.8226 48.9099 30.5381 48.0294 30.5381C47.1497 30.5381 46.4342 29.8226 46.4342 28.9429V26.5781H33.1761V28.9429C33.1761 29.8226 32.4605 30.5381 31.5809 30.5381C30.7004 30.5381 29.9848 29.8226 29.9848 28.9429V26.5781H27.2068C26.0377 26.5781 25.0859 27.5292 25.0859 28.6976V31.493C25.4034 31.43 25.7323 31.3973 26.0681 31.3973C26.0955 31.3973 26.1228 31.3973 26.1501 31.3981ZM27.2069 50.3945C26.6242 50.3945 26.1502 49.9198 26.1502 49.3371V41.5903C26.1228 41.5918 26.0955 41.5918 26.0681 41.5918C25.7324 41.5918 25.4035 41.5591 25.0859 41.4961V49.3372C25.0859 50.5062 26.0378 51.4581 27.2069 51.4581H44.0011C43.8598 51.1155 43.7436 50.7599 43.6532 50.3946L27.2069 50.3945ZM57.9648 48.5144C57.9648 52.2306 54.943 55.254 51.2276 55.254C47.5114 55.254 44.4873 52.2307 44.4873 48.5144C44.4873 44.799 47.5114 41.7764 51.2276 41.7764C54.943 41.7764 57.9648 44.799 57.9648 48.5144ZM55.9434 48.5144C55.9434 45.9141 53.8278 43.7986 51.2276 43.7986C48.6258 43.7986 46.5094 45.9142 46.5094 48.5144C46.5094 51.1162 48.6257 53.2326 51.2276 53.2326C53.8278 53.2325 55.9434 51.1162 55.9434 48.5144ZM53.3984 48.5846L51.7593 48.1139V45.2177C51.7593 44.9239 51.5211 44.6858 51.2274 44.6858C50.9337 44.6858 50.6956 44.9239 50.6956 45.2177V48.5144C50.6956 48.7516 50.8527 48.9601 51.0806 49.0256L53.1047 49.607C53.1538 49.6211 53.2032 49.6278 53.2518 49.6278C53.483 49.6278 53.6957 49.4759 53.7628 49.2426C53.8438 48.9603 53.6807 48.6657 53.3984 48.5846Z" fill="white"/>
</svg>
