<svg width="60" height="60" viewBox="0 0 60 60" fill="none" xmlns="http://www.w3.org/2000/svg">
<rect width="60" height="60" rx="30" fill="white"/>
<g clip-path="url(#clip0_1778_6)">
<path d="M26.7058 43.3991V42.5327H33.2927V43.3991C33.2923 43.515 33.2348 43.6261 33.1326 43.7082C33.0303 43.7903 32.8917 43.8368 32.7469 43.8376H27.2537C27.1088 43.8365 26.9702 43.7899 26.8677 43.708C26.7653 43.626 26.7071 43.5151 26.7058 43.3991ZM47.4038 25.5688C47.4033 25.3776 47.3079 25.1944 47.1387 25.0594C46.9695 24.9243 46.7403 24.8485 46.5013 24.8485H44.0766V26.5673H45.2553V39.9546H14.7453V26.5676H15.924V24.8488H13.4971C13.2585 24.8492 13.0299 24.9252 12.8612 25.0601C12.6924 25.195 12.5974 25.3779 12.5968 25.5688V41.6733H47.4038V25.5688ZM34.367 42.5327V43.3991C34.367 43.743 34.1963 44.0729 33.8926 44.3162C33.5888 44.5595 33.1767 44.6965 32.7469 44.6969H27.2537C26.8239 44.6965 26.4118 44.5595 26.108 44.3162C25.8043 44.0729 25.6337 43.743 25.6337 43.3991V42.5327H10.918V44.2673C10.918 45.2206 11.8096 46 12.9013 46H47.0994C48.191 46 49.0827 45.2206 49.0827 44.2673V42.5327H34.367ZM22.5348 20.7448C22.6884 20.8133 22.8614 20.8492 23.0372 20.8492C23.213 20.8492 23.3859 20.8133 23.5395 20.7448C23.9984 20.5413 24.3572 20.0454 24.3572 19.2487C24.3572 18.9684 24.218 18.6996 23.9702 18.5014C23.7225 18.3032 23.3865 18.1918 23.0361 18.1918C22.6857 18.1918 22.3497 18.3032 22.1019 18.5014C21.8542 18.6996 21.715 18.9684 21.715 19.2487C21.715 20.0454 22.0738 20.5413 22.5348 20.7448ZM20.5646 25.5655H20.6644V23.0673C20.6644 22.9534 20.721 22.8441 20.8217 22.7635C20.9224 22.6829 21.059 22.6376 21.2015 22.6376C21.3439 22.6376 21.4806 22.6829 21.5813 22.7635C21.682 22.8441 21.7386 22.9534 21.7386 23.0673V29.4642C21.7388 29.5043 21.7489 29.544 21.7683 29.581C21.7877 29.6181 21.8161 29.6516 21.8517 29.6799C21.8866 29.7083 21.9282 29.7308 21.9741 29.746C22.0201 29.7613 22.0694 29.7689 22.1191 29.7686C22.1689 29.7688 22.2181 29.761 22.264 29.7457C22.31 29.7305 22.3516 29.7081 22.3866 29.6799C22.4224 29.6517 22.4509 29.6181 22.4704 29.5811C22.4899 29.5441 22.5 29.5044 22.5003 29.4642V26.538C22.5003 26.4816 22.5142 26.4257 22.5412 26.3736C22.5682 26.3214 22.6078 26.2741 22.6576 26.2342C22.7075 26.1943 22.7667 26.1626 22.8319 26.141C22.897 26.1194 22.9669 26.1083 23.0374 26.1083C23.108 26.1083 23.1778 26.1194 23.243 26.141C23.3081 26.1626 23.3673 26.1943 23.4172 26.2342C23.4671 26.2741 23.5067 26.3214 23.5336 26.3736C23.5606 26.4257 23.5745 26.4816 23.5745 26.538V29.4642C23.5738 29.5044 23.5831 29.5444 23.6018 29.5817C23.6206 29.6191 23.6484 29.653 23.6837 29.6817C23.719 29.7104 23.7611 29.7331 23.8075 29.7486C23.8539 29.7642 23.9037 29.7722 23.954 29.7722C24.0043 29.7722 24.0541 29.7642 24.1005 29.7486C24.1469 29.7331 24.189 29.7104 24.2243 29.6817C24.2596 29.653 24.2875 29.6191 24.3062 29.5817C24.325 29.5444 24.3342 29.5044 24.3335 29.4642V23.0673C24.3335 22.9534 24.3901 22.8441 24.4908 22.7635C24.5916 22.6829 24.7282 22.6376 24.8706 22.6376C25.0131 22.6376 25.1497 22.6829 25.2504 22.7635C25.3511 22.8441 25.4077 22.9534 25.4077 23.0673V25.5655H25.5078C25.6829 25.5648 25.8505 25.5088 25.9743 25.4098C26.098 25.3108 26.168 25.1767 26.1689 25.0366V22.7472C26.1667 22.4723 26.0292 22.2091 25.7862 22.0147C25.5432 21.8203 25.2143 21.7103 24.8706 21.7086H21.2018C20.8582 21.71 20.5293 21.82 20.2866 22.0145C20.0438 22.209 19.907 22.4723 19.9057 22.7472V25.0366C19.9058 25.1058 19.9229 25.1743 19.9562 25.2382C19.9894 25.3021 20.038 25.3601 20.0993 25.4089C20.1599 25.4585 20.2323 25.4979 20.3122 25.5248C20.3921 25.5517 20.4779 25.5655 20.5646 25.5655ZM41.8629 14.9116V39.0951H43.0024V14H19.212V14.9116H41.8629ZM40.7886 39.0951H16.9961V15.771H40.7886V39.0951ZM18.8315 25.0366C18.832 25.4044 19.0147 25.757 19.3395 26.0172C19.6644 26.2775 20.1049 26.4241 20.5646 26.425H20.6644V29.4642C20.6643 29.6843 20.7422 29.8998 20.8891 30.0858C21.0359 30.2719 21.2457 30.4208 21.4941 30.5153C21.7424 30.6098 22.0192 30.6461 22.2923 30.6198C22.5654 30.5936 22.8235 30.506 23.0369 30.3671C23.2502 30.5057 23.5082 30.5931 23.781 30.6192C24.0538 30.6453 24.3303 30.6089 24.5784 30.5144C24.8265 30.42 25.036 30.2711 25.1827 30.0853C25.3294 29.8994 25.4072 29.6841 25.4072 29.4642V26.425H25.5073C25.9673 26.4246 26.4084 26.2781 26.7337 26.0179C27.059 25.7576 27.242 25.4047 27.2426 25.0367V22.7472C27.2417 22.2488 26.9962 21.7707 26.5589 21.4157C26.1217 21.0607 25.5277 20.8573 24.9048 20.8492C25.2267 20.4525 25.4311 19.9184 25.4311 19.2487C25.4311 18.7405 25.1787 18.2531 24.7295 17.8937C24.2803 17.5343 23.6711 17.3324 23.0358 17.3324C22.4005 17.3324 21.7912 17.5343 21.342 17.8937C20.8928 18.2531 20.6405 18.7405 20.6405 19.2487C20.6405 19.9184 20.8448 20.4525 21.1667 20.8492C20.5442 20.8578 19.9508 21.0614 19.5141 21.4163C19.0773 21.7713 18.8321 22.2491 18.8312 22.7472L18.8315 25.0366ZM31.279 37.1032C31.2787 36.9893 31.222 36.8801 31.1213 36.7996C31.0207 36.7191 30.8842 36.6737 30.7419 36.6735H19.834C19.6915 36.6735 19.5549 36.7188 19.4542 36.7994C19.3535 36.8799 19.2969 36.9892 19.2969 37.1032C19.2969 37.2171 19.3535 37.3264 19.4542 37.407C19.5549 37.4876 19.6915 37.5329 19.834 37.5329H30.7419C30.8124 37.5329 30.8823 37.5218 30.9475 37.5002C31.0126 37.4786 31.0719 37.447 31.1217 37.4071C31.1716 37.3672 31.2112 37.3198 31.2382 37.2677C31.2651 37.2155 31.279 37.1596 31.279 37.1032ZM31.279 34.8016C31.2787 34.6877 31.222 34.5785 31.1213 34.498C31.0207 34.4175 30.8842 34.3721 30.7419 34.3719H19.834C19.6915 34.3719 19.5549 34.4171 19.4542 34.4977C19.3535 34.5783 19.2969 34.6876 19.2969 34.8016C19.2969 34.9155 19.3535 35.0248 19.4542 35.1054C19.5549 35.186 19.6915 35.2313 19.834 35.2313H30.7419C30.8124 35.2313 30.8823 35.2202 30.9475 35.1986C31.0126 35.177 31.0719 35.1454 31.1217 35.1055C31.1716 35.0655 31.2112 35.0182 31.2382 34.966C31.2651 34.9139 31.279 34.858 31.279 34.8016ZM31.279 32.4999C31.2787 32.386 31.222 32.2769 31.1213 32.1964C31.0207 32.1158 30.8842 32.0705 30.7419 32.0702H19.834C19.6915 32.0702 19.5549 32.1155 19.4542 32.1961C19.3535 32.2767 19.2969 32.386 19.2969 32.4999C19.2969 32.6139 19.3535 32.7232 19.4542 32.8038C19.5549 32.8844 19.6915 32.9296 19.834 32.9296H30.7419C30.8124 32.9296 30.8823 32.9186 30.9474 32.897C31.0126 32.8754 31.0718 32.8437 31.1217 32.8039C31.1716 32.764 31.2112 32.7166 31.2381 32.6644C31.2651 32.6123 31.279 32.5564 31.279 32.5V32.4999ZM38.9554 33.8848C38.9554 33.8283 38.9416 33.7724 38.9146 33.7203C38.8876 33.6681 38.848 33.6207 38.7982 33.5808C38.7483 33.5409 38.6891 33.5093 38.6239 33.4877C38.5587 33.4661 38.4888 33.455 38.4183 33.4551H37.2245V32.5C37.2245 32.4436 37.2106 32.3877 37.1836 32.3355C37.1566 32.2834 37.117 32.236 37.0672 32.1961C37.0173 32.1562 36.958 32.1246 36.8929 32.103C36.8277 32.0814 36.7578 32.0703 36.6873 32.0703H34.393C34.2507 32.0706 34.1143 32.1159 34.0136 32.1964C33.9129 32.277 33.8562 32.3861 33.8559 32.5V33.4551H32.6644C32.5938 33.455 32.5238 33.4659 32.4586 33.4875C32.3933 33.509 32.334 33.5407 32.2841 33.5806C32.2342 33.6205 32.1946 33.668 32.1677 33.7202C32.1408 33.7724 32.127 33.8283 32.1273 33.8848V35.7202C32.1272 35.7766 32.1411 35.8325 32.168 35.8847C32.195 35.9368 32.2346 35.9842 32.2845 36.0242C32.3343 36.0641 32.3936 36.0957 32.4588 36.1173C32.5239 36.1389 32.5938 36.15 32.6644 36.15H33.8561V37.1034C33.8561 37.1598 33.8699 37.2157 33.8969 37.2678C33.9239 37.32 33.9635 37.3674 34.0133 37.4073C34.0632 37.4472 34.1224 37.4788 34.1876 37.5004C34.2528 37.522 34.3227 37.5331 34.3932 37.5331H36.6874C36.758 37.5332 36.828 37.5222 36.8932 37.5007C36.9585 37.4792 37.0178 37.4475 37.0677 37.4076C37.1177 37.3677 37.1572 37.3202 37.1841 37.268C37.2111 37.2158 37.2248 37.1599 37.2246 37.1034V36.15H38.4183C38.5606 36.1498 38.6971 36.1044 38.7978 36.0239C38.8984 35.9434 38.9551 35.8342 38.9554 35.7203V33.8848ZM38.9554 30.1983C38.9551 30.0844 38.8984 29.9753 38.7978 29.8947C38.6971 29.8142 38.5606 29.7689 38.4183 29.7686H28.6129C28.4716 29.77 28.3366 29.8159 28.2372 29.8963C28.1379 29.9767 28.0822 30.0853 28.0822 30.1983C28.0822 30.3114 28.1379 30.4199 28.2372 30.5004C28.3366 30.5808 28.4716 30.6267 28.6129 30.6281H38.4183C38.4888 30.6281 38.5587 30.617 38.6239 30.5954C38.6891 30.5738 38.7483 30.5422 38.7982 30.5022C38.8481 30.4623 38.8876 30.4149 38.9146 30.3628C38.9416 30.3106 38.9554 30.2548 38.9554 30.1983ZM38.9554 27.8967C38.9551 27.7828 38.8984 27.6737 38.7977 27.5931C38.6971 27.5126 38.5606 27.4672 38.4183 27.467H28.6129C28.4716 27.4684 28.3366 27.5142 28.2372 27.5947C28.1379 27.6751 28.0822 27.7836 28.0822 27.8967C28.0822 28.0098 28.1379 28.1183 28.2372 28.1988C28.3366 28.2792 28.4716 28.3251 28.6129 28.3264H38.4183C38.4888 28.3265 38.5587 28.3154 38.6239 28.2938C38.6891 28.2722 38.7483 28.2405 38.7982 28.2006C38.8481 28.1607 38.8876 28.1133 38.9146 28.0612C38.9416 28.009 38.9554 27.9531 38.9554 27.8967ZM38.9554 25.5951C38.9551 25.4812 38.8984 25.372 38.7978 25.2915C38.6971 25.211 38.5606 25.1656 38.4183 25.1654H28.6129C28.4704 25.1654 28.3338 25.2106 28.2331 25.2912C28.1324 25.3718 28.0758 25.4811 28.0758 25.5951C28.0758 25.709 28.1324 25.8183 28.2331 25.8989C28.3338 25.9795 28.4704 26.0247 28.6129 26.0247H38.4183C38.5606 26.0245 38.6971 25.9792 38.7978 25.8986C38.8984 25.8181 38.9551 25.709 38.9554 25.5951ZM38.9554 23.2934C38.9551 23.1796 38.8984 23.0704 38.7977 22.9899C38.6971 22.9093 38.5606 22.864 38.4183 22.8638H28.6129C28.4716 22.8651 28.3366 22.911 28.2372 22.9914C28.1379 23.0719 28.0822 23.1804 28.0822 23.2935C28.0822 23.4065 28.1379 23.5151 28.2372 23.5955C28.3366 23.676 28.4716 23.7218 28.6129 23.7232H38.4183C38.5606 23.7229 38.697 23.6776 38.7976 23.5971C38.8983 23.5167 38.955 23.4076 38.9554 23.2937V23.2934ZM38.9554 20.9918C38.9551 20.8779 38.8984 20.7688 38.7977 20.6883C38.6971 20.6077 38.5606 20.5624 38.4183 20.5621H28.6129C28.4716 20.5635 28.3366 20.6094 28.2372 20.6898C28.1379 20.7702 28.0822 20.8788 28.0822 20.9918C28.0822 21.1049 28.1379 21.2134 28.2372 21.2939C28.3366 21.3743 28.4716 21.4202 28.6129 21.4216H38.4183C38.5606 21.4213 38.6971 21.376 38.7978 21.2954C38.8984 21.2149 38.9551 21.1057 38.9554 20.9918ZM38.9554 18.6902C38.9554 18.6338 38.9415 18.5779 38.9146 18.5257C38.8876 18.4736 38.848 18.4262 38.7981 18.3863C38.7483 18.3464 38.689 18.3147 38.6239 18.2932C38.5587 18.2716 38.4888 18.2605 38.4183 18.2605H28.6129C28.4704 18.2605 28.3338 18.3058 28.2331 18.3864C28.1324 18.4669 28.0758 18.5762 28.0758 18.6902C28.0758 18.8041 28.1324 18.9134 28.2331 18.994C28.3338 19.0746 28.4704 19.1199 28.6129 19.1199H38.4183C38.5606 19.1196 38.6971 19.0743 38.7978 18.9938C38.8984 18.9132 38.9551 18.8041 38.9554 18.6902ZM36.1502 33.8848V32.9296H34.93V33.8848C34.93 33.9412 34.9162 33.9971 34.8892 34.0492C34.8622 34.1014 34.8226 34.1487 34.7728 34.1886C34.7229 34.2285 34.6636 34.2602 34.5985 34.2818C34.5333 34.3034 34.4634 34.3145 34.3929 34.3144H33.2013V35.2904H34.393C34.4636 35.2903 34.5335 35.3014 34.5986 35.323C34.6638 35.3446 34.7231 35.3763 34.7729 35.4162C34.8228 35.4561 34.8624 35.5035 34.8894 35.5556C34.9163 35.6078 34.9302 35.6637 34.9302 35.7201V36.6735H36.1502V35.7201C36.1505 35.6062 36.2072 35.4971 36.3078 35.4165C36.4085 35.336 36.5449 35.2906 36.6873 35.2904H37.8812V34.3144H36.6873C36.5449 34.3142 36.4085 34.2688 36.3078 34.1883C36.2072 34.1078 36.1505 33.9986 36.1502 33.8848Z" fill="#2B8CFF"/>
</g>
<defs>
<clipPath id="clip0_1778_6">
<rect width="40" height="32" fill="white" transform="translate(10 14)"/>
</clipPath>
</defs>
</svg>
