<svg width="80" height="80" viewBox="0 0 80 80" fill="none" xmlns="http://www.w3.org/2000/svg">
<rect width="80" height="80" rx="40" fill="#F5F9FF"/>
<g clip-path="url(#clip0_2877_7479)">
<path d="M56.949 51.6754L55.5154 44.8869C54.62 42.0562 51.8317 40 48.8829 40C45.7533 40 42.9519 42.2415 42.2169 45.3492L40.8081 51.6798C40.6623 52.3827 40.8417 53.109 41.2981 53.669C41.7706 54.2494 42.4765 54.5819 43.2348 54.5819H45.6396C45.8233 56.2196 47.1971 57.4985 48.8844 57.4985C50.5717 57.4985 51.9454 56.221 52.1292 54.5819H54.5267C55.2865 54.5819 55.9923 54.2479 56.4648 53.6675C56.9212 53.1046 57.0992 52.3783 56.9504 51.674L56.949 51.6754ZM57 34.1667H22V32.7083C22 28.6877 25.271 25.4167 29.2917 25.4167H30.75V23.9583C30.75 23.1533 31.4033 22.5 32.2083 22.5C33.0133 22.5 33.6667 23.1533 33.6667 23.9583V25.4167H45.3333V23.9583C45.3333 23.1533 45.9867 22.5 46.7917 22.5C47.5967 22.5 48.25 23.1533 48.25 23.9583V25.4167H49.7083C53.729 25.4167 57 28.6877 57 32.7083V34.1667ZM39.0348 55.5094C40.0629 56.7738 41.5927 57.5 43.2348 57.5H29.2917C25.271 57.5 22 54.229 22 50.2083V37.0833H48.8815C44.4146 37.0833 40.4173 40.2771 39.3687 44.7163L37.9513 51.0906C37.6275 52.6583 38.0242 54.2698 39.0348 55.5094Z" fill="#2B8CFF"/>
</g>
<defs>
<clipPath id="clip0_2877_7479">
<rect width="35" height="35" fill="white" transform="translate(22 22.5)"/>
</clipPath>
</defs>
</svg>
