<svg width="80" height="80" viewBox="0 0 80 80" fill="none" xmlns="http://www.w3.org/2000/svg">
<rect width="80" height="80" rx="40" fill="#F5F9FF"/>
<g clip-path="url(#clip0_2896_559)">
<path d="M57.5 50.2083C57.5 52.6204 55.5371 54.5833 53.125 54.5833V56.0417C53.125 56.8467 52.4731 57.5 51.6667 57.5C50.8602 57.5 50.2083 56.8467 50.2083 56.0417V54.5833H49.8175C48.2615 54.5833 46.809 53.7463 46.0288 52.3973C45.6248 51.7002 45.864 50.8092 46.5596 50.4052C47.2596 50.0013 48.1506 50.2404 48.5517 50.9375C48.8127 51.3867 49.2969 51.6667 49.816 51.6667H53.1235C53.9285 51.6667 54.5819 51.0119 54.5819 50.2083C54.5819 49.6571 54.1867 49.1904 53.6427 49.1L49.2079 48.3606C47.2508 48.0354 45.8319 46.3583 45.8319 44.375C45.8319 41.9629 47.7948 40 50.2069 40V38.5417C50.2069 37.7367 50.8588 37.0833 51.6652 37.0833C52.4717 37.0833 53.1235 37.7367 53.1235 38.5417V40H53.5144C55.0704 40 56.5229 40.8385 57.3031 42.1875C57.7071 42.8846 57.4679 43.7756 56.7723 44.1796C56.0708 44.5821 55.1813 44.3429 54.7802 43.6473C54.5192 43.1967 54.035 42.9181 53.5158 42.9181H50.2083C49.4033 42.9181 48.75 43.5729 48.75 44.3765C48.75 44.9277 49.1452 45.3944 49.6892 45.4848L54.124 46.2242C56.081 46.5494 57.5 48.225 57.5 50.2083ZM41.4583 34.1667H50.9958C50.4898 32.8352 49.7125 31.6102 48.6756 30.5733L43.5948 25.4896C42.5565 24.4527 41.3315 23.6754 40 23.1708V32.7083C40 33.5119 40.6533 34.1667 41.4583 34.1667ZM47.1006 56.9706C46.2577 57.3119 45.339 57.5 44.375 57.5H29.7917C25.771 57.5 22.5 54.229 22.5 50.2083V29.7917C22.5 25.771 25.771 22.5 29.7917 22.5H36.376C36.6138 22.5 36.8485 22.519 37.0833 22.535V32.7083C37.0833 35.1204 39.0463 37.0833 41.4583 37.0833H47.5425C47.4769 37.2685 47.4229 37.4581 47.3821 37.6535C45.5883 38.4104 44.1577 39.8673 43.4329 41.6785C43.0435 41.5371 42.6235 41.4583 42.186 41.4583H31.9792C29.9696 41.4583 28.3333 43.0946 28.3333 45.1042V48.0208C28.3333 50.0304 29.9696 51.6667 31.9792 51.6667H42.1875C42.4369 51.6667 42.6804 51.6419 42.9152 51.5938C42.9006 52.3813 43.1004 53.16 43.5044 53.8571C44.3298 55.2863 45.6102 56.3713 47.1006 56.9721V56.9706ZM28.3333 31.25C28.3333 32.055 28.9867 32.7083 29.7917 32.7083H32.7083C33.5133 32.7083 34.1667 32.055 34.1667 31.25C34.1667 30.445 33.5133 29.7917 32.7083 29.7917H29.7917C28.9867 29.7917 28.3333 30.445 28.3333 31.25ZM28.3333 37.0833C28.3333 37.8883 28.9867 38.5417 29.7917 38.5417H32.7083C33.5133 38.5417 34.1667 37.8883 34.1667 37.0833C34.1667 36.2783 33.5133 35.625 32.7083 35.625H29.7917C28.9867 35.625 28.3333 36.2783 28.3333 37.0833ZM31.9792 44.375C31.5767 44.375 31.25 44.7017 31.25 45.1042V48.0208C31.25 48.4233 31.5767 48.75 31.9792 48.75H42.1875C42.59 48.75 42.9167 48.4233 42.9167 48.0208V45.1042C42.9167 44.7017 42.59 44.375 42.1875 44.375H31.9792Z" fill="#2B8CFF"/>
</g>
<defs>
<clipPath id="clip0_2896_559">
<rect width="35" height="35" fill="white" transform="translate(22.5 22.5)"/>
</clipPath>
</defs>
</svg>
