<svg width="80" height="80" viewBox="0 0 80 80" fill="none" xmlns="http://www.w3.org/2000/svg">
<rect width="80" height="80" rx="40" fill="white"/>
<g clip-path="url(#clip0_1778_270)">
<path d="M30.4001 28.703V22H30.3249C30.0453 22 29.7769 22.1112 29.5792 22.309L22.8012 29.087C22.6031 29.2848 22.4922 29.5531 22.4922 29.8327V29.908H29.1952C29.8596 29.908 30.4001 29.3674 30.4001 28.703Z" fill="#2B8CFF"/>
<path d="M37.2529 48.9626C37.2529 42.8161 42.2536 37.8154 48.4001 37.8154C48.7561 37.8154 49.1077 37.8324 49.4548 37.8654V25.3138C49.4548 23.4919 47.9813 22 46.1403 22H32.5095V28.7028C32.5095 30.5303 31.0225 32.0173 29.1949 32.0173H22.4922V54.6862C22.4922 56.5135 23.9786 58 25.8059 58H41.8822C39.0796 55.9736 37.2529 52.6774 37.2529 48.9626ZM29.1952 35.5563H40.4922C41.0747 35.5563 41.5469 36.0284 41.5469 36.611C41.5469 37.1935 41.0747 37.6657 40.4922 37.6657H29.1952C28.6129 37.6657 28.1405 37.1935 28.1405 36.611C28.1405 36.0284 28.6129 35.5563 29.1952 35.5563ZM34.0885 51.222H29.1952C28.6127 51.222 28.1405 50.7496 28.1405 50.1673C28.1405 49.5847 28.6127 49.1126 29.1952 49.1126H34.0885C34.6711 49.1126 35.1432 49.5847 35.1432 50.1673C35.1432 50.7496 34.6711 51.222 34.0885 51.222ZM34.0885 46.703H29.1952C28.6127 46.703 28.1405 46.2309 28.1405 45.6483C28.1405 45.0661 28.6127 44.5937 29.1952 44.5937H34.0885C34.6711 44.5937 35.1432 45.0661 35.1432 45.6483C35.1432 46.2309 34.6711 46.703 34.0885 46.703ZM35.9735 42.1844H29.1952C28.6129 42.1844 28.1405 41.7122 28.1405 41.1297C28.1405 40.5471 28.6129 40.075 29.1952 40.075H35.9735C36.5558 40.075 37.0282 40.5471 37.0282 41.1297C37.0282 41.7122 36.5558 42.1844 35.9735 42.1844Z" fill="#2B8CFF"/>
<path d="M48.4009 39.9248C43.4095 39.9248 39.3633 43.9711 39.3633 48.9622C39.3633 53.9535 43.4095 57.9998 48.4009 57.9998C53.392 57.9998 57.4383 53.9535 57.4383 48.9624C57.4383 43.9711 53.392 39.9248 48.4009 39.9248ZM49.5303 53.4061H49.4556V54.6108C49.4556 55.1933 48.9832 55.6655 48.4009 55.6655C47.8184 55.6655 47.3462 55.1933 47.3462 54.6108V53.4061H46.1413C45.559 53.4061 45.0866 52.9337 45.0866 52.3514C45.0866 51.7689 45.559 51.2968 46.1413 51.2968H49.5303C50.3773 51.2968 50.376 50.0171 49.5303 50.0171H47.271C45.7527 50.0171 44.5219 48.7888 44.5219 47.2678C44.5219 45.7495 45.7502 44.5185 47.271 44.5185H47.3459V43.3138C47.3459 42.7315 47.8184 42.2591 48.4006 42.2591C48.9832 42.2591 49.4553 42.7315 49.4553 43.3138V44.5185H50.66C51.2425 44.5185 51.7147 44.9909 51.7147 45.5732C51.7147 46.1557 51.2425 46.6278 50.66 46.6278H47.271C46.4258 46.6278 46.4231 47.9077 47.271 47.9077H49.5303C51.0489 47.9077 52.2796 49.1357 52.2796 50.6568C52.2796 52.1724 51.0544 53.4061 49.5303 53.4061Z" fill="#2B8CFF"/>
</g>
<defs>
<clipPath id="clip0_1778_270">
<rect width="36" height="36" fill="white" transform="translate(22 22)"/>
</clipPath>
</defs>
</svg>
