<svg width="80" height="80" viewBox="0 0 80 80" fill="none" xmlns="http://www.w3.org/2000/svg">
<rect width="80" height="80" rx="40" fill="#2B8CFF"/>
<path d="M45.75 43.2002L37.5 37.8752V46.6152C37.575 46.6902 37.385 46.9452 38 47.1152H53.5C53.565 47.0452 53.83 47.2252 54 46.6152V37.7002L45.75 43.2002Z" fill="white"/>
<path d="M40.1089 48.1547L38.2689 49.8547C37.0789 50.2647 34.7689 49.1647 32.7339 47.1297C30.6989 45.0947 29.5989 42.7847 29.9989 41.5947L31.6989 39.7547C31.789 39.6614 31.8394 39.5368 31.8394 39.4072C31.8394 39.2775 31.789 39.1529 31.6989 39.0597L29.2339 36.5997C29.1873 36.552 29.1317 36.5142 29.0703 36.4884C29.0089 36.4625 28.943 36.4492 28.8764 36.4492C28.8098 36.4492 28.7438 36.4625 28.6824 36.4884C28.621 36.5142 28.5654 36.552 28.5189 36.5997L26.7989 38.3797C24.9489 40.8547 26.4139 45.7197 30.2989 49.5847C34.1839 53.4497 38.9989 54.9147 41.4989 53.0647L43.2739 51.3447C43.3215 51.2981 43.3593 51.2425 43.3852 51.1811C43.411 51.1197 43.4243 51.0538 43.4243 50.9872C43.4243 50.9206 43.411 50.8546 43.3852 50.7932C43.3593 50.7318 43.3215 50.6762 43.2739 50.6297L40.8139 48.1697C40.7222 48.0745 40.5966 48.0195 40.4645 48.0167C40.3324 48.0139 40.2045 48.0635 40.1089 48.1547Z" fill="white"/>
<path d="M54 37.7002V36.6152C54 36.4826 53.9473 36.3554 53.8536 36.2617C53.7598 36.1679 53.6326 36.1152 53.5 36.1152H38C37.8674 36.1152 37.7402 36.1679 37.6464 36.2617C37.5527 36.3554 37.5 36.4826 37.5 36.6152V37.8752L45.75 43.2002L54 37.7002Z" fill="white"/>
<path d="M45.0943 37.2143C45.9424 36.3662 46.5393 35.2999 46.819 34.1334C47.0986 32.967 47.05 31.746 46.6786 30.6055C46.3072 29.4649 45.6274 28.4494 44.7146 27.6713C43.8017 26.8933 42.6914 26.3829 41.5064 26.1969C40.3215 26.0108 39.1081 26.1562 38.0007 26.6171C36.8933 27.0779 35.935 27.8362 35.2319 28.8079C34.5288 29.7797 34.1083 30.9271 34.0169 32.1231C33.9256 33.3191 34.1669 34.517 34.7143 35.5843L34.1893 38.6343C34.1834 38.6738 34.1868 38.7141 34.1993 38.7519C34.2118 38.7898 34.2329 38.8242 34.2612 38.8525C34.2894 38.8807 34.3238 38.9019 34.3617 38.9143C34.3996 38.9268 34.4398 38.9302 34.4793 38.9243L37.5293 38.3993C38.7533 39.028 40.1453 39.252 41.5048 39.039C42.8643 38.8261 44.1211 38.1872 45.0943 37.2143Z" fill="white"/>
<path d="M53.9997 35.6248H46.8197C47.3272 34.5559 47.5556 33.3758 47.4833 32.1947C47.4111 31.0137 47.0406 29.8702 46.4066 28.8711C45.7725 27.8721 44.8956 27.0501 43.8576 26.4819C42.8197 25.9137 41.6547 25.6179 40.4714 25.6221C39.2882 25.6263 38.1253 25.9304 37.0914 26.506C36.0576 27.0816 35.1865 27.9098 34.5596 28.9134C33.9327 29.9169 33.5704 31.063 33.5066 32.2445C33.4427 33.4261 33.6795 34.6045 34.1947 35.6698L33.6397 38.9047C33.6227 38.9851 33.6258 39.0684 33.6486 39.1473C33.6715 39.2262 33.7135 39.2983 33.7708 39.3571C33.8282 39.4159 33.8991 39.4597 33.9774 39.4846C34.0557 39.5095 34.1389 39.5147 34.2197 39.4998L36.9997 38.9998V47.1248C36.9997 47.2574 37.0523 47.3845 37.1461 47.4783C37.2399 47.5721 37.367 47.6248 37.4997 47.6248H39.9697L38.2347 49.3647C38.1918 49.3654 38.1494 49.3738 38.1097 49.3897C37.2297 49.6947 35.1097 48.7998 33.1097 46.7847C31.1097 44.7698 30.1997 42.6448 30.5047 41.7847C30.5122 41.7434 30.5122 41.7011 30.5047 41.6597L32.3847 39.7847C32.4315 39.7383 32.4687 39.683 32.4941 39.622C32.5195 39.5611 32.5326 39.4958 32.5326 39.4298C32.5326 39.3637 32.5195 39.2984 32.4941 39.2375C32.4687 39.1765 32.4315 39.1212 32.3847 39.0747L29.2247 35.9148C29.1782 35.8679 29.1229 35.8307 29.0619 35.8053C29.001 35.7799 28.9357 35.7669 28.8697 35.7669C28.8036 35.7669 28.7383 35.7799 28.6774 35.8053C28.6164 35.8307 28.5611 35.8679 28.5147 35.9148C28.2197 36.2998 26.3747 37.8848 26.2897 38.2548C24.4197 40.9998 25.9547 45.9998 29.9247 49.9498C32.7597 52.7798 36.1097 54.3748 38.7997 54.3748C39.7951 54.4038 40.7761 54.132 41.6147 53.5947C41.6747 53.7197 43.8397 51.4797 43.9797 51.3547C44.0265 51.3083 44.0637 51.253 44.0891 51.192C44.1145 51.1311 44.1276 51.0658 44.1276 50.9998C44.1276 50.9337 44.1145 50.8684 44.0891 50.8075C44.0637 50.7465 44.0265 50.6912 43.9797 50.6448L40.9797 47.6448H53.9997C54.1323 47.6448 54.2594 47.5921 54.3532 47.4983C54.447 47.4045 54.4997 47.2774 54.4997 47.1448V36.1448C54.5023 36.0774 54.4914 36.0103 54.4675 35.9473C54.4436 35.8843 54.4072 35.8268 54.3605 35.7782C54.3138 35.7296 54.2577 35.691 54.1957 35.6646C54.1337 35.6383 54.067 35.6247 53.9997 35.6248ZM41.1897 52.6747C38.9047 54.3848 34.2647 52.8748 30.6347 49.2397C27.0047 45.6048 25.4997 40.9998 27.1997 38.6848C27.1997 38.5498 28.6997 37.1848 28.8747 36.9548L31.3297 39.4097L29.5747 41.1648C28.9997 42.8098 30.1947 45.2198 32.3847 47.4998C34.4997 49.5298 36.9147 50.8997 38.7097 50.2997L40.4647 48.5448L42.9197 50.9998L41.1897 52.6747ZM53.4997 36.6248V37.3597L45.7447 42.5298L41.1997 39.5948C42.8044 39.4375 44.3056 38.731 45.4497 37.5948C45.7401 37.3016 46.0044 36.9837 46.2397 36.6448L53.4997 36.6248ZM35.1597 35.3647C34.5069 34.0924 34.3302 32.6287 34.6611 31.2375C34.9921 29.8463 35.8091 28.619 36.9649 27.7769C38.1206 26.9348 39.5392 26.5331 40.9649 26.6444C42.3906 26.7556 43.7297 27.3724 44.7409 28.3835C45.752 29.3947 46.3688 30.7338 46.48 32.1595C46.5913 33.5852 46.1896 35.0038 45.3475 36.1595C44.5054 37.3153 43.2781 38.1323 41.8869 38.4633C40.4957 38.7942 39.032 38.6175 37.7597 37.9648C37.6612 37.9197 37.5522 37.9024 37.4447 37.9148L34.7447 38.3798L35.2097 35.6798C35.2254 35.5721 35.208 35.4622 35.1597 35.3647ZM37.9997 46.6248V39.1547C38.3894 39.3078 38.7929 39.4233 39.2047 39.4998L45.4997 43.5448C45.5897 43.5448 45.6047 43.7198 46.0447 43.5448L53.5447 38.5448V46.6248H37.9997Z" fill="#2B8CFF"/>
<path d="M38 31.625H43C43.1326 31.625 43.2598 31.5723 43.3536 31.4786C43.4473 31.3848 43.5 31.2576 43.5 31.125C43.5 30.9924 43.4473 30.8652 43.3536 30.7714C43.2598 30.6777 43.1326 30.625 43 30.625H38C37.8674 30.625 37.7402 30.6777 37.6464 30.7714C37.5527 30.8652 37.5 30.9924 37.5 31.125C37.5 31.2576 37.5527 31.3848 37.6464 31.4786C37.7402 31.5723 37.8674 31.625 38 31.625Z" fill="#2B8CFF"/>
<path d="M37 34.125H44C44.1326 34.125 44.2598 34.0723 44.3536 33.9786C44.4473 33.8848 44.5 33.7576 44.5 33.625C44.5 33.4924 44.4473 33.3652 44.3536 33.2714C44.2598 33.1777 44.1326 33.125 44 33.125H37C36.8674 33.125 36.7402 33.1777 36.6464 33.2714C36.5527 33.3652 36.5 33.4924 36.5 33.625C36.5 33.7576 36.5527 33.8848 36.6464 33.9786C36.7402 34.0723 36.8674 34.125 37 34.125Z" fill="#2B8CFF"/>
<path d="M53.9998 35.6243H46.8198C47.4175 34.3151 47.6064 32.8561 47.362 31.4378C47.1176 30.0195 46.4512 28.7079 45.4498 27.6743C42.9998 25.1243 38.2598 24.8693 35.5498 27.6743C34.521 28.7019 33.8378 30.0243 33.595 31.458C33.3521 32.8916 33.5618 34.3653 34.1948 35.6743L33.6398 38.9093C33.6148 39.0993 33.6148 39.5743 34.2198 39.4893L36.9998 38.9993V47.1243C36.9998 47.2569 37.0525 47.3841 37.1462 47.4779C37.24 47.5716 37.3672 47.6243 37.4998 47.6243H39.9698L38.2348 49.3643C37.3048 49.7093 35.2348 48.8643 33.0898 46.7843C31.1798 44.8793 30.1348 42.5893 30.5098 41.6393L32.3898 39.7643C32.4367 39.7178 32.4739 39.6625 32.4992 39.6016C32.5246 39.5407 32.5377 39.4753 32.5377 39.4093C32.5377 39.3433 32.5246 39.2779 32.4992 39.217C32.4739 39.1561 32.4367 39.1008 32.3898 39.0543L29.2298 35.8943C29.1833 35.8474 29.128 35.8102 29.0671 35.7849C29.0061 35.7595 28.9408 35.7464 28.8748 35.7464C28.8088 35.7464 28.7434 35.7595 28.6825 35.7849C28.6216 35.8102 28.5663 35.8474 28.5198 35.8943C28.2248 36.2793 26.5548 37.8543 26.2948 38.2343C24.4198 40.9993 25.9548 45.9993 29.9248 49.9493C32.7598 52.7793 36.1098 54.3743 38.7998 54.3743C39.7952 54.4034 40.7763 54.1315 41.6148 53.5943C41.8198 53.4693 43.8398 51.4793 43.9798 51.3543C44.0267 51.3078 44.0639 51.2525 44.0892 51.1916C44.1146 51.1307 44.1277 51.0653 44.1277 50.9993C44.1277 50.9333 44.1146 50.8679 44.0892 50.807C44.0639 50.7461 44.0267 50.6908 43.9798 50.6443L40.9798 47.6443H53.9998C54.1324 47.6443 54.2596 47.5916 54.3533 47.4979C54.4471 47.4041 54.4998 47.2769 54.4998 47.1443V36.1443C54.5025 36.077 54.4916 36.0098 54.4676 35.9468C54.4437 35.8838 54.4073 35.8263 54.3606 35.7777C54.3139 35.7292 54.2579 35.6905 54.1959 35.6642C54.1339 35.6378 54.0672 35.6242 53.9998 35.6243ZM41.1898 52.6743C38.9048 54.3843 34.2648 52.8743 30.6348 49.2393C27.0048 45.6043 25.4998 40.9993 27.1998 38.6843C27.3598 38.4693 28.6998 37.1843 28.8748 36.9543L31.3298 39.4093L29.5748 41.1643C28.9998 42.8093 30.1948 45.2193 32.3848 47.4993C34.4998 49.5293 36.9148 50.8993 38.7098 50.2993L40.4648 48.5443L42.9198 50.9993L41.1898 52.6743ZM53.4998 36.6243V37.3593L45.7448 42.5293L41.1998 39.5943C42.202 39.4832 43.1692 39.1611 44.0379 38.6492C44.9066 38.1373 45.657 37.4472 46.2398 36.6243H53.4998ZM35.1598 35.3643C34.5756 34.2324 34.3669 32.9439 34.5637 31.6854C34.7606 30.4269 35.3529 29.2638 36.2548 28.3643C38.3348 26.2043 42.3898 25.9393 44.7548 28.3643C46.9148 30.4393 47.1798 34.4993 44.7548 36.8643C43.8553 37.7662 42.6922 38.3585 41.4337 38.5553C40.1752 38.7522 38.8867 38.5435 37.7548 37.9593C37.6563 37.9143 37.5474 37.897 37.4398 37.9093L34.7398 38.3743L35.2048 35.6743C35.2211 35.5688 35.2054 35.4608 35.1598 35.3643ZM37.9998 46.6243V39.1543C38.3896 39.3073 38.7931 39.4228 39.2048 39.4993L45.4998 43.5443C45.5898 43.5443 45.6048 43.7193 46.0448 43.5443L53.5448 38.5443V46.6243H37.9998Z" fill="#2B8CFF"/>
<path d="M38 31.625H43C43.1326 31.625 43.2598 31.5723 43.3536 31.4786C43.4473 31.3848 43.5 31.2576 43.5 31.125C43.5 30.9924 43.4473 30.8652 43.3536 30.7714C43.2598 30.6777 43.1326 30.625 43 30.625H38C37.8674 30.625 37.7402 30.6777 37.6464 30.7714C37.5527 30.8652 37.5 30.9924 37.5 31.125C37.5 31.2576 37.5527 31.3848 37.6464 31.4786C37.7402 31.5723 37.8674 31.625 38 31.625Z" fill="#2B8CFF"/>
<path d="M37 34.125H44C44.1326 34.125 44.2598 34.0723 44.3536 33.9786C44.4473 33.8848 44.5 33.7576 44.5 33.625C44.5 33.4924 44.4473 33.3652 44.3536 33.2714C44.2598 33.1777 44.1326 33.125 44 33.125H37C36.8674 33.125 36.7402 33.1777 36.6464 33.2714C36.5527 33.3652 36.5 33.4924 36.5 33.625C36.5 33.7576 36.5527 33.8848 36.6464 33.9786C36.7402 34.0723 36.8674 34.125 37 34.125Z" fill="#2B8CFF"/>
</svg>
