<svg width="60" height="60" viewBox="0 0 60 60" fill="none" xmlns="http://www.w3.org/2000/svg">
<rect width="60" height="60" rx="30" fill="#2B8CFF"/>
<path d="M41.7963 33.8072L35.9075 31.1685L35.8913 31.161C35.5856 31.0302 35.2521 30.9778 34.921 31.0083C34.5899 31.0389 34.2716 31.1515 33.995 31.336C33.9624 31.3575 33.9311 31.3809 33.9013 31.406L30.8588 33.9997C28.9313 33.0635 26.9413 31.0885 26.005 29.186L28.6025 26.0972C28.6275 26.066 28.6513 26.0347 28.6738 26.001C28.8543 25.7251 28.9638 25.4089 28.9926 25.0805C29.0214 24.752 28.9686 24.4216 28.8388 24.1185V24.1035L26.1925 18.2047C26.0209 17.8088 25.7259 17.479 25.3515 17.2645C24.9771 17.0501 24.5433 16.9624 24.115 17.0147C22.4212 17.2376 20.8665 18.0695 19.7412 19.3549C18.6159 20.6403 17.9969 22.2914 18 23.9997C18 33.9247 26.075 41.9997 36 41.9997C37.7084 42.0028 39.3595 41.3839 40.6449 40.2586C41.9303 39.1333 42.7621 37.5785 42.985 35.8847C43.0374 35.4566 42.95 35.0229 42.7357 34.6485C42.5215 34.2741 42.1919 33.979 41.7963 33.8072ZM36 39.9997C31.758 39.9951 27.691 38.3079 24.6914 35.3083C21.6918 32.3088 20.0046 28.2418 20 23.9997C19.9953 22.7791 20.4351 21.5985 21.2372 20.6784C22.0393 19.7583 23.1489 19.1616 24.3588 18.9997C24.3583 19.0047 24.3583 19.0098 24.3588 19.0147L26.9838 24.8897L24.4 27.9822C24.3738 28.0124 24.35 28.0446 24.3288 28.0785C24.1407 28.3671 24.0303 28.6995 24.0084 29.0433C23.9865 29.3872 24.0538 29.7308 24.2038 30.041C25.3363 32.3572 27.67 34.6735 30.0113 35.8047C30.3237 35.9533 30.6694 36.0183 31.0144 35.9933C31.3595 35.9683 31.6922 35.8543 31.98 35.6622C32.0121 35.6406 32.043 35.6173 32.0725 35.5922L35.1113 32.9997L40.9863 35.631C40.9863 35.631 40.9963 35.631 41 35.631C40.8402 36.8426 40.2444 37.9544 39.3241 38.7585C38.4038 39.5626 37.2221 40.0039 36 39.9997Z" fill="white"/>
</svg>
