<svg width="80" height="80" viewBox="0 0 80 80" fill="none" xmlns="http://www.w3.org/2000/svg">
<rect width="80" height="80" rx="40" fill="#2B8CFF"/>
<path fill-rule="evenodd" clip-rule="evenodd" d="M52.0614 49.6899C51.9742 49.3234 51.8289 48.9732 51.6313 48.6524L51.9306 47.9786L51.1361 47.1842L50.4621 47.4835C50.1413 47.286 49.7912 47.1407 49.4248 47.0535L49.16 46.3656H48.0366L47.7718 47.0535C47.4053 47.1407 47.0553 47.286 46.7345 47.4835L46.0604 47.1842L45.2661 47.9786L45.5654 48.6525C45.3679 48.9733 45.2226 49.3234 45.1353 49.6899L44.4476 49.9546V51.0782L45.1353 51.3428C45.2225 51.7094 45.3678 52.0596 45.5654 52.3804L45.2661 53.0542L46.0605 53.8486L46.7346 53.5492C47.0554 53.7467 47.4054 53.892 47.7719 53.9793L48.0366 54.6671H49.1601L49.4248 53.9794C49.7914 53.8922 50.1415 53.7469 50.4623 53.5493L51.1361 53.8486L51.9305 53.0542L51.6311 52.3801C51.8286 52.0594 51.9739 51.7094 52.0611 51.3428L52.749 51.078V49.9546L52.0614 49.6899ZM48.5984 52.4757C47.5162 52.4757 46.639 51.5986 46.639 50.5164C46.639 49.4341 47.5161 48.557 48.5984 48.557C49.6806 48.557 50.5577 49.4341 50.5577 50.5164C50.5577 51.5986 49.6806 52.4757 48.5984 52.4757ZM39.9997 44.8313C41.0627 44.8313 41.9243 45.6929 41.9243 46.7559C41.9243 47.8189 41.0628 48.6804 39.9997 48.6804C38.9367 48.6804 38.0752 47.8189 38.0752 46.7559C38.0752 45.6929 38.9367 44.8313 39.9997 44.8313ZM47.2524 40.9056H32.7471C32.0223 40.9056 31.4293 41.4985 31.4293 42.2233V51.2885C31.4293 52.0133 32.0223 52.6063 32.7471 52.6063H37.3062V54.6998H35.3005C34.6824 54.6998 34.1767 55.1038 34.1767 55.5976V56.875H45.8228V55.5976C45.8228 55.1038 45.3171 54.6998 44.6991 54.6998H42.6933V52.6063H44.2342L44.3171 52.4196C44.2846 52.3465 44.254 52.2726 44.2252 52.198L43.3227 51.8506V49.1823L44.2254 48.8349C44.254 48.7603 44.2847 48.6865 44.3172 48.6135L43.9246 47.7295L45.8113 45.8427L46.6955 46.2354C46.7685 46.2029 46.8423 46.1723 46.9169 46.1436L47.2643 45.2409H48.5702V42.2233C48.5701 41.4986 47.9771 40.9056 47.2524 40.9056ZM44.0769 47.3077L43.4012 47.5677C43.3155 47.9277 43.1729 48.2716 42.9788 48.5866L43.2728 49.2487L42.4925 50.029L41.8307 49.7351C41.5155 49.9291 41.1715 50.0719 40.8115 50.1576L40.5515 50.8331H39.4479L39.1878 50.1574C38.8278 50.0717 38.4841 49.9291 38.1689 49.7351L37.5069 50.0291L36.7265 49.2488L37.0205 48.5869C36.8264 48.2718 36.6837 47.9278 36.598 47.5677L35.9225 47.3077V46.2042L36.5981 45.9442C36.6837 45.5842 36.8264 45.2403 37.0205 44.9252L36.7265 44.2631L37.5068 43.4828L38.1689 43.7768C38.4839 43.5829 38.8278 43.4401 39.1877 43.3545L39.4478 42.6789H40.5514L40.8115 43.3545C41.1715 43.4401 41.5153 43.5829 41.8304 43.7768L42.4924 43.4828L43.2728 44.2631L42.9788 44.925C43.1729 45.2401 43.3156 45.5841 43.4013 45.9442L44.0768 46.2042V47.3077H44.0769ZM43.7278 24.6692C41.6689 22.6103 38.3306 22.6103 36.2716 24.6692C34.2126 26.7282 34.2126 30.0665 36.2716 32.1254C38.3306 34.1844 41.6689 34.1844 43.7278 32.1254C45.7868 30.0665 45.7868 26.7283 43.7278 24.6692ZM43.1455 29.7562H41.3586V31.5431H38.6409V29.7562H36.854V27.0385H38.6409V25.2516H41.3586V27.0385H43.1455V29.7562ZM44.5233 32.921C42.0253 35.4189 37.9742 35.4189 35.4762 32.921C35.3485 32.7933 35.2277 32.6614 35.1131 32.5261V39.7806H37.0236V39.0717C37.0236 38.8394 37.2131 38.6499 37.4455 38.6499H38.8717C39.1041 38.6499 39.2936 38.8394 39.2936 39.0717V39.7806H40.7059V39.0717C40.7059 38.8394 40.8954 38.6499 41.1278 38.6499H42.554C42.7864 38.6499 42.9759 38.8394 42.9759 39.0717V39.7806H44.8864V32.526C44.7718 32.6614 44.651 32.7933 44.5233 32.921ZM39.2935 36.8156C39.2935 37.048 39.104 37.2375 38.8716 37.2375H37.4454C37.213 37.2375 37.0235 37.048 37.0235 36.8156V35.3894C37.0235 35.157 37.213 34.9675 37.4454 34.9675H38.8716C39.104 34.9675 39.2935 35.157 39.2935 35.3894V36.8156ZM42.9758 36.8156C42.9758 37.048 42.7863 37.2375 42.554 37.2375H41.1277C40.8954 37.2375 40.7059 37.048 40.7059 36.8156V35.3894C40.7059 35.157 40.8954 34.9675 41.1277 34.9675H42.554C42.7863 34.9675 42.9758 35.157 42.9758 35.3894V36.8156ZM25.9023 33.4455C25.593 33.4455 25.3398 33.6986 25.3398 34.008V51.1509C25.3398 51.4602 25.593 51.7134 25.9023 51.7134H30.3415C30.3172 51.5753 30.3044 51.4334 30.3044 51.2885V42.2233C30.3044 41.264 30.862 40.4312 31.6696 40.032H30.7922C30.5598 40.032 30.3703 39.8425 30.3703 39.6101V38.1839C30.3703 37.9515 30.5598 37.762 30.7922 37.762H32.2184C32.4508 37.762 32.6403 37.9515 32.6403 38.1839V39.6101C32.6403 39.6724 32.6266 39.7317 32.6021 39.785C32.6502 39.7822 32.6985 39.7806 32.7471 39.7806H33.9882V33.4454L25.9023 33.4455ZM28.9578 46.9749C28.9578 47.2073 28.7684 47.3967 28.536 47.3967H27.1098C26.8774 47.3967 26.6879 47.2073 26.6879 46.9749V45.5487C26.6879 45.3163 26.8774 45.1268 27.1098 45.1268H28.536C28.7684 45.1268 28.9578 45.3163 28.9578 45.5487V46.9749ZM28.9578 43.2925C28.9578 43.5249 28.7684 43.7144 28.536 43.7144H27.1098C26.8774 43.7144 26.6879 43.5249 26.6879 43.2925V41.8663C26.6879 41.6339 26.8774 41.4444 27.1098 41.4444H28.536C28.7684 41.4444 28.9578 41.6339 28.9578 41.8663V43.2925ZM28.9578 39.6102C28.9578 39.8426 28.7684 40.0321 28.536 40.0321H27.1098C26.8774 40.0321 26.6879 39.8426 26.6879 39.6102V38.184C26.6879 37.9516 26.8774 37.7621 27.1098 37.7621H28.536C28.7684 37.7621 28.9578 37.9516 28.9578 38.184V39.6102ZM54.0971 33.4455H46.0113V39.7806H47.2524C47.301 39.7806 47.3494 39.7823 47.3974 39.7851C47.373 39.7317 47.3593 39.6725 47.3593 39.6101V38.1839C47.3593 37.9515 47.5487 37.762 47.7811 37.762H49.2074C49.4397 37.762 49.6292 37.9515 49.6292 38.1839V39.6101C49.6292 39.8425 49.4397 40.032 49.2074 40.032H48.3299C49.1375 40.4312 49.695 41.264 49.695 42.2233V45.2407H49.9325L50.28 46.1434C50.3545 46.1721 50.4283 46.2028 50.5013 46.2352L51.0416 45.9952V45.5486C51.0416 45.3163 51.2311 45.1267 51.4635 45.1267H52.8897C53.1221 45.1267 53.3116 45.3162 53.3116 45.5486V46.9748C53.3116 47.1912 53.1472 47.3703 52.937 47.394L53.2723 47.7293L52.8796 48.6132C52.9122 48.6863 52.9428 48.7602 52.9715 48.8349L53.8741 49.1823V51.7134H54.097C54.4064 51.7134 54.6595 51.4602 54.6595 51.1509V34.008C54.6596 33.6985 54.4065 33.4455 54.0971 33.4455ZM53.3116 43.2925C53.3116 43.5249 53.1221 43.7144 52.8897 43.7144H51.4635C51.2312 43.7144 51.0416 43.5249 51.0416 43.2925V41.8663C51.0416 41.6339 51.2311 41.4444 51.4635 41.4444H52.8897C53.1221 41.4444 53.3116 41.6339 53.3116 41.8663V43.2925ZM53.3116 39.6102C53.3116 39.8426 53.1221 40.0321 52.8897 40.0321H51.4635C51.2312 40.0321 51.0416 39.8426 51.0416 39.6102V38.184C51.0416 37.9516 51.2311 37.7621 51.4635 37.7621H52.8897C53.1221 37.7621 53.3116 37.9516 53.3116 38.184V39.6102Z" fill="white"/>
</svg>
