<svg width="80" height="80" viewBox="0 0 80 80" fill="none" xmlns="http://www.w3.org/2000/svg">
<rect width="80" height="80" rx="40" fill="#F5F9FF"/>
<path d="M32.6875 36.625H33.8125V38.3125H32.6875V36.625Z" fill="#2B8CFF"/>
<path d="M46.1875 29.3125H47.3125V38.3125H46.1875V29.3125Z" fill="#2B8CFF"/>
<path d="M41.6875 33.25H42.8125V38.3125H41.6875V33.25Z" fill="#2B8CFF"/>
<path d="M37.1875 34.375H38.3125V38.3125H37.1875V34.375Z" fill="#2B8CFF"/>
<path d="M46.75 51.25C49.225 51.25 51.25 49.225 51.25 46.75C51.25 44.275 49.225 42.25 46.75 42.25C44.275 42.25 42.25 44.275 42.25 46.75C42.25 49.225 44.275 51.25 46.75 51.25ZM44.5 46.1875H46.1875V44.5H47.3125V46.1875H49V47.3125H47.3125V49H46.1875V47.3125H44.5V46.1875Z" fill="#2B8CFF"/>
<path d="M46.75 52.375H28.1875V25.375H51.8125V44.3313C52.6 45.9062 52.5438 47.7625 51.7563 49.2812L52.9375 50.4625V24.8125C52.9375 24.475 52.7125 24.25 52.375 24.25H27.625C27.2875 24.25 27.0625 24.475 27.0625 24.8125V55.1875C27.0625 55.525 27.2875 55.75 27.625 55.75H52.375C52.6 55.75 52.825 55.5812 52.8813 55.3562L49.2812 51.7563C48.4937 52.15 47.65 52.375 46.75 52.375ZM41.125 54.625H38.875V53.5H41.125V54.625Z" fill="#2B8CFF"/>
<path d="M46.75 41.125C48.2125 41.125 49.6187 41.6875 50.6875 42.7563V26.5H29.3125V51.25H43.375C40.9 49.3937 40.3938 45.9062 42.1938 43.375C43.3188 41.9688 44.95 41.125 46.75 41.125ZM36.0625 29.1437L38.3125 30.8312L40.7312 28.75H40V27.625H42.8125V30.4375H41.6875V29.425L38.3125 32.2937L36.0625 30.6063L32.4625 33.7L31.7312 32.8562L36.0625 29.1437ZM30.4375 38.3125H31.5625V35.5H34.9375V38.3125H36.0625V33.25H39.4375V38.3125H40.5625V32.125H43.9375V38.3125H45.0625V28.1875H48.4375V38.3125H49.5625V39.4375H30.4375V38.3125ZM36.625 49H30.4375V47.875H36.625V49ZM36.625 46.75H30.4375V45.625H36.625V46.75ZM36.625 44.5H30.4375V43.375H36.625V44.5ZM36.625 42.25H30.4375V41.125H36.625V42.25ZM40 49H37.75V47.875H40V49ZM40 46.75H37.75V45.625H40V46.75ZM40 44.5H37.75V43.375H40V44.5Z" fill="#2B8CFF"/>
<path d="M55.582 54.682L51.1383 50.2383C50.857 50.5758 50.5758 50.857 50.2383 51.1383L54.682 55.582C54.907 55.807 55.3008 55.807 55.582 55.582C55.807 55.3008 55.807 54.907 55.582 54.682Z" fill="#2B8CFF"/>
</svg>
