<svg width="80" height="80" viewBox="0 0 80 80" fill="none" xmlns="http://www.w3.org/2000/svg">
<rect width="80" height="80" rx="40" fill="#F5F9FF"/>
<g clip-path="url(#clip0_2884_10771)">
<path d="M35.5 25V37.138C33.0295 37.573 30.8575 39.043 29.5 41.1295V29.5C29.5 27.019 31.519 25 34 25H35.5ZM55 37H38.5V26.5C38.5 24.0145 40.5145 22 43 22H50.5C52.9855 22 55 24.0145 55 26.5V37ZM44.5 27.25C44.5 28.492 45.508 29.5 46.75 29.5C47.992 29.5 49 28.492 49 27.25C49 26.008 47.992 25 46.75 25C45.508 25 44.5 26.008 44.5 27.25ZM50.164 32.9215C49.534 31.783 48.2455 31 46.75 31C45.2545 31 43.966 31.7815 43.336 32.9215C43.063 33.415 43.4815 34 44.089 34H49.411C50.0185 34 50.4385 33.415 50.164 32.9215ZM54.1525 40.0045H37.036C34.399 40.0045 32.0335 41.77 31.285 44.2975L27.058 57.5575C27.8275 57.8245 28.6405 58 29.5 58H48.337C51.676 58 54.562 55.852 55.54 52.5895L57.826 44.9185C58.612 42.5695 56.6365 39.8845 54.154 40.0045H54.1525ZM26.5 29.5C26.5 29.044 26.557 28.603 26.635 28.171C23.9815 28.7905 22 31.159 22 34V50.5C22 52.6585 22.93 54.5935 24.3955 55.963L26.5 49.3975V29.5Z" fill="#2B8CFF"/>
</g>
<defs>
<clipPath id="clip0_2884_10771">
<rect width="36" height="36" fill="white" transform="translate(22 22)"/>
</clipPath>
</defs>
</svg>
