<svg width="24" height="24" viewBox="0 0 24 24" fill="none" xmlns="http://www.w3.org/2000/svg">
<g clip-path="url(#clip0_2877_7455)">
<path d="M8 20C9.105 20 10 20.895 10 22C10 23.105 9.105 24 8 24C6.895 24 6 23.105 6 22C6 20.895 6.895 20 8 20ZM10.36 6.537C10.172 6.442 9.96 6.543 9.948 6.78V11.221C9.971 11.456 10.144 11.558 10.36 11.464L14.357 9.243C14.557 9.105 14.557 8.895 14.357 8.758L10.36 6.537ZM24 5V13C24 15.757 21.757 18 19 18H5C2.243 18 0 15.757 0 13V5C0 2.243 2.243 0 5 0H19C21.757 0 24 2.243 24 5ZM16.5 9C16.5 8.174 16.051 7.411 15.329 7.009L11.332 4.788C9.888 3.921 7.892 5.095 7.948 6.779V11.22C7.891 12.904 9.888 14.077 11.332 13.211L15.33 10.99C16.052 10.588 16.501 9.825 16.501 8.999L16.5 9ZM24 22C24 21.447 23.552 21 23 21H13C12.448 21 12 21.447 12 22C12 22.553 12.448 23 13 23H23C23.552 23 24 22.553 24 22ZM4 22C4 21.447 3.552 21 3 21H1C0.448 21 0 21.447 0 22C0 22.553 0.448 23 1 23H3C3.552 23 4 22.553 4 22Z" fill="white"/>
</g>
<defs>
<clipPath id="clip0_2877_7455">
<rect width="24" height="24" fill="white"/>
</clipPath>
</defs>
</svg>
