<svg width="80" height="80" viewBox="0 0 80 80" fill="none" xmlns="http://www.w3.org/2000/svg">
<rect width="80" height="80" rx="40" fill="#2B8CFF"/>
<g clip-path="url(#clip0_1230_525)">
<path d="M44.6901 35.7534C46.4109 35.7534 47.8508 34.2667 47.8508 32.5069V29.3203H44.358C43.3765 30.4829 42.2559 30.7591 41.5293 30.8059V32.5069C41.5293 34.2667 42.9695 35.7534 44.6901 35.7534ZM45.6483 31.2807C45.929 31.2807 46.1569 31.5087 46.1569 31.7894C46.1552 31.8334 46.1776 31.8745 46.2154 31.8967C46.2531 31.9191 46.3002 31.9191 46.338 31.8967C46.3754 31.8745 46.3982 31.8334 46.3965 31.7894C46.3965 31.5087 46.6244 31.2807 46.9051 31.2807C47.1861 31.2807 47.4137 31.5087 47.4137 31.7894C47.4185 32.1987 47.2028 32.579 46.8489 32.7851C46.4952 32.9911 46.0581 32.9911 45.7045 32.7851C45.3505 32.579 45.1348 32.1987 45.1396 31.7894C45.1396 31.5087 45.3673 31.2807 45.6483 31.2807ZM41.9968 31.7894C41.9968 31.5087 42.2244 31.2807 42.5054 31.2807C42.7861 31.2807 43.014 31.5087 43.014 31.7894C43.0123 31.8334 43.0347 31.8745 43.0725 31.8967C43.1102 31.9191 43.1574 31.9191 43.1948 31.8967C43.2326 31.8745 43.2553 31.8334 43.2536 31.7894C43.2536 31.5087 43.4815 31.2807 43.7622 31.2807C44.0432 31.2807 44.2708 31.5087 44.2708 31.7894C44.2757 32.1987 44.0599 32.579 43.706 32.7851C43.3524 32.9911 42.9152 32.9911 42.5616 32.7851C42.2077 32.579 41.9919 32.1987 41.9968 31.7894Z" fill="white"/>
<path d="M42.4374 27.7773C41.9092 28.3192 41.5907 29.0313 41.5391 29.7863C42.1695 29.7202 42.7615 29.4517 43.2264 29.0208C42.7953 28.7407 42.5072 28.2868 42.4374 27.7773Z" fill="white"/>
<path d="M41.0013 37.458C39.8937 37.4538 38.9923 38.3473 38.9863 39.4548V41.1637H44.2179V38.4716L42.6557 37.458H41.0013Z" fill="white"/>
<path d="M44.1868 28.3032H48.7193C48.4934 27.4128 47.6958 26.7861 46.777 26.7773H44.1868C43.7656 26.7773 43.4238 27.1191 43.4238 27.5403C43.4238 27.9618 43.7656 28.3032 44.1868 28.3032Z" fill="white"/>
<path d="M35.7252 48.8902L35.9051 49.0625C37.4219 50.5137 38.5186 52.3473 39.0798 54.3699L39.5316 56.0002C41.2758 53.1599 42.6677 50.1181 43.677 46.9414C37.6322 46.4257 32.8514 41.4098 32.7086 35.2671C32.1103 35.0031 31.5386 34.6824 31.0019 34.3092C30.5481 34.0092 30.1893 33.7724 29.8742 33.7475C28.3478 33.6268 26.8466 34.1919 25.7785 35.2895C24.7108 36.3874 24.1868 37.9033 24.3494 39.4261C24.7082 42.6927 25.9335 49.1865 30.1019 55.9755L30.5466 54.2524C31.0482 52.3132 32.0399 50.5359 33.4264 49.0906L33.5754 48.9356C34.1573 48.3313 35.118 48.3112 35.7252 48.8902Z" fill="white"/>
<path d="M44.705 24C38.6483 24 33.7207 28.9276 33.7207 34.9843C33.7207 41.0413 38.6483 45.9689 44.705 45.9689C50.762 45.9689 55.6896 41.0413 55.6896 34.9843C55.6896 28.9276 50.762 24 44.705 24ZM51.5562 41.6788C51.5562 41.9598 51.3626 42.1812 51.0819 42.1812H38.4851C38.2038 42.1848 37.9728 41.9601 37.9685 41.6788V39.4549C37.9751 37.786 39.3318 36.4375 41.0007 36.4409H42.3282V35.9865C42.1184 35.8466 41.9249 35.6842 41.7506 35.502C40.9618 34.7039 40.5171 33.6287 40.5117 32.5067V29.9925C40.5182 28.2663 41.5749 26.7177 43.18 26.0822C43.4746 25.8744 43.826 25.7617 44.1864 25.7598H46.7767C48.449 25.768 49.8006 27.1258 49.8015 28.7982C49.8026 29.0817 49.5764 29.3139 49.2929 29.3202H48.8677V32.5067C48.8756 33.6245 48.4434 34.7005 47.6642 35.502C47.5411 35.6349 47.4091 35.7595 47.2692 35.875V36.4409H48.5663C49.3633 36.4409 50.1276 36.7591 50.689 37.3251C51.2505 37.891 51.5627 38.6579 51.5562 39.4549V41.6788Z" fill="white"/>
<path d="M48.568 37.458H46.8976L45.2363 38.4787V41.1637H50.5406V39.4548C50.5474 38.9274 50.3425 38.4191 49.9718 38.0438C49.6011 37.6686 49.0953 37.4577 48.568 37.458Z" fill="white"/>
<path d="M46.2521 36.4697C45.7671 36.6659 45.2488 36.768 44.7254 36.7703C44.2548 36.7709 43.7876 36.6883 43.3457 36.5268V36.6636L44.7581 37.5929L46.2521 36.6565V36.4697Z" fill="white"/>
</g>
<defs>
<clipPath id="clip0_1230_525">
<rect width="32" height="32" fill="white" transform="translate(24 24)"/>
</clipPath>
</defs>
</svg>
