<svg width="80" height="80" viewBox="0 0 80 80" fill="none" xmlns="http://www.w3.org/2000/svg">
<rect width="80" height="80" rx="40" fill="#F5F9FF"/>
<g clip-path="url(#clip0_2877_7628)">
<path d="M40.387 53.992C39.2065 52.3795 38.5 50.398 38.5 48.25C38.5 42.874 42.874 38.5 48.25 38.5C50.398 38.5 52.378 39.2065 53.992 40.387L40.387 53.992ZM42.508 56.113C44.1205 57.2935 46.102 58 48.2485 58C53.6245 58 57.9985 53.626 57.9985 48.25C57.9985 46.102 57.292 44.122 56.1115 42.508L42.508 56.1115V56.113ZM39.9985 38.5V31C39.9985 26.038 35.9605 22 30.9985 22C26.0365 22 22 26.038 22 31V38.5H40H39.9985ZM35.4985 48.25C35.4985 45.7675 36.2185 43.459 37.4455 41.5H22V49C22 53.962 26.038 58 31 58C33.5785 58 35.902 56.9035 37.5445 55.159C36.256 53.167 35.5 50.7985 35.5 48.25H35.4985Z" fill="#2B8CFF"/>
</g>
<defs>
<clipPath id="clip0_2877_7628">
<rect width="36" height="36" fill="white" transform="translate(22 22)"/>
</clipPath>
</defs>
</svg>
