<svg width="18" height="19" viewBox="0 0 18 19" fill="none" xmlns="http://www.w3.org/2000/svg">
<path d="M18.0006 17.084V4.08398C18.0006 3.81877 17.8952 3.56441 17.7077 3.37688C17.5201 3.18934 17.2658 3.08398 17.0006 3.08398C16.7353 3.08398 16.481 3.18934 16.2934 3.37688C16.1059 3.56441 16.0006 3.81877 16.0006 4.08398V14.6702L1.70806 0.376484C1.52042 0.188843 1.26592 0.0834274 1.00056 0.0834274C0.735192 0.0834274 0.480697 0.188843 0.293056 0.376484C0.105415 0.564125 0 0.818621 0 1.08398C0 1.34935 0.105415 1.60384 0.293056 1.79148L14.5868 16.084H4.00056C3.73534 16.084 3.48099 16.1893 3.29345 16.3769C3.10591 16.5644 3.00056 16.8188 3.00056 17.084C3.00056 17.3492 3.10591 17.6036 3.29345 17.7911C3.48099 17.9786 3.73534 18.084 4.00056 18.084H17.0006C17.2658 18.084 17.5201 17.9786 17.7077 17.7911C17.8952 17.6036 18.0006 17.3492 18.0006 17.084Z" fill="#2B8CFF"/>
</svg>
