<svg width="80" height="80" viewBox="0 0 80 80" fill="none" xmlns="http://www.w3.org/2000/svg">
<rect width="80" height="80" rx="40" fill="#2B8CFF"/>
<path fill-rule="evenodd" clip-rule="evenodd" d="M51.9997 25.9056C52.6401 25.9075 53.2538 26.1628 53.7066 26.6156C54.1595 27.0685 54.4147 27.6821 54.4166 28.3226V30.7687H25.5835V28.3226C25.5854 27.6821 25.8406 27.0685 26.2934 26.6156C26.7463 26.1628 27.36 25.9075 28.0004 25.9056H29.4926V27.9306C29.4931 28.3781 29.671 28.807 29.9874 29.1234C30.3037 29.4397 30.7327 29.6177 31.1801 29.6181H32.8799C33.3273 29.6176 33.7562 29.4397 34.0726 29.1233C34.3889 28.807 34.5669 28.378 34.5674 27.9306V25.9056H37.4628V27.9306C37.4633 28.3781 37.6412 28.807 37.9576 29.1234C38.2739 29.4397 38.7029 29.6177 39.1503 29.6181H40.8501C41.2975 29.6177 41.7264 29.4397 42.0428 29.1234C42.3592 28.807 42.5371 28.3781 42.5376 27.9306V25.9056H45.433V27.9306C45.4335 28.3781 45.6114 28.807 45.9278 29.1234C46.2441 29.4397 46.6731 29.6177 47.1205 29.6181H48.8201C49.2675 29.6177 49.6964 29.4397 50.0128 29.1234C50.3291 28.807 50.5071 28.3781 50.5076 27.9306V25.9056H51.9997ZM30.1219 45.0951C27.5363 45.0951 25.2884 47.2562 25.3389 49.8782C25.3388 50.5063 25.4625 51.1283 25.7029 51.7086C25.9433 52.2889 26.2956 52.8162 26.7398 53.2604C27.1839 53.7045 27.7112 54.0569 28.2915 54.2972C28.8718 54.5376 29.4938 54.6613 30.1219 54.6613C32.7127 54.6613 34.9554 52.5002 34.905 49.8782C34.905 49.2501 34.7813 48.6281 34.541 48.0478C34.3006 47.4674 33.9483 46.9401 33.5041 46.496C33.06 46.0518 32.5327 45.6995 31.9524 45.4591C31.3721 45.2188 30.7501 45.095 30.1219 45.0951ZM32.3556 46.9485L32.5339 46.7702C32.6262 46.6779 32.7514 46.626 32.882 46.626C33.0125 46.626 33.1377 46.6779 33.23 46.7702C33.3223 46.8625 33.3742 46.9877 33.3742 47.1182C33.3742 47.2488 33.3223 47.374 33.23 47.4663L33.0517 47.6446C32.9594 47.7369 32.8342 47.7888 32.7037 47.7888C32.5731 47.7888 32.4479 47.7369 32.3556 47.6446C32.2633 47.5523 32.2115 47.4271 32.2115 47.2965C32.2115 47.166 32.2633 47.0408 32.3556 46.9485ZM29.6298 45.9749C29.6298 45.8444 29.6816 45.7192 29.7739 45.6269C29.8662 45.5346 29.9914 45.4828 30.1219 45.4828C30.2525 45.4828 30.3777 45.5346 30.47 45.6269C30.5623 45.7192 30.6141 45.8444 30.6141 45.9749V46.2271C30.6141 46.3576 30.5623 46.4828 30.47 46.5751C30.3777 46.6674 30.2525 46.7193 30.1219 46.7193C29.9914 46.7193 29.8662 46.6674 29.7739 46.5751C29.6816 46.4828 29.6298 46.3576 29.6298 46.2271V45.9749ZM26.4708 50.3703H26.2188C26.0883 50.3703 25.9631 50.3185 25.8708 50.2262C25.7785 50.1339 25.7266 50.0087 25.7266 49.8781C25.7266 49.7476 25.7785 49.6224 25.8708 49.5301C25.9631 49.4378 26.0883 49.3859 26.2188 49.3859H26.4709C26.6014 49.3859 26.7266 49.4378 26.8189 49.5301C26.9112 49.6224 26.9631 49.7476 26.9631 49.8781C26.9631 50.0087 26.9112 50.1339 26.8189 50.2262C26.7266 50.3185 26.6014 50.3703 26.4709 50.3703H26.4708ZM27.8881 52.8078L27.7099 52.9862C27.6176 53.0785 27.4924 53.1303 27.3618 53.1303C27.2313 53.1303 27.1061 53.0785 27.0138 52.9862C26.9215 52.8938 26.8696 52.7687 26.8696 52.6381C26.8696 52.5076 26.9215 52.3824 27.0138 52.2901L27.192 52.1118C27.2843 52.0194 27.4095 51.9676 27.5401 51.9676C27.6706 51.9676 27.7958 52.0194 27.8881 52.1118C27.9804 52.2041 28.0323 52.3293 28.0323 52.4598C28.0323 52.5903 27.9804 52.7155 27.8881 52.8078ZM27.8881 47.6444C27.8424 47.6901 27.7881 47.7263 27.7284 47.7511C27.6687 47.7758 27.6047 47.7886 27.5401 47.7886C27.4754 47.7886 27.4114 47.7758 27.3517 47.7511C27.292 47.7263 27.2377 47.6901 27.192 47.6444L27.0137 47.4661C26.9214 47.3738 26.8695 47.2486 26.8695 47.1181C26.8695 46.9875 26.9214 46.8623 27.0137 46.77C27.106 46.6777 27.2312 46.6259 27.3618 46.6259C27.4923 46.6259 27.6175 46.6777 27.7098 46.77L27.8881 46.9484C27.9804 47.0406 28.0323 47.1658 28.0323 47.2963C28.0323 47.4269 27.9804 47.5521 27.8881 47.6444ZM30.6141 53.7812C30.6141 53.9118 30.5622 54.037 30.4699 54.1293C30.3776 54.2216 30.2524 54.2734 30.1219 54.2734C29.9913 54.2734 29.8661 54.2216 29.7738 54.1293C29.6815 54.037 29.6297 53.9118 29.6297 53.7812V53.5291C29.6297 53.3986 29.6815 53.2734 29.7738 53.1811C29.8661 53.0888 29.9913 53.0369 30.1219 53.0369C30.2524 53.0369 30.3776 53.0888 30.4699 53.1811C30.5622 53.2734 30.6141 53.3986 30.6141 53.5291V53.7812ZM30.1885 50.5073L29.053 51.643C28.9607 51.7353 28.8355 51.7871 28.7049 51.7871C28.5744 51.7871 28.4492 51.7353 28.3569 51.643C28.2646 51.5507 28.2127 51.4255 28.2127 51.2949C28.2127 51.1644 28.2646 51.0392 28.3569 50.9469L29.4926 49.8113C29.5052 49.6899 29.5529 49.5749 29.6297 49.4802V47.3406C29.6297 47.2101 29.6815 47.0849 29.7738 46.9926C29.8661 46.9003 29.9913 46.8484 30.1219 46.8484C30.2524 46.8484 30.3776 46.9003 30.4699 46.9926C30.5622 47.0849 30.6141 47.2101 30.6141 47.3406V49.4805C30.6856 49.569 30.7319 49.6752 30.7481 49.7878C30.7644 49.9004 30.75 50.0153 30.7064 50.1204C30.6629 50.2256 30.5918 50.317 30.5006 50.3851C30.4095 50.4532 30.3017 50.4955 30.1885 50.5075V50.5073ZM33.2299 52.986C33.1842 53.0317 33.1299 53.068 33.0702 53.0927C33.0105 53.1175 32.9465 53.1302 32.8818 53.1302C32.8172 53.1302 32.7532 53.1175 32.6935 53.0927C32.6338 53.068 32.5795 53.0317 32.5338 52.986L32.3555 52.8077C32.2632 52.7154 32.2113 52.5902 32.2113 52.4597C32.2113 52.3291 32.2632 52.2039 32.3555 52.1116C32.4478 52.0193 32.573 51.9674 32.7035 51.9674C32.8341 51.9674 32.9593 52.0193 33.0516 52.1116L33.2299 52.2899C33.2756 52.3356 33.3119 52.3899 33.3367 52.4496C33.3614 52.5094 33.3741 52.5734 33.3741 52.638C33.3741 52.7027 33.3614 52.7667 33.3367 52.8264C33.3119 52.8862 33.2756 52.9404 33.2299 52.9862V52.986ZM34.0251 50.3704H33.773C33.6425 50.3704 33.5173 50.3185 33.425 50.2262C33.3327 50.1339 33.2808 50.0087 33.2808 49.8782C33.2808 49.7477 33.3327 49.6225 33.425 49.5302C33.5173 49.4379 33.6425 49.386 33.773 49.386H34.0251C34.1557 49.386 34.2809 49.4379 34.3732 49.5302C34.4655 49.6225 34.5173 49.7477 34.5173 49.8782C34.5173 50.0087 34.4655 50.1339 34.3732 50.2262C34.2809 50.3185 34.1557 50.3704 34.0251 50.3704ZM30.1219 42.8813C28.738 42.8813 27.3852 43.2917 26.2346 44.0605C25.084 44.8293 24.1872 45.9221 23.6576 47.2006C23.128 48.4791 22.9895 49.886 23.2594 51.2432C23.5294 52.6005 24.1958 53.8472 25.1743 54.8257C26.1529 55.8043 27.3996 56.4707 28.7568 56.7406C30.1141 57.0106 31.5209 56.872 32.7995 56.3425C34.078 55.8129 35.1707 54.9161 35.9396 53.7655C36.7084 52.6148 37.1187 51.2621 37.1187 49.8782C37.1187 48.9594 36.9378 48.0495 36.5862 47.2006C36.2345 46.3517 35.7191 45.5804 35.0694 44.9307C34.4197 44.2809 33.6484 43.7655 32.7995 43.4139C31.9506 43.0623 31.0407 42.8813 30.1219 42.8813ZM30.1219 55.6456C26.9023 55.6456 24.3954 53.0809 24.3543 49.8782C24.3544 48.3486 24.962 46.8816 26.0437 45.8C27.1253 44.7184 28.5922 44.1107 30.1219 44.1107C33.3414 44.1107 35.8483 46.679 35.8893 49.8782C35.8893 51.4078 35.2816 52.8747 34.2 53.9563C33.1185 55.0379 31.6515 55.6455 30.1219 55.6456ZM52.9196 48.9643C52.1374 48.9643 51.3726 49.1963 50.7222 49.6309C50.0717 50.0655 49.5648 50.6833 49.2654 51.406C48.9661 52.1288 48.8877 52.9241 49.0404 53.6913C49.193 54.4586 49.5697 55.1634 50.1229 55.7165C50.676 56.2697 51.3808 56.6464 52.1481 56.799C52.9153 56.9516 53.7106 56.8733 54.4334 56.5739C55.1561 56.2745 55.7739 55.7676 56.2085 55.1171C56.6431 54.4667 56.8751 53.7019 56.8751 52.9196C56.8751 52.4002 56.7728 51.8859 56.574 51.406C56.3752 50.9261 56.0839 50.4901 55.7166 50.1228C55.3493 49.7555 54.9132 49.4641 54.4334 49.2654C53.9535 49.0666 53.4391 48.9643 52.9197 48.9643H52.9196ZM55.3985 52.0896L52.2665 54.5207C52.165 54.6022 52.0353 54.6402 51.9059 54.6261C51.7764 54.612 51.6579 54.5471 51.5763 54.4456L50.1848 52.7168C50.1032 52.6153 50.0652 52.4856 50.0793 52.3561C50.0934 52.2267 50.1583 52.1082 50.2598 52.0266C50.3612 51.945 50.491 51.907 50.6204 51.9211C50.7498 51.9352 50.8684 52.0001 50.95 52.1016L52.0391 53.4546L54.7987 51.3129C54.8497 51.2735 54.9079 51.2446 54.9701 51.2277C55.0323 51.2108 55.0972 51.2064 55.1611 51.2146C55.225 51.2228 55.2867 51.2435 55.3426 51.2756C55.3985 51.3076 55.4475 51.3504 55.4869 51.4013C55.5263 51.4523 55.5553 51.5106 55.5721 51.5728C55.589 51.635 55.5935 51.6999 55.5853 51.7638C55.577 51.8277 55.5563 51.8894 55.5243 51.9453C55.4922 52.0012 55.4495 52.0502 55.3985 52.0896ZM31.18 23.125C30.9936 23.1254 30.815 23.1995 30.6832 23.3313C30.5514 23.4631 30.4772 23.6418 30.4769 23.8281V27.9306C30.4772 28.117 30.5514 28.2957 30.6832 28.4274C30.815 28.5592 30.9936 28.6334 31.18 28.6338H32.8798C33.0662 28.6334 33.2448 28.5592 33.3766 28.4274C33.5084 28.2957 33.5826 28.117 33.5829 27.9306V23.8281C33.5826 23.6418 33.5084 23.4631 33.3766 23.3313C33.2448 23.1995 33.0662 23.1254 32.8798 23.125H31.18ZM47.1203 23.125C46.9339 23.1254 46.7553 23.1995 46.6235 23.3313C46.4917 23.4631 46.4175 23.6418 46.4171 23.8281V27.9306C46.4175 28.117 46.4917 28.2957 46.6235 28.4274C46.7553 28.5592 46.9339 28.6334 47.1203 28.6338H48.8201C49.0064 28.6334 49.1851 28.5592 49.3169 28.4274C49.4487 28.2957 49.5228 28.117 49.5232 27.9306V23.8281C49.5228 23.6418 49.4487 23.4631 49.3169 23.3313C49.1851 23.1995 49.0064 23.1254 48.8201 23.125H47.1203ZM39.1501 23.125C38.9638 23.1254 38.7851 23.1996 38.6534 23.3314C38.5216 23.4631 38.4474 23.6418 38.447 23.8281V27.9306C38.4474 28.117 38.5216 28.2956 38.6534 28.4274C38.7851 28.5592 38.9638 28.6334 39.1501 28.6338H40.8499C41.0363 28.6334 41.215 28.5592 41.3467 28.4274C41.4785 28.2957 41.5527 28.117 41.5531 27.9306V23.8281C41.5527 23.6418 41.4785 23.4631 41.3467 23.3313C41.215 23.1995 41.0363 23.1254 40.8499 23.125H39.1501ZM25.5835 31.753V43.3129C26.8536 42.4321 28.3531 41.9412 29.8982 41.9003V39.9508H32.8282V42.3678C34.5338 42.9849 35.9793 44.1628 36.9281 45.7087H38.586V48.6389H38.0071C38.1588 49.6132 38.1301 50.607 37.9223 51.5709H48.1661C48.3472 50.9344 48.6542 50.3408 49.069 49.8251C49.4837 49.3094 49.9977 48.8823 50.5806 48.5689C51.1634 48.2555 51.8033 48.0623 52.4621 48.0008C53.121 47.9392 53.7856 48.0106 54.4164 48.2105V31.753H25.5835ZM32.8282 37.1234H29.8982V34.1932H32.8282V37.1234ZM38.586 42.8813H35.656V39.9508H38.5862L38.586 42.8813ZM38.586 37.1234H35.656V34.1932H38.5862L38.586 37.1234ZM44.3439 48.6392H41.4138V45.709H44.3441L44.3439 48.6392ZM44.3439 42.8813H41.4138V39.9508H44.3441L44.3439 42.8813ZM44.3439 37.1234H41.4138V34.1932H44.3441L44.3439 37.1234ZM50.1017 48.6392H47.1719V45.709H50.1022L50.1017 48.6392ZM50.1017 42.8813H47.1719V39.9508H50.1022L50.1017 42.8813ZM50.1017 37.1234H47.1719V34.1932H50.1022L50.1017 37.1234Z" fill="white"/>
</svg>
