<svg width="80" height="80" viewBox="0 0 80 80" fill="none" xmlns="http://www.w3.org/2000/svg">
<rect width="80" height="80" rx="40" fill="white"/>
<path d="M30.6013 29.7483C30.6013 29.0011 31.2059 28.3898 31.9598 28.3898H48.0375C48.7915 28.3898 49.396 29.0011 49.396 29.7483V32.3905H50.9787V27.3437C50.9787 26.9362 50.6459 26.6034 50.2383 26.6034H38.399C37.5907 26.6034 36.8639 26.155 36.4972 25.4418L35.8519 24.1785C35.716 23.9203 35.4511 23.7573 35.1591 23.7573H29.7862C29.3719 23.7573 29.0391 24.0901 29.0391 24.4977V32.3905H30.6013V29.7483Z" fill="#2B8CFF"/>
<path d="M31.9609 29.748H48.0387V32.3903H31.9609V29.748Z" fill="#2B8CFF"/>
<path d="M52.1147 33.749H27.886C27.4301 33.749 27.0448 34.1528 27.1184 34.6388L28.8777 46.5392C28.932 46.9264 29.2581 47.2116 29.6452 47.2116H31.9275V41.9611C31.9275 40.8675 32.7901 39.9709 33.8973 39.9301C35.9894 39.8282 37.5856 39.3528 38.7471 38.4697C39.1275 38.1913 39.5554 38.0486 40.0037 38.0486C40.4452 38.0486 40.8732 38.1913 41.2399 38.4562C42.4151 39.3528 44.0113 39.8282 46.1237 39.9369C47.2037 39.9709 48.0664 40.8675 48.0664 41.9611V47.2116H50.3554C50.7358 47.2116 51.0686 46.9264 51.123 46.546L52.8822 34.6388C52.955 34.1586 52.5772 33.749 52.1147 33.749Z" fill="#2B8CFF"/>
<path d="M46.055 41.2907C43.861 41.182 41.9319 40.6861 40.4308 39.5518C40.1727 39.3616 39.8263 39.3616 39.5682 39.5518C38.067 40.6861 36.138 41.182 33.944 41.2907C33.5772 41.3043 33.2852 41.6031 33.2852 41.9631V47.3699C33.2852 49.788 34.2429 52.145 36.0293 53.782C37.5576 55.188 39.1334 55.9352 39.738 56.1865C39.9078 56.2613 40.0912 56.2613 40.261 56.1865C40.8452 55.942 42.3191 55.2492 43.7999 53.9382C43.8135 53.9314 43.8203 53.9111 43.8338 53.9043C45.6949 52.2673 46.7071 49.8492 46.7071 47.3631V41.9631C46.7071 41.6031 46.4217 41.3043 46.055 41.2907ZM41.0669 47.7201C40.9273 47.8365 40.8575 48.0109 40.8808 48.1913C40.9564 48.6916 41.1018 49.6805 41.1949 50.3146C41.2414 50.6288 40.9971 50.908 40.6772 50.908H39.3217C39.0018 50.908 38.7575 50.6288 38.8039 50.3088L39.1123 48.1913C39.1414 48.0168 39.0774 47.8365 38.9378 47.7259C38.5596 47.4176 38.3212 46.9464 38.3212 46.4228C38.3212 45.3175 39.3973 44.4508 40.5434 44.8289C41.0379 44.9917 41.4334 45.3931 41.5905 45.8818C41.8232 46.609 41.5672 47.3071 41.0669 47.7201Z" fill="#2B8CFF"/>
</svg>
