<svg width="80" height="80" viewBox="0 0 80 80" fill="none" xmlns="http://www.w3.org/2000/svg">
<rect width="80" height="80" rx="40" fill="white"/>
<path d="M32.4057 36.625V32.6875C32.4057 32.5322 32.5317 32.4062 32.6869 32.4062H33.3107C33.3906 32.4062 33.4666 32.44 33.52 32.4996L35.8893 35.1321C35.9911 35.2452 35.9843 35.4179 35.8752 35.5231L34.7749 36.5789C34.4397 36.9012 34.4284 37.4361 34.7508 37.7719C35.0635 38.0965 35.6187 38.1083 35.9438 37.7961L36.9917 36.7898C37.0441 36.7397 37.1138 36.7116 37.1864 36.7116H37.1965C37.2724 36.7144 37.3444 36.7476 37.3956 36.8044L38.2478 37.7517C38.5471 38.0836 39.1062 38.1134 39.4397 37.8147C39.7857 37.5031 39.8138 36.9687 39.5028 36.6228L38.6016 35.6221C38.4998 35.509 38.5066 35.3363 38.6157 35.2311L39.4594 34.4211C39.7952 34.0988 39.8059 33.5639 39.4836 33.2281C39.1619 32.8934 38.6269 32.8821 38.29 33.2044L37.4991 33.9638C37.444 34.0161 37.3681 34.0471 37.2944 34.042C37.2184 34.0392 37.1464 34.006 37.0952 33.9492L35.5613 32.2448C35.5079 32.1852 35.482 32.1059 35.491 32.026C35.5 31.9467 35.5416 31.8741 35.6069 31.8274C36.4202 31.2453 36.9062 30.3047 36.9062 29.3125C36.9062 27.6064 35.5186 26.2188 33.8125 26.2188H31.5625C31.0973 26.2188 30.7188 26.5973 30.7188 27.0625V36.625C30.7188 37.0902 31.0973 37.4688 31.5625 37.4688C32.0277 37.4688 32.4057 37.0902 32.4057 36.625ZM32.4057 28.1875C32.4057 28.0323 32.5317 27.9062 32.6869 27.9062H33.8119C34.5871 27.9062 35.2182 28.5374 35.2182 29.3125C35.2182 30.0876 34.5871 30.7188 33.8119 30.7188H32.6869C32.5317 30.7188 32.4057 30.5928 32.4057 30.4375V28.1875Z" fill="#2B8CFF"/>
<path d="M42.5432 47.5113C42.2147 47.8404 42.2147 48.3759 42.5432 48.7049C42.8723 49.0329 43.4078 49.0334 43.7369 48.7049L44.3337 48.1081L43.1406 46.915L42.5432 47.5113Z" fill="#2B8CFF"/>
<path d="M34.6562 29.3125C34.6562 28.8473 34.2777 28.4688 33.8125 28.4688H32.9688V30.1562H33.8125C34.2777 30.1562 34.6562 29.7777 34.6562 29.3125Z" fill="#2B8CFF"/>
<path d="M45.8646 54.0625V52.0938H25.6562V54.0625C25.6562 55.1481 26.5394 56.0312 27.625 56.0312H46.8062C46.2325 55.5666 45.8646 54.8568 45.8646 54.0625Z" fill="#2B8CFF"/>
<path d="M44.1359 45.9205L43.5391 46.5173L44.7321 47.7104L45.3289 47.1135C45.6574 46.7845 45.6574 46.249 45.3289 45.9199C44.9999 45.5914 44.4644 45.592 44.1359 45.9205Z" fill="#2B8CFF"/>
<path d="M43.6562 30.4375V31.8438H45.3438V30.4375C45.3438 30.2822 45.4697 30.1562 45.625 30.1562H47.0312V28.4688H45.625C45.4697 28.4688 45.3438 28.3427 45.3438 28.1875V26.7812H43.6562V28.1875C43.6562 28.3427 43.5302 28.4688 43.375 28.4688H41.9688V30.1562H43.375C43.5302 30.1562 43.6562 30.2822 43.6562 30.4375Z" fill="#2B8CFF"/>
<path d="M51.3479 23.9688H30.4375C29.3519 23.9688 28.4688 24.8519 28.4688 25.9375V51.5312H46.1459C46.3011 51.5312 46.4271 51.6572 46.4271 51.8125V54.0625C46.4271 55.1481 47.3102 56.0312 48.3959 56.0312H48.4375C49.5231 56.0312 50.4062 55.1481 50.4062 54.0625V25.9375C50.4062 25.1432 50.7741 24.4334 51.3479 23.9688ZM41.4062 28.1875C41.4062 28.0322 41.5323 27.9062 41.6875 27.9062H43.0938V26.5C43.0938 26.3447 43.2198 26.2188 43.375 26.2188H45.625C45.7803 26.2188 45.9062 26.3447 45.9062 26.5V27.9062H47.3125C47.4678 27.9062 47.5938 28.0322 47.5938 28.1875V30.4375C47.5938 30.5928 47.4678 30.7188 47.3125 30.7188H45.9062V32.125C45.9062 32.2802 45.7803 32.4062 45.625 32.4062H43.375C43.2198 32.4062 43.0938 32.2802 43.0938 32.125V30.7188H41.6875C41.5323 30.7188 41.4062 30.5928 41.4062 30.4375V28.1875ZM44.2188 41.125C44.2188 41.2803 44.0927 41.4062 43.9375 41.4062H34.375C34.2197 41.4062 34.0938 41.2803 34.0938 41.125C34.0938 40.9697 34.2197 40.8438 34.375 40.8438H43.9375C44.0927 40.8438 44.2188 40.9697 44.2188 41.125ZM30.1562 36.625V27.0625C30.1562 26.2874 30.7874 25.6562 31.5625 25.6562H33.8125C35.8285 25.6562 37.4688 27.2965 37.4688 29.3125C37.4688 30.3818 36.9923 31.3994 36.1812 32.0918L37.3191 33.3563L37.9008 32.7977C38.4599 32.2622 39.3526 32.2802 39.8892 32.8383C40.4264 33.3979 40.4078 34.2901 39.8487 34.8273L39.2018 35.4483L39.9201 36.2464C40.4388 36.8224 40.3921 37.7134 39.8155 38.2326C39.5568 38.4655 39.2232 38.5938 38.875 38.5938C38.4768 38.5938 38.0954 38.4239 37.8293 38.128L37.1712 37.3967L36.3331 38.2017C35.7914 38.722 34.8666 38.7029 34.3446 38.1612C33.8074 37.6015 33.826 36.7094 34.3851 36.1722L35.2885 35.3048L33.1859 32.9688H32.9688V36.625C32.9688 37.4001 32.3376 38.0312 31.5625 38.0312C30.7874 38.0312 30.1562 37.4001 30.1562 36.625ZM40 48.1562H31C30.8447 48.1562 30.7188 48.0303 30.7188 47.875C30.7188 47.7197 30.8447 47.5938 31 47.5938H40C40.1552 47.5938 40.2812 47.7197 40.2812 47.875C40.2812 48.0303 40.1552 48.1562 40 48.1562ZM40 45.9062H31C30.8447 45.9062 30.7188 45.7803 30.7188 45.625C30.7188 45.4697 30.8447 45.3438 31 45.3438H40C40.1552 45.3438 40.2812 45.4697 40.2812 45.625C40.2812 45.7803 40.1552 45.9062 40 45.9062ZM40 43.6562H31C30.8447 43.6562 30.7188 43.5303 30.7188 43.375C30.7188 43.2197 30.8447 43.0938 31 43.0938H40C40.1552 43.0938 40.2812 43.2197 40.2812 43.375C40.2812 43.5303 40.1552 43.6562 40 43.6562ZM48.7188 48.4375C48.7188 49.2126 48.0876 49.8438 47.3125 49.8438C46.5374 49.8438 45.9062 49.2126 45.9062 48.4375V47.3125V47.2922C45.8551 47.3699 45.7954 47.443 45.7274 47.5116L44.1361 49.1029C43.8621 49.3769 43.5021 49.5141 43.1416 49.5141C42.7816 49.5141 42.4216 49.3769 42.1471 49.1029C41.5992 48.5545 41.5992 47.6624 42.1471 47.1139L43.7384 45.5226C44.2868 44.9748 45.1789 44.9742 45.7274 45.5226C45.8219 45.6171 45.8944 45.7246 45.9563 45.8359C46.1133 45.2313 46.6594 44.7812 47.3125 44.7812C48.0876 44.7812 48.7188 45.4124 48.7188 46.1875V48.4375Z" fill="#2B8CFF"/>
<path d="M47.3125 45.3438C46.8473 45.3438 46.4688 45.7223 46.4688 46.1875V47.0312H48.1562V46.1875C48.1562 45.7223 47.7777 45.3438 47.3125 45.3438Z" fill="#2B8CFF"/>
<path d="M46.4688 48.4375C46.4688 48.9027 46.8473 49.2812 47.3125 49.2812C47.7777 49.2812 48.1562 48.9027 48.1562 48.4375V47.5938H46.4688V48.4375Z" fill="#2B8CFF"/>
<path d="M52.9375 23.9688C51.8519 23.9688 50.9688 24.8519 50.9688 25.9375V28.4688H54.9062V25.9375C54.9062 24.8519 54.0231 23.9688 52.9375 23.9688Z" fill="#2B8CFF"/>
</svg>
