<svg width="80" height="80" viewBox="0 0 80 80" fill="none" xmlns="http://www.w3.org/2000/svg">
<rect width="80" height="80" rx="40" fill="#2B8CFF"/>
<path d="M35.7727 41.905C35.7727 43.47 34.5042 44.7385 32.9392 44.7385C31.3743 44.7385 30.1055 43.47 30.1055 41.905C30.1055 40.3401 31.3743 39.0715 32.9392 39.0715C34.5042 39.0715 35.7727 40.3401 35.7727 41.905Z" fill="white"/>
<path d="M56 31.5669V25.9375H24V31.5669H56ZM29.6287 29.689H27.7522V27.814H29.6287V29.689ZM33.3818 29.689H31.5054V27.814H33.3818V29.689ZM37.1348 29.689H35.2583V27.814H37.1348V29.689Z" fill="white"/>
<path d="M24 33.4419V54.1846H56V33.4419H24ZM52.2478 46.5774H49.1204V44.7024H52.2478V46.5774ZM45.0039 37.1965H52.2478V39.0715H45.0039V37.1965ZM40 37.1965H43.1274V39.0715H40V37.1965ZM40 40.9495H52.2478V42.8245H40V40.9495ZM40 44.7024H47.2437V46.5774H40V44.7024ZM40 48.4556H52.2478V50.3306H40V48.4556ZM32.938 37.1965C35.5342 37.1965 37.6465 39.3088 37.6465 41.905C37.6465 44.1804 36.0242 46.0837 33.8755 46.5195V50.3313H32.0005V46.5195C29.8518 46.0837 28.2292 44.1804 28.2292 41.905C28.2292 39.3088 30.3416 37.1965 32.938 37.1965Z" fill="white"/>
</svg>
