<svg width="80" height="80" viewBox="0 0 80 80" fill="none" xmlns="http://www.w3.org/2000/svg">
<rect width="80" height="80" rx="40" fill="#2B8CFF"/>
<g clip-path="url(#clip0_1096_1396)">
<path d="M50.7959 40.2746C50.5911 40.0015 50.2037 39.9462 49.9306 40.151C49.7995 40.2494 49.7127 40.3959 49.6896 40.5583L49.3466 42.9625C49.3383 42.9934 49.3275 43.0235 49.3145 43.0527C49.9448 42.2157 50.4535 41.2937 50.8256 40.3142L50.7959 40.2746Z" fill="white"/>
<path d="M48.734 43.4926C48.7049 43.4926 48.6757 43.4907 48.6468 43.487L44.9757 42.9623C44.6377 42.9139 44.4031 42.6008 44.4516 42.2629V42.2627L44.7946 39.8585C44.8424 39.5205 44.6072 39.2078 44.2692 39.16C44.1075 39.1371 43.9433 39.1791 43.8125 39.2769L41.8694 40.7337C41.5963 40.9385 41.2089 40.8831 41.0041 40.6101L38.7792 37.6434C38.5744 37.3703 38.6297 36.983 38.9028 36.7782L40.8453 35.3215C41.1184 35.1167 41.1737 34.7293 40.9689 34.4562C40.8705 34.325 40.724 34.2383 40.5616 34.2152L38.1574 33.8715C37.8195 33.8235 37.5845 33.5105 37.6326 33.1726C37.6326 33.1724 37.6327 33.1721 37.6327 33.1719L38.1574 29.5013C38.2055 29.1634 38.5184 28.9284 38.8563 28.9765C38.8566 28.9765 38.8568 28.9766 38.857 28.9766L41.2612 29.3203C41.5085 29.3561 41.7529 29.2385 41.8793 29.023C42.0105 28.8088 41.9958 28.5357 41.8422 28.337L40.3867 26.3951C40.1819 26.122 40.2372 25.7346 40.5103 25.5298L40.8607 25.2671C40.2931 25.2397 39.7241 25.2549 39.1586 25.3129C33.0542 26.0099 28.6708 31.5235 29.3678 37.6279C29.7475 40.9534 31.6042 43.9311 34.4232 45.7355C35.4524 46.3736 36.0845 47.493 36.0993 48.7039V51.2015C36.0993 52.2255 36.9294 53.0556 37.9535 53.0556H42.8978C43.9218 53.0556 44.7519 52.2255 44.7519 51.2015V48.7552C44.7676 47.5159 45.4127 46.3697 46.4639 45.7132C47.4383 45.0811 48.3084 44.3013 49.043 43.4018C48.9498 43.4588 48.8432 43.4902 48.734 43.4926ZM41.0437 51.2015H39.8076V49.3473H41.0437V51.2015ZM39.8076 48.1112C39.8072 46.4771 38.7996 45.0124 37.2736 44.4277C32.823 42.6874 30.6259 37.6689 32.3661 33.2183C33.0399 31.4949 34.2485 30.033 35.8144 29.0471L36.4702 30.0928C33.0033 32.2743 31.9614 36.853 34.1428 40.3199C34.988 41.663 36.2418 42.6997 37.7198 43.2775C39.7229 44.0437 41.0452 45.9666 41.0437 48.1112H39.8076Z" fill="white"/>
<path d="M37.9531 56.1458V56.7638C37.9531 57.4465 38.5065 57.9999 39.1892 57.9999H41.6614C42.3441 57.9999 42.8975 57.4465 42.8975 56.7638V56.1458H37.9531Z" fill="white"/>
<path d="M34.0892 46.2571C33.723 46.0197 33.3704 45.762 33.033 45.4852C32.1 47.3015 29.8713 48.0175 28.055 47.0845C26.8188 46.4495 26.0432 45.1748 26.0472 43.785C26.0501 41.9164 27.4417 40.3413 29.2957 40.1082C29.0689 39.4261 28.905 38.7245 28.8062 38.0125L28.698 38.5267C28.5576 39.1947 27.9021 39.6224 27.234 39.4819C27.074 39.4483 26.9223 39.3833 26.7877 39.2906L25.5021 38.408L24.3761 39.5316L25.2611 40.8184C25.6485 41.3805 25.5068 42.1502 24.9447 42.5376C24.8098 42.6305 24.658 42.6957 24.4978 42.7294L22.957 43.0538V44.5223L24.4978 44.8468C25.1658 44.9875 25.5934 45.643 25.4527 46.3111C25.4189 46.4715 25.3536 46.6235 25.2605 46.7584L24.3761 48.0383L25.5021 49.1619L26.7864 48.2769C27.3485 47.8896 28.1183 48.0312 28.5057 48.5933C28.5985 48.7282 28.6637 48.88 28.6974 49.0402L29.0213 50.5834H30.4904L30.8142 49.0427C30.9548 48.3746 31.6103 47.947 32.2784 48.0876C32.4385 48.1213 32.5904 48.1865 32.7252 48.2794L34.0089 49.1619L35.3346 47.8362C35.1123 47.183 34.6727 46.6256 34.0892 46.2571Z" fill="white"/>
<path d="M42.8975 53.6736H37.9531V54.9097H42.8975V53.6736Z" fill="white"/>
<path d="M55.8566 32.6548C54.843 32.5099 54.1387 31.5705 54.2836 30.5568C54.3532 30.0701 54.6134 29.6309 55.0068 29.3359L56.4549 28.2494L54.9716 26.2716L53.5235 27.3575C52.7045 27.9722 51.5422 27.8064 50.9277 26.9874C50.6329 26.5946 50.506 26.1009 50.5748 25.6147L50.8307 23.8223L48.3839 23.4731L48.128 25.2655C47.983 26.2791 47.0437 26.9834 46.0301 26.8385C45.5433 26.7689 45.1041 26.5087 44.8091 26.1153L43.7226 24.6647L41.7449 26.148L42.8308 27.5961C43.4452 28.4152 43.2794 29.5774 42.4602 30.192C42.0666 30.4872 41.5719 30.6139 41.0848 30.5442L39.2925 30.2883L38.9414 32.7358L40.7337 32.9916C41.7474 33.1366 42.4517 34.0759 42.3067 35.0896C42.2371 35.5764 41.977 36.0156 41.5835 36.3105L40.1361 37.397L41.6194 39.3748L43.0675 38.2889C43.8866 37.6744 45.0488 37.8403 45.6633 38.6594C45.9586 39.053 46.0853 39.5478 46.0155 40.0348L45.7597 41.8272L48.2121 42.1782L48.4679 40.3859C48.6129 39.3722 49.5522 38.668 50.5659 38.8129C51.0527 38.8825 51.4919 39.1426 51.7868 39.5361L52.8733 40.9835L54.8511 39.5002L53.7615 38.0497C53.1472 37.2304 53.3134 36.0682 54.1327 35.454C54.5254 35.1595 55.0189 35.0328 55.505 35.1016L57.2973 35.3575L57.6465 32.9107L55.8566 32.6548ZM48.2961 36.5318C46.2481 36.5318 44.5878 34.8716 44.5878 32.8235C44.5878 30.7755 46.2481 29.1153 48.2961 29.1153C50.3441 29.1153 52.0044 30.7755 52.0044 32.8235C52.002 34.8706 50.3431 36.5294 48.2961 36.5318Z" fill="white"/>
<path d="M56.4943 45.021H52.168V46.2571H56.4943V45.021Z" fill="white"/>
<path d="M51.9455 48.2542L51.1543 49.2039L54.8628 52.2936L55.654 51.3439L51.9455 48.2542Z" fill="white"/>
<path d="M49.697 49.9653H48.4609V54.2916H49.697V49.9653Z" fill="white"/>
<path d="M27.2956 31.4423L22.3516 32.6782L22.6512 33.8768L27.5952 32.6409L27.2956 31.4423Z" fill="white"/>
<path d="M24.097 25.3597L23.3789 26.365L27.7049 29.4549L28.4229 28.4496L24.097 25.3597Z" fill="white"/>
<path d="M29.8713 21.9995L28.6738 22.3057L29.9379 27.2496L31.1354 26.9434L29.8713 21.9995Z" fill="white"/>
</g>
<defs>
<clipPath id="clip0_1096_1396">
<rect width="36" height="36" fill="white" transform="translate(22 22)"/>
</clipPath>
</defs>
</svg>
