<svg width="30" height="30" viewBox="0 0 30 30" fill="none" xmlns="http://www.w3.org/2000/svg">
<g clip-path="url(#clip0_1228_432)">
<path d="M17.5656 14.5142C17.5656 15.9232 16.4232 17.0656 15.0142 17.0656C13.6052 17.0656 12.4629 15.9232 12.4629 14.5142C12.4629 13.1052 13.6052 11.9629 15.0142 11.9629C16.4232 11.9629 17.5656 13.1052 17.5656 14.5142Z" fill="white"/>
<path d="M19.3224 6.80371H10.7045C8.82867 6.80371 7.30273 8.32964 7.30273 10.2055V18.8234C7.30273 20.6992 8.82867 22.2251 10.7045 22.2251H19.3224C21.1982 22.2251 22.7242 20.6992 22.7242 18.8234V10.2055C22.7242 8.32964 21.1982 6.80371 19.3224 6.80371ZM15.0134 18.7667C12.6687 18.7667 10.7612 16.8591 10.7612 14.5144C10.7612 12.1697 12.6687 10.2622 15.0134 10.2622C17.3582 10.2622 19.2657 12.1697 19.2657 14.5144C19.2657 16.8591 17.3582 18.7667 15.0134 18.7667ZM19.8893 10.489C19.4196 10.489 19.0389 10.1083 19.0389 9.63853C19.0389 9.16879 19.4196 8.78809 19.8893 8.78809C20.3591 8.78809 20.7398 9.16879 20.7398 9.63853C20.7398 10.1083 20.3591 10.489 19.8893 10.489Z" fill="white"/>
<path d="M21.8746 0H8.15402C3.93368 0 0.5 3.43368 0.5 7.65402V21.3746C0.5 25.5949 3.93368 29.0286 8.15402 29.0286H21.8746C26.0949 29.0286 29.5286 25.5949 29.5286 21.3746V7.65402C29.5286 3.43368 26.0949 0 21.8746 0ZM24.4259 18.8232C24.4259 21.6368 22.1368 23.9259 19.3232 23.9259H10.7054C7.8918 23.9259 5.60268 21.6368 5.60268 18.8232V10.2054C5.60268 7.3918 7.8918 5.10268 10.7054 5.10268H19.3232C22.1368 5.10268 24.4259 7.3918 24.4259 10.2054V18.8232Z" fill="white"/>
</g>
<defs>
<clipPath id="clip0_1228_432">
<rect width="29.0286" height="29.0286" fill="white" transform="translate(0.5)"/>
</clipPath>
</defs>
</svg>
