<svg width="60" height="60" viewBox="0 0 60 60" fill="none" xmlns="http://www.w3.org/2000/svg">
<rect width="60" height="60" rx="30" fill="#2B8CFF"/>
<g clip-path="url(#clip0_1096_1035)">
<path d="M32.8125 30C32.8125 31.5532 31.5532 32.8125 30 32.8125C28.4468 32.8125 27.1875 31.5532 27.1875 30C27.1875 28.4468 28.4468 27.1875 30 27.1875C31.5532 27.1875 32.8125 28.4468 32.8125 30Z" fill="white"/>
<path d="M34.75 21.5H25.25C23.1821 21.5 21.5 23.1821 21.5 25.25V34.75C21.5 36.8179 23.1821 38.5 25.25 38.5H34.75C36.8179 38.5 38.5 36.8179 38.5 34.75V25.25C38.5 23.1821 36.8179 21.5 34.75 21.5ZM30 34.6875C27.4153 34.6875 25.3125 32.5847 25.3125 30C25.3125 27.4153 27.4153 25.3125 30 25.3125C32.5847 25.3125 34.6875 27.4153 34.6875 30C34.6875 32.5847 32.5847 34.6875 30 34.6875ZM35.375 25.5625C34.8572 25.5625 34.4375 25.1428 34.4375 24.625C34.4375 24.1072 34.8572 23.6875 35.375 23.6875C35.8928 23.6875 36.3125 24.1072 36.3125 24.625C36.3125 25.1428 35.8928 25.5625 35.375 25.5625Z" fill="white"/>
<path d="M37.5625 14H22.4375C17.7852 14 14 17.7852 14 22.4375V37.5625C14 42.2148 17.7852 46 22.4375 46H37.5625C42.2148 46 46 42.2148 46 37.5625V22.4375C46 17.7852 42.2148 14 37.5625 14ZM40.375 34.75C40.375 37.8516 37.8516 40.375 34.75 40.375H25.25C22.1484 40.375 19.625 37.8516 19.625 34.75V25.25C19.625 22.1484 22.1484 19.625 25.25 19.625H34.75C37.8516 19.625 40.375 22.1484 40.375 25.25V34.75Z" fill="white"/>
</g>
<defs>
<clipPath id="clip0_1096_1035">
<rect width="32" height="32" fill="white" transform="translate(14 14)"/>
</clipPath>
</defs>
</svg>
