<svg width="80" height="80" viewBox="0 0 80 80" fill="none" xmlns="http://www.w3.org/2000/svg">
<rect width="80" height="80" rx="40" fill="#2B8CFF"/>
<g clip-path="url(#clip0_1230_665)">
<path d="M48.9677 47.1887C47.9926 47.1887 47.1992 47.9821 47.1992 48.9572C47.2881 51.3001 50.6477 51.2995 50.7362 48.9572C50.7362 47.9821 49.9429 47.1887 48.9677 47.1887Z" fill="white"/>
<path d="M57.173 46.5041L56.0216 46.3603C55.9525 46.1727 55.8759 45.9879 55.7918 45.8063L56.5044 44.89C56.7966 44.5142 56.7633 43.9797 56.4268 43.6431L54.2819 41.4982C53.9453 41.1616 53.4107 41.1284 53.0349 41.4205L52.1186 42.1332C51.9369 42.0491 51.7521 41.9725 51.5647 41.9034L51.4209 40.752C51.3619 40.2796 50.9604 39.925 50.4843 39.925H47.4512C46.9751 39.925 46.5735 40.2796 46.5146 40.752L46.3708 41.9033C46.1833 41.9724 45.9984 42.049 45.8168 42.1331L44.9004 41.4205C44.5248 41.1283 43.9903 41.1615 43.6536 41.4981L41.5087 43.643C41.1721 43.9796 41.1388 44.5141 41.431 44.8899L42.1437 45.8062C42.0597 45.9879 41.983 46.1727 41.9139 46.3602L40.7625 46.5039C40.2901 46.563 39.9355 46.9645 39.9355 47.4406V50.4737C39.9355 50.9497 40.2901 51.3513 40.7625 51.4103L41.9138 51.5541C41.9829 51.7415 42.0595 51.9264 42.1437 52.1081L41.431 53.0243C41.1388 53.4001 41.1721 53.9347 41.5087 54.2712L43.6536 56.4161C43.9902 56.7528 44.5247 56.786 44.9004 56.4937L45.8168 55.7811C45.9986 55.8652 46.1834 55.9418 46.3708 56.0109L46.5146 57.1622C46.5735 57.6347 46.9751 57.9892 47.4512 57.9892H50.4843C50.9604 57.9892 51.3619 57.6347 51.4209 57.1622L51.5647 56.0109C51.7522 55.9418 51.9371 55.8652 52.1186 55.7811L53.0349 56.4937C53.4108 56.7859 53.9452 56.7526 54.2819 56.416L56.4268 54.2711C56.7634 53.9345 56.7967 53.3999 56.5044 53.0242L55.7918 52.1079C55.8758 51.9262 55.9525 51.7414 56.0216 51.554L57.1729 51.4102C57.6454 51.3513 57.9999 50.9497 57.9999 50.4736V47.4405C57.9999 46.9646 57.6454 46.563 57.173 46.5041ZM48.9677 52.8338C46.8302 52.8338 45.0911 51.0948 45.0911 48.9572C45.286 43.8214 52.6502 43.8228 52.8443 48.9573C52.8443 51.0948 51.1053 52.8338 48.9677 52.8338Z" fill="white"/>
<path d="M33.6214 41.484C36.3145 38.793 40.2186 38.032 43.5969 39.2003C44.022 39.0962 44.484 39.085 44.916 39.1725C45.0219 39.0148 45.1422 38.868 45.2744 38.7333C43.8122 35.9754 41.3255 33.8107 38.243 32.7938V24.1189H38.8824C40.2795 24.067 40.2784 22.0621 38.8824 22.0107H29.8503C28.4533 22.0626 28.4543 24.0675 29.8503 24.1189H30.4898V32.7937C26.5946 34.0789 23.6506 37.1964 22.5234 41.0282L22.9796 41.484C25.9134 44.4156 30.6873 44.4156 33.6214 41.484Z" fill="white"/>
<path d="M39.1835 53.01C38.3614 52.4583 37.8277 51.5204 37.8277 50.4738V47.4407C37.8277 46.3941 38.3614 45.4562 39.1835 44.9044C38.9923 43.933 39.2782 42.8925 40.0182 42.1525L41.3396 40.8311C39.1226 40.5641 36.8086 41.2787 35.1106 42.9753C31.5554 46.5288 25.8616 46.731 22.0637 43.5048C21.4633 48.9792 25.2616 53.2878 26.9585 54.391C27.141 54.5282 27.3632 54.6023 27.5915 54.6023H39.2942C39.118 54.0909 39.0792 53.5404 39.1835 53.01Z" fill="white"/>
</g>
<defs>
<clipPath id="clip0_1230_665">
<rect width="36" height="36" fill="white" transform="translate(22 22)"/>
</clipPath>
</defs>
</svg>
