<svg width="22" height="22" viewBox="0 0 22 22" fill="none" xmlns="http://www.w3.org/2000/svg">
<path d="M10.0165 1.33841C10.2177 0.246641 11.7823 0.246645 11.9835 1.33841L13.2086 7.98907C13.2838 8.39701 13.603 8.7162 14.0109 8.79135L20.6616 10.0165C21.7534 10.2177 21.7534 11.7823 20.6616 11.9835L14.0109 13.2086C13.603 13.2838 13.2838 13.603 13.2086 14.0109L11.9835 20.6616C11.7823 21.7534 10.2177 21.7534 10.0165 20.6616L8.79135 14.0109C8.7162 13.603 8.39701 13.2838 7.98907 13.2086L1.33841 11.9835C0.246641 11.7823 0.246645 10.2177 1.33841 10.0165L7.98907 8.79135C8.39701 8.7162 8.7162 8.39701 8.79135 7.98907L10.0165 1.33841Z" fill="#2B8CFF"/>
</svg>
