<svg width="25" height="25" viewBox="0 0 25 25" fill="none" xmlns="http://www.w3.org/2000/svg">
<path d="M21.5 5H3.5C3.30109 5 3.11032 5.07902 2.96967 5.21967C2.82902 5.36032 2.75 5.55109 2.75 5.75V18.5C2.75 18.8978 2.90804 19.2794 3.18934 19.5607C3.47064 19.842 3.85218 20 4.25 20H20.75C21.1478 20 21.5294 19.842 21.8107 19.5607C22.092 19.2794 22.25 18.8978 22.25 18.5V5.75C22.25 5.55109 22.171 5.36032 22.0303 5.21967C21.8897 5.07902 21.6989 5 21.5 5ZM19.5716 6.5L12.5 12.9828L5.42844 6.5H19.5716ZM20.75 18.5H4.25V7.45531L11.9928 14.5531C12.1312 14.6801 12.3122 14.7506 12.5 14.7506C12.6878 14.7506 12.8688 14.6801 13.0072 14.5531L20.75 7.45531V18.5Z" fill="white"/>
</svg>
