<svg width="27" height="20" viewBox="0 0 27 20" fill="none" xmlns="http://www.w3.org/2000/svg">
<path d="M25.5 0H1.5C1.23478 0 0.98043 0.105357 0.792893 0.292893C0.605357 0.48043 0.5 0.734784 0.5 1V18C0.5 18.5304 0.710714 19.0391 1.08579 19.4142C1.46086 19.7893 1.96957 20 2.5 20H24.5C25.0304 20 25.5391 19.7893 25.9142 19.4142C26.2893 19.0391 26.5 18.5304 26.5 18V1C26.5 0.734784 26.3946 0.48043 26.2071 0.292893C26.0196 0.105357 25.7652 0 25.5 0ZM22.9287 2L13.5 10.6437L4.07125 2H22.9287ZM24.5 18H2.5V3.27375L12.8237 12.7375C13.0082 12.9069 13.2496 13.0008 13.5 13.0008C13.7504 13.0008 13.9918 12.9069 14.1763 12.7375L24.5 3.27375V18Z" fill="#2B8CFF"/>
</svg>
