<svg width="60" height="60" viewBox="0 0 60 60" fill="none" xmlns="http://www.w3.org/2000/svg">
<rect width="60" height="60" rx="30" fill="#2B8CFF"/>
<path d="M42 20H18C17.7348 20 17.4804 20.1054 17.2929 20.2929C17.1054 20.4804 17 20.7348 17 21V38C17 38.5304 17.2107 39.0391 17.5858 39.4142C17.9609 39.7893 18.4696 40 19 40H41C41.5304 40 42.0391 39.7893 42.4142 39.4142C42.7893 39.0391 43 38.5304 43 38V21C43 20.7348 42.8946 20.4804 42.7071 20.2929C42.5196 20.1054 42.2652 20 42 20ZM39.4287 22L30 30.6437L20.5712 22H39.4287ZM41 38H19V23.2738L29.3237 32.7375C29.5082 32.9069 29.7496 33.0008 30 33.0008C30.2504 33.0008 30.4918 32.9069 30.6763 32.7375L41 23.2738V38Z" fill="white"/>
</svg>
