<svg width="80" height="80" viewBox="0 0 80 80" fill="none" xmlns="http://www.w3.org/2000/svg">
<rect width="80" height="80" rx="40" fill="#2B8CFF"/>
<g clip-path="url(#clip0_1230_865)">
<path d="M58 24.988C58 23.3403 56.6597 22 55.0123 22H24.988C23.3406 22 22.0003 23.3403 22.0003 24.988V33.754C22.0003 34.4928 22.27 35.1701 22.716 35.6923C22.2697 36.2138 22 36.89 22 37.6281V46.4017C22 48.0472 23.3409 49.3853 24.9883 49.3853H30.8423L34.7216 43.0693H27.544C26.962 43.0693 26.4893 42.5969 26.4893 42.0146C26.4893 41.4323 26.962 40.9599 27.544 40.9599H36.0166L37.5833 38.6204C38.683 36.901 41.1937 36.8988 42.297 38.6154L49.0019 49.3856H55.012C56.6594 49.3856 57.9997 48.0475 57.9997 46.402V37.6281C57.9997 36.89 57.73 36.2138 57.2842 35.6923C57.7303 35.1701 58 34.4931 58 33.754V24.988ZM44.6629 30.6998H27.5044C26.9221 30.6998 26.4497 30.2274 26.4497 29.6448C26.4497 29.0626 26.9221 28.5901 27.5044 28.5901H44.6629C45.2454 28.5901 45.7176 29.0626 45.7176 29.6448C45.7176 30.2274 45.2454 30.6998 44.6629 30.6998ZM48.6449 28.5901H52.4958C53.0784 28.5901 53.5505 29.0626 53.5505 29.6448C53.5505 30.2274 53.0784 30.6998 52.4958 30.6998H48.6449C48.0626 30.6998 47.5902 30.2274 47.5902 29.6448C47.5902 29.0626 48.0626 28.5901 48.6449 28.5901ZM52.5357 43.0693H48.6847C48.1027 43.0693 47.63 42.5969 47.63 42.0146C47.63 41.4323 48.1027 40.9599 48.6847 40.9599H52.5357C53.118 40.9599 53.5904 41.4323 53.5904 42.0146C53.5904 42.5969 53.118 43.0693 52.5357 43.0693Z" fill="white"/>
<path d="M41.2915 40.7827C40.6895 39.7417 39.1841 39.7417 38.582 40.7827L29.9775 55.6582C29.3755 56.6988 30.128 58.0002 31.3324 58.0002H48.5414C49.7455 58.0002 50.4983 56.6988 49.896 55.6582L41.2915 40.7827ZM42.8648 52.5507C43.2767 52.9627 43.2767 53.6304 42.8648 54.0423C42.6588 54.2483 42.3888 54.3513 42.1191 54.3513C41.8491 54.3513 41.5791 54.2483 41.3734 54.0423L40.0003 52.6693L38.6276 54.0423C38.4216 54.2483 38.1516 54.3513 37.8816 54.3513C37.6119 54.3513 37.3419 54.2483 37.1359 54.0423C36.7242 53.6304 36.7242 52.9627 37.1359 52.5507L38.5089 51.1779L37.1359 49.8049C36.7242 49.3932 36.7242 48.7252 37.1359 48.3132C37.5479 47.9015 38.2156 47.9013 38.6276 48.3132L40.0003 49.6863L41.3731 48.3132C41.7851 47.9015 42.4528 47.9015 42.8648 48.3132C43.2767 48.7252 43.2767 49.3929 42.8648 49.8049L41.4917 51.1779L42.8648 52.5507Z" fill="white"/>
</g>
<defs>
<clipPath id="clip0_1230_865">
<rect width="36" height="36" fill="white" transform="translate(22 22)"/>
</clipPath>
</defs>
</svg>
