<svg width="80" height="80" viewBox="0 0 80 80" fill="none" xmlns="http://www.w3.org/2000/svg">
<rect width="80" height="80" rx="40" fill="#F5F9FF"/>
<path d="M45.6243 34.9377C45.6254 34.3181 45.4556 33.7103 45.1337 33.181C44.8117 32.6517 44.3501 32.2214 43.7995 31.9374C43.2489 31.6534 42.6306 31.5267 42.0127 31.5712C41.3947 31.6158 40.8011 31.8298 40.2969 32.1899L44.9971 36.8901C45.405 36.3208 45.6243 35.638 45.6243 34.9377Z" fill="#2B8CFF"/>
<path d="M49.5625 55.5171L52.1421 52.9375H49.5625V55.5171Z" fill="#2B8CFF"/>
<path d="M42.2502 38.3118C42.9505 38.3118 43.6333 38.0925 44.2026 37.6846L39.5024 32.9844C39.1423 33.4886 38.9283 34.0822 38.8837 34.7002C38.8392 35.3181 38.9659 35.9364 39.2499 36.487C39.5339 37.0376 39.9642 37.4992 40.4935 37.8212C41.0228 38.1431 41.6306 38.3129 42.2502 38.3118Z" fill="#2B8CFF"/>
<path d="M31.5625 28.1875V56.3125H48.4375V52.375C48.4375 52.2258 48.4968 52.0827 48.6023 51.9773C48.7077 51.8718 48.8508 51.8125 49 51.8125H52.9375V28.1875H31.5625ZM42.25 30.4375C43.14 30.4375 44.01 30.7014 44.7501 31.1959C45.4901 31.6904 46.0669 32.3932 46.4075 33.2154C46.7481 34.0377 46.8372 34.9425 46.6635 35.8154C46.4899 36.6883 46.0613 37.4901 45.432 38.1195C44.8026 38.7488 44.0008 39.1774 43.1279 39.351C42.255 39.5247 41.3502 39.4356 40.5279 39.095C39.7057 38.7544 39.0029 38.1776 38.5084 37.4376C38.0139 36.6975 37.75 35.8275 37.75 34.9375C37.7513 33.7444 38.2259 32.6006 39.0695 31.757C39.9131 30.9134 41.0569 30.4388 42.25 30.4375ZM37.1875 43.9375H49.5625V45.0625H37.1875V43.9375ZM35.5 50.125H33.25V47.875H35.5V50.125ZM35.5 44.5H33.25V42.25H35.5V44.5ZM49.5625 50.6875H37.1875V49.5625H49.5625V50.6875ZM51.8125 50.6875H50.6875V49.5625H51.8125V50.6875ZM51.8125 48.4375H37.1875V47.3125H51.8125V48.4375ZM51.8125 45.0625H50.6875V43.9375H51.8125V45.0625ZM51.8125 42.8125H37.1875V41.6875H51.8125V42.8125Z" fill="#2B8CFF"/>
<path d="M50.6875 25.9375H29.3125V54.0625H30.4375V27.625C30.4375 27.4758 30.4968 27.3327 30.6023 27.2273C30.7077 27.1218 30.8508 27.0625 31 27.0625H50.6875V25.9375Z" fill="#2B8CFF"/>
<path d="M48.4375 23.6875H27.0625V51.8125H28.1875V25.375C28.1875 25.2258 28.2468 25.0827 28.3523 24.9773C28.4577 24.8718 28.6008 24.8125 28.75 24.8125H48.4375V23.6875Z" fill="#2B8CFF"/>
</svg>
