<svg width="120" height="120" viewBox="0 0 120 120" fill="none" xmlns="http://www.w3.org/2000/svg">
<rect width="120" height="120" rx="60" fill="#2B8CFF"/>
<g clip-path="url(#clip0_1109_89)">
<path d="M46.7188 85.1562C46.7188 88.1766 49.1672 90.625 52.1875 90.625H67.8125C70.8328 90.625 73.2812 88.1766 73.2812 85.1562V82.5H46.7188V85.1562Z" fill="white"/>
<path d="M56.0938 100H63.9062C66.4952 100 68.5938 97.9014 68.5938 95.3125H51.4062C51.4062 97.9014 53.5048 100 56.0938 100Z" fill="white"/>
<path d="M27.0312 49.6875C28.3256 49.6875 29.375 48.6381 29.375 47.3438C29.375 46.0494 28.3256 45 27.0312 45H22.3438C21.0494 45 20 46.0494 20 47.3438C20 48.6381 21.0494 49.6875 22.3438 49.6875H27.0312Z" fill="white"/>
<path d="M29.7649 32.0328L25.7054 29.6891C24.5845 29.0419 23.151 29.4259 22.5038 30.5469C21.8567 31.6678 22.2407 33.1013 23.3617 33.7484L27.4212 36.0922C28.5421 36.7394 29.9756 36.3553 30.6227 35.2344C31.2699 34.1134 30.8859 32.68 29.7649 32.0328Z" fill="white"/>
<path d="M30.6227 59.4531C29.9756 58.3322 28.5421 57.9481 27.4212 58.5953L23.3617 60.9391C22.2407 61.5862 21.8567 63.0197 22.5038 64.1406C23.151 65.2616 24.5845 65.6456 25.7054 64.9984L29.7649 62.6547C30.8859 62.0075 31.2699 60.5741 30.6227 59.4531Z" fill="white"/>
<path d="M97.6562 45H92.9688C91.6744 45 90.625 46.0494 90.625 47.3438C90.625 48.6381 91.6744 49.6875 92.9688 49.6875H97.6562C98.9506 49.6875 100 48.6381 100 47.3438C100 46.0494 98.9506 45 97.6562 45Z" fill="white"/>
<path d="M92.5784 36.0922L96.6378 33.7484C97.7588 33.1013 98.1428 31.6678 97.4956 30.5469C96.8484 29.4259 95.415 29.0419 94.2941 29.6891L90.2347 32.0328C89.1138 32.68 88.7297 34.1134 89.3769 35.2344C90.0241 36.3553 91.4575 36.7394 92.5784 36.0922Z" fill="white"/>
<path d="M96.6378 60.9391L92.5784 58.5953C91.4575 57.9481 90.0241 58.3322 89.3769 59.4531C88.7297 60.5741 89.1138 62.0075 90.2347 62.6547L94.2941 64.9984C95.415 65.6456 96.8484 65.2616 97.4956 64.1406C98.1428 63.0197 97.7589 61.5862 96.6378 60.9391Z" fill="white"/>
<path d="M60 20C44.9228 20 32.6564 32.2662 32.6562 47.3434C32.6562 46.8273 32.8262 46.3112 33.1662 45.8842C33.652 45.2739 45.2327 30.9375 60 30.9375C74.7673 30.9375 86.348 45.2739 86.8337 45.8842C87.1736 46.3112 87.3436 46.8273 87.3436 47.3434C87.3436 32.2662 75.0772 20 60 20Z" fill="white"/>
<path d="M86.8337 48.8033C86.348 49.4136 74.7673 63.75 60 63.75C45.2327 63.75 33.652 49.4136 33.1662 48.8033C32.8264 48.3762 32.6564 47.8601 32.6562 47.3441C32.6564 55.1556 36.0163 62.61 41.8744 67.7958C44.7586 70.3491 46.4903 73.9645 46.6977 77.8125H73.3023C73.5097 73.9645 75.2414 70.3491 78.1256 67.7958C83.9837 62.61 87.3436 55.1556 87.3438 47.3441C87.3438 47.8601 87.1737 48.3762 86.8337 48.8033Z" fill="white"/>
<path d="M38.1211 47.3437C39.4497 48.773 41.74 51.0431 44.6783 53.2064C43.9789 51.3848 43.5944 49.4084 43.5944 47.3437C43.5944 45.279 43.9789 43.3026 44.6781 41.4811C41.7398 43.6444 39.4497 45.9145 38.1211 47.3437Z" fill="white"/>
<path d="M81.8827 47.3462C80.5547 45.9176 78.2636 43.6459 75.3233 41.4811C76.0227 43.3026 76.407 45.279 76.407 47.3437C76.407 49.4153 76.0202 51.398 75.3164 53.2245C78.2622 51.0567 80.5545 48.7789 81.8827 47.3462Z" fill="white"/>
<path d="M60 49.6875C61.2944 49.6875 62.3438 48.6382 62.3438 47.3438C62.3438 46.0493 61.2944 45 60 45C58.7056 45 57.6562 46.0493 57.6562 47.3438C57.6562 48.6382 58.7056 49.6875 60 49.6875Z" fill="white"/>
<path d="M71.7188 47.3438C71.7188 40.882 66.4617 35.625 60 35.625C53.5383 35.625 48.2812 40.882 48.2812 47.3438C48.2812 53.8055 53.5383 59.0625 60 59.0625C66.4617 59.0625 71.7188 53.8055 71.7188 47.3438ZM52.9688 47.3438C52.9688 43.4667 56.123 40.3125 60 40.3125C63.877 40.3125 67.0312 43.4667 67.0312 47.3438C67.0312 51.2208 63.877 54.375 60 54.375C56.123 54.375 52.9688 51.2208 52.9688 47.3438Z" fill="white"/>
</g>
<defs>
<clipPath id="clip0_1109_89">
<rect width="80" height="80" fill="white" transform="translate(20 20)"/>
</clipPath>
</defs>
</svg>
