<svg width="120" height="120" viewBox="0 0 120 120" fill="none" xmlns="http://www.w3.org/2000/svg">
<rect width="120" height="120" rx="60" fill="#2B8CFF"/>
<g clip-path="url(#clip0_1109_107)">
<path d="M65.1259 49.9031C62.7193 48.6799 59.9553 48.3552 57.3307 48.9874C54.7062 49.6195 52.3931 51.1671 50.8074 53.352C49.2217 55.5368 48.4673 58.2156 48.6797 60.9069C48.8922 63.5982 50.0577 66.1254 51.9666 68.0343C53.8755 69.9433 56.4028 71.1087 59.094 71.3212C61.7853 71.5337 64.4641 70.7793 66.6489 69.1935C68.8338 67.6078 70.3814 65.2948 71.0136 62.6702C71.6457 60.0456 71.321 57.2816 70.0978 54.875L62.4869 62.4859C61.8276 63.1452 60.9333 63.5156 60.0009 63.5156C59.0685 63.5156 58.1743 63.1452 57.515 62.4859C56.8557 61.8266 56.4853 60.9324 56.4853 60C56.4853 59.0676 56.8557 58.1734 57.515 57.5141L65.1259 49.9031Z" fill="white"/>
<path d="M70.8121 44.2187C66.8727 41.5179 62.0665 40.3858 57.3357 41.0443C52.605 41.7028 48.2907 44.1044 45.2386 47.7784C42.1865 51.4525 40.6167 56.134 40.8368 60.9053C41.0569 65.6766 43.0511 70.1936 46.4285 73.5711C49.8059 76.9485 54.323 78.9427 59.0943 79.1628C63.8656 79.3829 68.5471 77.8131 72.2211 74.761C75.8952 71.7089 78.2968 67.3946 78.9553 62.6639C79.6138 57.9331 78.4817 53.1269 75.7808 49.1875L71.823 53.1453C73.4887 56.018 74.0524 59.3984 73.4091 62.6561C72.7659 65.9138 70.9595 68.8263 68.3269 70.8502C65.6944 72.8741 62.4155 73.8712 59.1019 73.6556C55.7883 73.4399 52.6663 72.0263 50.3182 69.6782C47.9702 67.3302 46.5565 64.2082 46.3409 60.8946C46.1252 57.581 47.1224 54.3021 49.1463 51.6696C51.1702 49.037 54.0826 47.2306 57.3403 46.5873C60.598 45.944 63.9785 46.5078 66.8512 48.1734L70.8121 44.2187Z" fill="white"/>
<path d="M92.8038 45.4266C92.5281 45.7019 92.2353 45.9597 91.9273 46.1984C95.1253 53.6124 95.6387 61.9092 93.3793 69.6609C91.1198 77.4125 86.2288 84.1341 79.5481 88.6686C72.8674 93.2031 64.8149 95.2668 56.7767 94.5046C48.7385 93.7424 41.2175 90.2019 35.5081 84.4926C29.7988 78.7832 26.2583 71.2622 25.4961 63.224C24.7339 55.1858 26.7976 47.1333 31.3321 40.4526C35.8666 33.7719 42.5882 28.8809 50.3398 26.6214C58.0915 24.362 66.3883 24.8754 73.8023 28.0734C74.0453 27.7662 74.3062 27.4735 74.5835 27.1969L77.6835 24.0984C69.1797 19.9129 59.466 18.8822 50.2732 21.1901C41.0804 23.498 33.0054 28.9945 27.4869 36.7003C21.9684 44.4062 19.3648 53.821 20.1399 63.2673C20.9151 72.7137 25.0186 81.5781 31.7195 88.2812C38.4247 94.9731 47.2866 99.069 56.7284 99.8403C66.1701 100.612 75.5793 98.0082 83.2818 92.4933C90.9842 86.9784 96.4803 78.9098 98.7921 69.723C101.104 60.5362 100.082 50.8272 95.907 42.3234L92.8038 45.4266Z" fill="white"/>
<path d="M60 27.5781C42.1219 27.5781 27.5781 42.1219 27.5781 60C27.5781 77.8781 42.1219 92.4219 60 92.4219C77.8781 92.4219 92.4219 77.8781 92.4219 60C92.4264 55.6806 91.563 51.4043 89.8828 47.425C87.8518 48.3413 85.5679 48.5332 83.4125 47.9688L78.3422 46.6328L77.4672 47.5078C80.0844 51.1499 81.4897 55.5229 81.4844 60.0078C81.4844 71.8547 71.8469 81.4922 60 81.4922C48.1531 81.4922 38.5156 71.8469 38.5156 60C38.5156 48.1531 48.1531 38.5156 60 38.5156C64.4849 38.5102 68.8579 39.9156 72.5 42.5328L73.375 41.6578L72.0312 36.5875C71.468 34.4316 71.6571 32.148 72.5672 30.1141C68.59 28.4362 64.3166 27.5739 60 27.5781Z" fill="white"/>
<path d="M74.3015 35.9906L75.9781 42.3641L59.1718 59.1719C59.0567 59.2792 58.9643 59.4085 58.9003 59.5523C58.8362 59.696 58.8018 59.8512 58.799 60.0086C58.7962 60.1659 58.8252 60.3222 58.8841 60.4681C58.9431 60.614 59.0308 60.7466 59.1421 60.8579C59.2533 60.9691 59.3859 61.0569 59.5318 61.1158C59.6777 61.1748 59.834 61.2037 59.9914 61.2009C60.1487 61.1981 60.3039 61.1637 60.4477 61.0997C60.5914 61.0356 60.7208 60.9433 60.8281 60.8281L77.6359 44.0219L84.0093 45.6984C85.264 46.0266 86.5827 46.0211 87.8346 45.6827C89.0866 45.3442 90.2284 44.6844 91.1468 43.7687L99.6562 35.2594C99.8021 35.1137 99.907 34.932 99.9603 34.7328C100.014 34.5336 100.013 34.3238 99.9595 34.1248C99.9058 33.9257 99.8005 33.7443 99.6542 33.5989C99.5079 33.4536 99.3259 33.3494 99.1265 33.2969L89.2827 30.7094L86.7031 20.8734C86.6506 20.674 86.5464 20.492 86.401 20.3457C86.2556 20.1994 86.0743 20.0941 85.8752 20.0404C85.6761 19.9867 85.4663 19.9864 85.2671 20.0397C85.0679 20.0929 84.8863 20.1978 84.7406 20.3437L76.2312 28.8531C75.316 29.7719 74.6566 30.9137 74.3182 32.1655C73.9797 33.4174 73.974 34.7359 74.3015 35.9906Z" fill="white"/>
</g>
<defs>
<clipPath id="clip0_1109_107">
<rect width="80" height="80" fill="white" transform="translate(20 20)"/>
</clipPath>
</defs>
</svg>
