<svg width="80" height="80" viewBox="0 0 80 80" fill="none" xmlns="http://www.w3.org/2000/svg">
<rect width="80" height="80" rx="40" fill="#F5F9FF"/>
<path d="M50.0547 53.4141V54.1251H55.3883V53.4141H54.067H51.376H50.0547Z" fill="#2B8CFF"/>
<path d="M50.0469 49.8327C50.0469 50.0959 50.2606 50.3102 50.5239 50.3102H54.9221C55.1853 50.3102 55.3996 50.0959 55.3996 49.8327V46.8171C54.8872 46.9628 54.4001 47.0427 53.945 47.0427C53.4483 47.0427 52.9865 46.956 52.5629 46.7822C52.3379 46.6917 52.1804 46.5989 52.0415 46.5173C51.911 46.4408 51.8081 46.38 51.6494 46.3215C51.1882 46.1494 50.6488 46.1567 50.0469 46.3227V49.8338V49.8327Z" fill="#2B8CFF"/>
<path d="M51.9414 51.4336H53.5074V52.288H51.9414V51.4336Z" fill="#2B8CFF"/>
<path d="M50.5239 36.7188C50.2606 36.7188 50.0469 36.9325 50.0469 37.1957V45.1568C50.7674 45.0055 51.4363 45.0409 52.0409 45.2665C52.2918 45.3593 52.4617 45.4594 52.6119 45.5477C52.7317 45.6181 52.8358 45.6794 52.9865 45.7401C53.6334 46.0051 54.4439 45.9713 55.4002 45.6434V37.1963C55.4002 36.9331 55.1859 36.7193 54.9226 36.7193H50.5244L50.5239 36.7188Z" fill="#2B8CFF"/>
<path d="M52.125 35.5935H53.3265L52.7257 31.8242L52.125 35.5935Z" fill="#2B8CFF"/>
<path d="M31.0078 28.7528C31.0078 28.9896 31.2007 29.1826 31.4376 29.1826H39.8841C40.1209 29.1826 40.3138 28.9896 40.3138 28.7528V27.3944C40.3138 27.1576 40.1209 26.9646 39.8841 26.9646H38.1263C37.9682 26.9646 37.8174 26.8983 37.7111 26.7813C37.6048 26.6643 37.5519 26.5084 37.566 26.3509L37.5789 26.2446C37.5817 26.2221 37.5868 26.1996 37.5868 26.176C37.5868 25.114 36.7228 24.25 35.6608 24.25C34.5988 24.25 33.7348 25.114 33.7348 26.176C33.7348 26.1996 33.7393 26.2221 33.7427 26.2446L33.7556 26.3509C33.7697 26.5084 33.7174 26.6643 33.6105 26.7813C33.5036 26.8983 33.3529 26.9646 33.1954 26.9646H31.4376C31.2007 26.9646 31.0078 27.1576 31.0078 27.3944V28.1076C31.0078 28.1076 31.0084 28.1104 31.0084 28.1116C31.0084 28.1127 31.0078 28.1144 31.0078 28.1155V28.7528Z" fill="#2B8CFF"/>
<path d="M33.2435 40.3047H38.0782C38.4382 40.3047 38.7312 40.0116 38.7312 39.6516V38.9541C38.7312 37.7875 37.8577 36.8144 36.6995 36.6917C36.4553 36.6659 36.2562 36.4847 36.2073 36.2446C36.1583 36.0038 36.2708 35.7597 36.4857 35.6404C37.0358 35.3356 37.3773 34.7629 37.3773 34.1464C37.3773 33.1998 36.6072 32.4297 35.6605 32.4297C34.7138 32.4297 33.9438 33.1998 33.9438 34.1464C33.9438 34.7629 34.2852 35.335 34.8353 35.6404C35.0502 35.7591 35.1627 36.0038 35.1138 36.244C35.0648 36.4848 34.8663 36.6659 34.6216 36.6917C33.4634 36.8144 32.5898 37.7875 32.5898 38.9541V39.6516C32.5898 40.0116 32.8835 40.3047 33.2435 40.3047Z" fill="#2B8CFF"/>
<path d="M24.6016 28.6738V55.7498H46.7269V28.6738H41.4417V28.7526C41.4417 29.6098 40.7442 30.3073 39.8869 30.3073H31.4404C30.5832 30.3073 29.8857 29.6098 29.8857 28.7526V28.6738H24.6016ZM43.7209 49.771H27.6076C27.2971 49.771 27.0451 49.519 27.0451 49.2085C27.0451 48.898 27.2971 48.646 27.6076 48.646H43.7204C44.0309 48.646 44.2829 48.898 44.2829 49.2085C44.2829 49.519 44.0314 49.771 43.7209 49.771ZM43.7209 47.4574H27.6076C27.2971 47.4574 27.0451 47.2054 27.0451 46.8949C27.0451 46.5844 27.2971 46.3324 27.6076 46.3324H43.7204C44.0309 46.3324 44.2829 46.5844 44.2829 46.8949C44.2829 47.2054 44.0314 47.4574 43.7209 47.4574ZM31.4691 38.953C31.4691 37.599 32.2566 36.4206 33.4193 35.8744C33.0391 35.3856 32.8231 34.7798 32.8231 34.1453C32.8231 32.5781 34.0977 31.3035 35.6648 31.3035C37.2319 31.3035 38.5066 32.5787 38.5066 34.1453C38.5066 34.7798 38.2906 35.3861 37.9103 35.8744C39.073 36.42 39.8599 37.599 39.8599 38.953V39.6505C39.8599 40.6309 39.0623 41.4285 38.0819 41.4285H33.2472C32.2667 41.4285 31.4691 40.6309 31.4691 39.6505V38.953ZM43.7209 44.0183C44.0314 44.0183 44.2834 44.2703 44.2834 44.5808C44.2834 44.8913 44.0314 45.1433 43.7209 45.1433H27.6076C27.2971 45.1433 27.0451 44.8913 27.0451 44.5808C27.0451 44.2703 27.2971 44.0183 27.6076 44.0183H43.7209Z" fill="#2B8CFF"/>
</svg>
