<svg width="80" height="80" viewBox="0 0 80 80" fill="none" xmlns="http://www.w3.org/2000/svg">
<rect width="80" height="80" rx="40" fill="#F5F9FF"/>
<g clip-path="url(#clip0_2884_10766)">
<path d="M50.5 35.5H39.958C39.727 35.5 39.493 35.446 39.286 35.3425L34.5535 32.9755C33.931 32.665 33.2365 32.5015 32.542 32.5015H29.5C25.3645 32.5 22 35.8645 22 40V50.5C22 54.6355 25.3645 58 29.5 58H50.5C54.6355 58 58 54.6355 58 50.5V43C58 38.8645 54.6355 35.5 50.5 35.5ZM44.5 49H41.5V52C41.5 52.8295 40.828 53.5 40 53.5C39.172 53.5 38.5 52.8295 38.5 52V49H35.5C34.672 49 34 48.3295 34 47.5C34 46.6705 34.672 46 35.5 46H38.5V43C38.5 42.1705 39.172 41.5 40 41.5C40.828 41.5 41.5 42.1705 41.5 43V46H44.5C45.328 46 46 46.6705 46 47.5C46 48.3295 45.328 49 44.5 49ZM32.542 29.5H29.5V28C29.5 24.691 32.191 22 35.5 22H44.0065C45.208 22 46.339 22.468 47.1895 23.3185L49.1815 25.3105C50.032 26.1595 50.5 27.2905 50.5 28.492V32.5H40.312L35.8945 30.2905C34.8595 29.773 33.7 29.5 32.542 29.5Z" fill="#2B8CFF"/>
</g>
<defs>
<clipPath id="clip0_2884_10766">
<rect width="36" height="36" fill="white" transform="translate(22 22)"/>
</clipPath>
</defs>
</svg>
