<svg width="60" height="60" viewBox="0 0 60 60" fill="none" xmlns="http://www.w3.org/2000/svg">
<rect width="60" height="60" rx="30" fill="white"/>
<path fill-rule="evenodd" clip-rule="evenodd" d="M40.3908 29.6855C44.8916 29.6855 48.54 33.3339 48.54 37.8346C48.54 42.3352 44.8915 45.9838 40.3908 45.9838C35.8902 45.9838 32.2417 42.3352 32.2417 37.8346C32.2416 33.3339 35.8902 29.6855 40.3908 29.6855ZM14.1082 27.7597V24.7752C14.1082 24.6174 14.2368 24.4888 14.3946 24.4888H17.3094C17.467 24.4888 17.5958 24.6174 17.5958 24.7752V27.7597C17.5958 27.9174 17.467 28.0461 17.3094 28.0461H14.3945C14.2368 28.0461 14.1082 27.9174 14.1082 27.7597ZM40.3908 22.64H10.8477V41.34C10.8477 41.8596 11.2718 42.2838 11.7916 42.2838H31.9567C31.2544 40.9556 30.8569 39.4416 30.8569 37.8347C30.8569 32.5693 35.1253 28.3009 40.3907 28.3009V22.64H40.3908ZM14.3945 36.1855H17.3093C17.467 36.1855 17.5957 36.3141 17.5957 36.4719V39.4564C17.5957 39.6142 17.467 39.7428 17.3093 39.7428H14.3945C14.2367 39.7428 14.1081 39.6142 14.1081 39.4564V36.4719C14.1082 36.3141 14.2368 36.1855 14.3945 36.1855ZM27.4177 36.1855H30.3323C30.4901 36.1855 30.6187 36.3141 30.6187 36.4719V39.4564C30.6187 39.6142 30.4901 39.7428 30.3323 39.7428H27.4177C27.2599 39.7428 27.1313 39.6142 27.1313 39.4564V36.4719C27.1313 36.3141 27.2599 36.1855 27.4177 36.1855ZM20.9061 36.1855H23.8208C23.9786 36.1855 24.1073 36.3141 24.1073 36.4719V39.4564C24.1073 39.6142 23.9786 39.7428 23.8208 39.7428H20.9061C20.7483 39.7428 20.6197 39.6142 20.6197 39.4564V36.4719C20.6197 36.3141 20.7483 36.1855 20.9061 36.1855ZM14.1082 33.6079V30.6235C14.1082 30.4658 14.2368 30.3371 14.3946 30.3371H17.3094C17.467 30.3371 17.5958 30.4658 17.5958 30.6235V33.6079C17.5958 33.7657 17.467 33.8943 17.3094 33.8943H14.3945C14.2368 33.8943 14.1082 33.7657 14.1082 33.6079ZM20.6197 33.6079V30.6235C20.6197 30.4658 20.7483 30.3371 20.9061 30.3371H23.8208C23.9786 30.3371 24.1073 30.4658 24.1073 30.6235V33.6079C24.1073 33.7657 23.9786 33.8943 23.8208 33.8943H20.9061C20.7483 33.8943 20.6197 33.7657 20.6197 33.6079ZM27.1313 33.6079V30.6235C27.1313 30.4658 27.26 30.3371 27.4177 30.3371H30.3324C30.4902 30.3371 30.6188 30.4658 30.6188 30.6235V33.6079C30.6188 33.7657 30.4902 33.8943 30.3324 33.8943H27.4177C27.2599 33.8943 27.1313 33.7657 27.1313 33.6079ZM30.3323 28.0461H27.4177C27.2599 28.0461 27.1313 27.9174 27.1313 27.7597V24.7752C27.1313 24.6174 27.2599 24.4888 27.4177 24.4888H30.3323C30.4901 24.4888 30.6187 24.6174 30.6187 24.7752V27.7597C30.6187 27.9174 30.4901 28.0461 30.3323 28.0461ZM33.6429 27.7597V24.7752C33.6429 24.6174 33.7715 24.4888 33.9293 24.4888H36.844C37.0017 24.4888 37.1303 24.6174 37.1303 24.7752V27.7597C37.1303 27.9174 37.0017 28.0461 36.844 28.0461H33.9293C33.7715 28.0461 33.6429 27.9174 33.6429 27.7597ZM20.6197 27.7597V24.7752C20.6197 24.6174 20.7483 24.4888 20.9061 24.4888H23.8208C23.9786 24.4888 24.1073 24.6174 24.1073 24.7752V27.7597C24.1073 27.9174 23.9786 28.0461 23.8208 28.0461H20.9061C20.7483 28.0461 20.6197 27.9174 20.6197 27.7597ZM16.1503 18.7982C16.1503 19.1232 15.8847 19.3889 15.5597 19.3889H14.323C13.998 19.3889 13.7324 19.1232 13.7324 18.7982V17.0871H11.7917C11.2718 17.0871 10.8477 17.5111 10.8477 18.0309V21.2554H40.3908V18.0309C40.3908 17.511 39.9667 17.087 39.4469 17.087H37.5061V18.7981C37.5061 19.1231 37.2405 19.3889 36.9157 19.3889H35.679C35.3539 19.3889 35.0883 19.1231 35.0883 18.7981V17.0871H30.3876V18.7982C30.3876 19.1232 30.1218 19.3889 29.797 19.3889H28.5603C28.2353 19.3889 27.9697 19.1232 27.9697 18.7982V17.0871H23.269V18.7982C23.269 19.1232 23.0033 19.3889 22.6784 19.3889H21.4418C21.1168 19.3889 20.851 19.1232 20.851 18.7982V17.0871H16.1503V18.7982ZM14.323 14.7854H15.5597C15.8847 14.7854 16.1503 15.0511 16.1503 15.376V17.0179H13.7324V15.376C13.7324 15.0511 13.998 14.7854 14.323 14.7854ZM35.679 14.7854H36.9156C37.2404 14.7854 37.506 15.0511 37.506 15.376V17.0179H35.0882V15.376C35.0882 15.0511 35.3538 14.7854 35.679 14.7854ZM28.5603 14.7854H29.7969C30.1217 14.7854 30.3875 15.0511 30.3875 15.376V17.0179H27.9697V15.376C27.9697 15.0511 28.2353 14.7854 28.5603 14.7854ZM21.4417 14.7854H22.6783C23.0032 14.7854 23.269 15.0511 23.269 15.376V17.0179H20.851V15.376C20.851 15.0511 21.1167 14.7854 21.4417 14.7854ZM41.0831 36.7195V31.8379C41.0831 31.4555 40.7732 31.1456 40.3908 31.1456C40.0084 31.1456 39.6985 31.4555 39.6985 31.8379V37.4369L36.3853 39.3498C36.0552 39.5409 35.9425 39.9636 36.1337 40.2936C36.3248 40.6237 36.7475 40.7363 37.0776 40.5452L39.768 38.9919C39.8802 39.2228 40.117 39.3819 40.3909 39.3819C40.7733 39.3819 41.0832 39.072 41.0832 38.6896V38.2309L41.4747 38.0049C41.8048 37.8152 41.9186 37.3939 41.729 37.0639C41.5929 36.8273 41.338 36.7019 41.0831 36.7195Z" fill="#2B8CFF"/>
</svg>
