<svg width="80" height="80" viewBox="0 0 80 80" fill="none" xmlns="http://www.w3.org/2000/svg">
<rect width="80" height="80" rx="40" fill="#2B8CFF"/>
<path d="M24.5873 45.5088L23.4863 45.7403C23.6106 46.3303 23.7665 46.9133 23.9533 47.4865L25.0228 47.1376C24.8485 46.6029 24.7031 46.0591 24.5873 45.5088Z" fill="white"/>
<path d="M25.4217 48.2236L24.3809 48.6506C24.6262 49.2481 24.9056 49.8311 25.2178 50.3966L26.2026 49.8526C25.9113 49.325 25.6506 48.7811 25.4217 48.2236Z" fill="white"/>
<path d="M26.8615 50.9392L25.9238 51.5608C27.5544 54.0204 29.7988 56.0118 32.4349 57.3383L32.9398 56.333C30.4789 55.0946 28.3838 53.2354 26.8615 50.9392Z" fill="white"/>
<path d="M47.0605 56.3334L47.5655 57.3386C48.2263 57.0065 48.8647 56.6313 49.4764 56.2156L48.8439 55.2852C48.273 55.6732 47.6773 56.0233 47.0605 56.3334Z" fill="white"/>
<path d="M50.2617 54.198L50.9951 55.0511C51.6211 54.5126 52.2072 53.9293 52.7487 53.3058L51.899 52.5684C51.3935 53.1506 50.8463 53.6952 50.2617 54.198Z" fill="white"/>
<path d="M55.4124 45.5088C54.961 47.6648 54.0576 49.7006 52.7617 51.4819L53.6726 52.1422C55.0614 50.233 56.0296 48.0511 56.5134 45.7403L55.4124 45.5088Z" fill="white"/>
<path d="M25.9375 37.1875H27.0625V42.8125H31.8409L32.0736 42.2509L30.6204 39.8792L32.6875 37.8121V37.1309C32.6878 36.5668 32.8092 36.0094 33.0435 35.4963C33.2778 34.9831 33.6195 34.5263 34.0455 34.1566L32.5647 33.4984C32.2665 33.3657 32.0131 33.1494 31.8353 32.8758C31.6574 32.6021 31.5627 32.2828 31.5625 31.9564V30.8297L32.3096 29.709C32.5564 29.3396 32.6879 28.9052 32.6875 28.4609V26.5C32.6875 25.9033 32.4504 25.331 32.0285 24.909C31.6065 24.4871 31.0342 24.25 30.4375 24.25C29.8408 24.25 29.2685 24.4871 28.8465 24.909C28.4246 25.331 28.1875 25.9033 28.1875 26.5V28.4609C28.1871 28.9052 28.3186 29.3397 28.5654 29.7091L29.3125 30.8297V31.9564C29.3123 32.2828 29.2176 32.6021 29.0397 32.8758C28.8618 33.1495 28.6085 33.3657 28.3103 33.4984L25.9202 34.5607C25.4232 34.7819 25.001 35.1424 24.7046 35.5985C24.4082 36.0547 24.2503 36.5869 24.25 37.1309V42.8125H25.9375V37.1875Z" fill="white"/>
<path d="M47.4359 33.4984L45.9551 34.1566C46.3811 34.5263 46.7228 34.9831 46.9571 35.4963C47.1913 36.0094 47.3128 36.5668 47.3131 37.1309V38.9371L48.2553 39.8793L46.802 42.2509L47.0348 42.8125H52.9381V37.1875H54.0631V42.8125H55.7506V37.1309C55.7503 36.5869 55.5924 36.0547 55.296 35.5985C54.9996 35.1424 54.5774 34.7819 54.0804 34.5607L51.6902 33.4984C51.3921 33.3657 51.1387 33.1494 50.9608 32.8758C50.783 32.6021 50.6883 32.2828 50.6881 31.9564V30.8297L51.4352 29.709C51.682 29.3396 51.8135 28.9052 51.8131 28.4609V26.5C51.8131 25.9033 51.576 25.331 51.1541 24.909C50.7321 24.4871 50.1598 24.25 49.5631 24.25C48.9663 24.25 48.3941 24.4871 47.9721 24.909C47.5501 25.331 47.3131 25.9033 47.3131 26.5V28.4609C47.3127 28.9052 47.4442 29.3397 47.691 29.7091L48.4381 30.8297V31.9564C48.4379 32.2828 48.3432 32.6021 48.1653 32.8758C47.9874 33.1495 47.7341 33.3657 47.4359 33.4984Z" fill="white"/>
<path d="M46.6098 47.6477L49 47.0746V45.3004L46.6099 44.7273L45.5427 42.1519L46.8321 40.0477L46.222 39.4375H46.1875V39.403L45.5774 38.7929L43.4731 40.0824L40.8977 39.0152L40.3246 36.625H38.5504L37.9773 39.0151L35.4019 40.0823L33.2977 38.7929L32.0429 40.0476L33.3324 42.1519L32.2652 44.7273L29.875 45.3004V47.0746L32.2651 47.6477L33.3323 50.2231L32.0429 52.3273L33.2976 53.5821L35.4019 52.2926L37.9773 53.3598L38.5504 55.75H40.3246L40.8977 53.3599L43.4731 52.2927L45.5773 53.5821L46.8321 52.3274L45.5426 50.2231L46.6098 47.6477ZM39.4374 52.375C38.2137 52.375 37.0174 52.0121 35.9998 51.3322C34.9823 50.6523 34.1892 49.686 33.7209 48.5554C33.2526 47.4247 33.1301 46.1806 33.3688 44.9804C33.6076 43.7801 34.1969 42.6776 35.0622 41.8123C35.9275 40.9469 37.0301 40.3576 38.2303 40.1189C39.4306 39.8801 40.6747 40.0027 41.8053 40.471C42.9359 40.9393 43.9023 41.7324 44.5821 42.7499C45.262 43.7674 45.6249 44.9637 45.6249 46.1875C45.6231 47.828 44.9706 49.4007 43.8106 50.5607C42.6506 51.7207 41.0779 52.3731 39.4374 52.375Z" fill="white"/>
<path d="M33.8125 37.789L35.5009 38.8236L37.0169 38.1953L37.6632 35.5H41.2118L41.8581 38.1954L43.3741 38.8236L45.7458 37.3704L46.1875 37.8121V37.1309C46.1872 36.5869 46.0293 36.0547 45.7329 35.5985C45.4365 35.1424 45.0143 34.7819 44.5173 34.5607L42.1272 33.4984C41.829 33.3657 41.5756 33.1494 41.3978 32.8758C41.2199 32.6021 41.1252 32.2828 41.125 31.9564V30.8297L41.8721 29.709C42.1189 29.3396 42.2504 28.9052 42.25 28.4609V26.5C42.25 25.9033 42.0129 25.331 41.591 24.909C41.169 24.4871 40.5967 24.25 40 24.25C39.4033 24.25 38.831 24.4871 38.409 24.909C37.9871 25.331 37.75 25.9033 37.75 26.5V28.4609C37.7496 28.9052 37.8811 29.3397 38.1279 29.7091L38.875 30.8297V31.9564C38.8748 32.2828 38.7801 32.6021 38.6022 32.8758C38.4243 33.1495 38.171 33.3657 37.8728 33.4984L35.4827 34.5607C34.9857 34.7819 34.5635 35.1424 34.2671 35.5985C33.9707 36.0547 33.8128 36.5869 33.8125 37.1309V37.789Z" fill="white"/>
<path d="M39.4375 41.125C38.4362 41.125 37.4575 41.4219 36.6249 41.9782C35.7924 42.5345 35.1435 43.3251 34.7604 44.2502C34.3772 45.1752 34.2769 46.1931 34.4723 47.1751C34.6676 48.1572 35.1498 49.0592 35.8578 49.7672C36.5658 50.4752 37.4678 50.9574 38.4499 51.1527C39.4319 51.3481 40.4498 51.2478 41.3748 50.8646C42.2999 50.4815 43.0905 49.8326 43.6468 49.0001C44.2031 48.1676 44.5 47.1888 44.5 46.1875C44.4985 44.8453 43.9646 43.5585 43.0156 42.6094C42.0665 41.6604 40.7797 41.1265 39.4375 41.125ZM41.1251 47.875V50.125H37.7501V47.875H35.5001V44.5H37.7501V42.25H41.1251V44.5H43.3751V47.875H41.1251Z" fill="white"/>
<path d="M40 43.375H38.875V45.625H36.625V46.75H38.875V49H40V46.75H42.25V45.625H40V43.375Z" fill="white"/>
</svg>
