<svg width="80" height="80" viewBox="0 0 80 80" fill="none" xmlns="http://www.w3.org/2000/svg">
<rect width="80" height="80" rx="40" fill="#F5F9FF"/>
<path d="M46 25H45.7435C45.4321 24.1232 44.8571 23.3643 44.0974 22.8272C43.3377 22.2901 42.4304 22.0011 41.5 22H38.5C37.5696 22.0011 36.6623 22.2901 35.9026 22.8272C35.1429 23.3643 34.5679 24.1232 34.2565 25H34C32.0116 25.0024 30.1053 25.7933 28.6993 27.1993C27.2933 28.6053 26.5024 30.5116 26.5 32.5V50.5C26.5024 52.4884 27.2933 54.3947 28.6993 55.8007C30.1053 57.2067 32.0116 57.9976 34 58H46C47.9884 57.9976 49.8947 57.2067 51.3007 55.8007C52.7067 54.3947 53.4976 52.4884 53.5 50.5V32.5C53.4976 30.5116 52.7067 28.6053 51.3007 27.1993C49.8947 25.7933 47.9884 25.0024 46 25ZM35.5 32.5H38.5V29.5C38.5 29.1022 38.658 28.7206 38.9393 28.4393C39.2206 28.158 39.6022 28 40 28C40.3978 28 40.7794 28.158 41.0607 28.4393C41.342 28.7206 41.5 29.1022 41.5 29.5V32.5H44.5C44.8978 32.5 45.2794 32.658 45.5607 32.9393C45.842 33.2206 46 33.6022 46 34C46 34.3978 45.842 34.7794 45.5607 35.0607C45.2794 35.342 44.8978 35.5 44.5 35.5H41.5V38.5C41.5 38.8978 41.342 39.2794 41.0607 39.5607C40.7794 39.842 40.3978 40 40 40C39.6022 40 39.2206 39.842 38.9393 39.5607C38.658 39.2794 38.5 38.8978 38.5 38.5V35.5H35.5C35.1022 35.5 34.7206 35.342 34.4393 35.0607C34.158 34.7794 34 34.3978 34 34C34 33.6022 34.158 33.2206 34.4393 32.9393C34.7206 32.658 35.1022 32.5 35.5 32.5ZM40 52H34C33.6022 52 33.2206 51.842 32.9393 51.5607C32.658 51.2794 32.5 50.8978 32.5 50.5C32.5 50.1022 32.658 49.7206 32.9393 49.4393C33.2206 49.158 33.6022 49 34 49H40C40.3978 49 40.7794 49.158 41.0607 49.4393C41.342 49.7206 41.5 50.1022 41.5 50.5C41.5 50.8978 41.342 51.2794 41.0607 51.5607C40.7794 51.842 40.3978 52 40 52ZM46 46H34C33.6022 46 33.2206 45.842 32.9393 45.5607C32.658 45.2794 32.5 44.8978 32.5 44.5C32.5 44.1022 32.658 43.7206 32.9393 43.4393C33.2206 43.158 33.6022 43 34 43H46C46.3978 43 46.7794 43.158 47.0607 43.4393C47.342 43.7206 47.5 44.1022 47.5 44.5C47.5 44.8978 47.342 45.2794 47.0607 45.5607C46.7794 45.842 46.3978 46 46 46Z" fill="#2B8CFF"/>
</svg>
