<svg width="80" height="80" viewBox="0 0 80 80" fill="none" xmlns="http://www.w3.org/2000/svg">
<rect width="80" height="80" rx="40" fill="#F5F9FF"/>
<g clip-path="url(#clip0_2877_7621)">
<path d="M35.625 40C30.7994 40 26.875 36.0756 26.875 31.25C26.875 26.4244 30.7994 22.5 35.625 22.5C40.4506 22.5 44.375 26.4244 44.375 31.25C44.375 36.0756 40.4506 40 35.625 40ZM51.4217 55.3927L53.9052 51.6667H56.0417C56.8467 51.6667 57.5 51.0133 57.5 50.2083C57.5 49.4033 56.8467 48.75 56.0417 48.75H53.125C52.6379 48.75 52.1829 48.9935 51.9117 49.399L50.3892 51.6827L47.1385 45.18C46.9052 44.7148 46.4429 44.4085 45.9238 44.3765C45.4075 44.3342 44.9073 44.5908 44.62 45.0225L42.1365 48.7485H40C39.195 48.7485 38.5417 49.4019 38.5417 50.2069C38.5417 51.0119 39.195 51.6652 40 51.6652H42.9167C43.4038 51.6652 43.8587 51.4217 44.13 51.0163L45.6525 48.7325L48.9031 55.2352C49.1365 55.7004 49.5988 56.0067 50.1179 56.0387C50.6327 56.0723 51.1344 55.8244 51.4217 55.3927ZM46.2956 56.5419L45.0415 54.0335C44.4013 54.3894 43.6735 54.5833 42.9152 54.5833H39.9985C37.5865 54.5833 35.6235 52.6204 35.6235 50.2083C35.6235 47.7963 37.5865 45.8333 39.9985 45.8333H40.5746L41.5619 44.3517C39.7769 43.4402 37.7615 42.9167 35.6235 42.9167C28.3887 42.9167 22.5 48.8054 22.5 56.0417C22.5 56.8467 23.1533 57.5 23.9583 57.5H46.9504C46.6938 57.2142 46.4721 56.8933 46.2956 56.5419Z" fill="#2B8CFF"/>
</g>
<defs>
<clipPath id="clip0_2877_7621">
<rect width="35" height="35" fill="white" transform="translate(22.5 22.5)"/>
</clipPath>
</defs>
</svg>
