<svg width="26" height="25" viewBox="0 0 26 25" fill="none" xmlns="http://www.w3.org/2000/svg">
<path d="M24.2963 16.8072L18.4075 14.1685L18.3913 14.161C18.0856 14.0302 17.7521 13.9778 17.421 14.0083C17.0899 14.0389 16.7716 14.1515 16.495 14.336C16.4624 14.3575 16.4311 14.3809 16.4013 14.406L13.3588 16.9997C11.4313 16.0635 9.44126 14.0885 8.50501 12.186L11.1025 9.09725C11.1275 9.066 11.1513 9.03475 11.1738 9.001C11.3543 8.72512 11.4638 8.4089 11.4926 8.08046C11.5214 7.75203 11.4686 7.42157 11.3388 7.1185V7.1035L8.69251 1.20475C8.52094 0.808828 8.22592 0.479016 7.85149 0.264545C7.47707 0.0500744 7.04333 -0.0375518 6.61501 0.0147471C4.92122 0.23763 3.36649 1.06946 2.24118 2.35487C1.11587 3.64028 0.496949 5.29136 0.500011 6.99975C0.500011 16.9247 8.57501 24.9997 18.5 24.9997C20.2084 25.0028 21.8595 24.3839 23.1449 23.2586C24.4303 22.1333 25.2621 20.5785 25.485 18.8847C25.5374 18.4566 25.45 18.0229 25.2357 17.6485C25.0215 17.2741 24.6919 16.979 24.2963 16.8072ZM18.5 22.9997C14.258 22.9951 10.191 21.3079 7.19142 18.3083C4.19184 15.3088 2.50464 11.2418 2.50001 6.99975C2.49531 5.77911 2.93507 4.59849 3.73718 3.67838C4.53929 2.75827 5.64889 2.16158 6.85876 1.99975C6.85827 2.00473 6.85827 2.00976 6.85876 2.01475L9.48376 7.88975L6.90001 10.9822C6.87379 11.0124 6.84996 11.0446 6.82876 11.0785C6.64066 11.3671 6.5303 11.6995 6.5084 12.0433C6.4865 12.3872 6.5538 12.7308 6.70376 13.041C7.83626 15.3572 10.17 17.6735 12.5113 18.8047C12.8237 18.9533 13.1694 19.0183 13.5144 18.9933C13.8595 18.9683 14.1922 18.8543 14.48 18.6622C14.5121 18.6406 14.543 18.6173 14.5725 18.5922L17.6113 15.9997L23.4863 18.631C23.4863 18.631 23.4963 18.631 23.5 18.631C23.3402 19.8426 22.7444 20.9544 21.8241 21.7585C20.9038 22.5626 19.7221 23.0039 18.5 22.9997Z" fill="#2B8CFF"/>
</svg>
