<svg width="80" height="80" viewBox="0 0 80 80" fill="none" xmlns="http://www.w3.org/2000/svg">
<rect width="80" height="80" rx="40" fill="#F5F9FF"/>
<g clip-path="url(#clip0_2884_10761)">
<path d="M41.5 22H29.5C25.3645 22 22 25.3645 22 29.5V50.5C22 54.6355 25.3645 58 29.5 58H41.089C38.5885 55.7995 37 52.585 37 49C37 45.415 38.5885 42.2005 41.089 40H29.5C28.672 40 28 39.328 28 38.5C28 37.672 28.672 37 29.5 37H41.5C42.328 37 43 37.672 43 38.5C43 38.5495 42.976 38.5915 42.9715 38.641C44.746 37.6045 46.801 37 49 37V29.5C49 25.3645 45.6355 22 41.5 22ZM29.5 44.5H32.5C33.328 44.5 34 45.172 34 46C34 46.828 33.328 47.5 32.5 47.5H29.5C28.672 47.5 28 46.828 28 46C28 45.172 28.672 44.5 29.5 44.5ZM41.5 32.5H29.5C28.672 32.5 28 31.828 28 31C28 30.172 28.672 29.5 29.5 29.5H41.5C42.328 29.5 43 30.172 43 31C43 31.828 42.328 32.5 41.5 32.5ZM49 40C44.035 40 40 44.035 40 49C40 53.965 44.035 58 49 58C53.965 58 58 53.965 58 49C58 44.035 53.965 40 49 40ZM50.5 53.5C50.5 54.325 49.825 55 49 55C48.175 55 47.5 54.325 47.5 53.5V50.5C47.5 49.675 48.175 49 49 49C49.825 49 50.5 49.675 50.5 50.5V53.5ZM49 47.5C47.755 47.5 46.75 46.495 46.75 45.25C46.75 44.005 47.755 43 49 43C50.245 43 51.25 44.005 51.25 45.25C51.25 46.495 50.245 47.5 49 47.5Z" fill="#2B8CFF"/>
</g>
<defs>
<clipPath id="clip0_2884_10761">
<rect width="36" height="36" fill="white" transform="translate(22 22)"/>
</clipPath>
</defs>
</svg>
