<svg width="68" height="54" viewBox="0 0 68 54" fill="none" xmlns="http://www.w3.org/2000/svg">
<path d="M54.8204 27.5873C62.2965 27.5873 67.3346 32.8819 67.3346 40.7267C67.3346 47.7861 61.5442 53.6673 53.7013 53.6673C45.1108 53.6673 38.7632 46.6079 38.7632 35.8249C38.7632 11.3158 56.3156 1.51217 67.3346 0.333984V11.117C59.8632 12.4891 51.4632 20.1352 51.087 28.5716C51.4632 28.3776 52.9537 27.5873 54.8204 27.5873ZM16.7299 27.5873C24.1965 27.5873 29.2394 32.8819 29.2394 40.7267C29.2394 47.7861 23.4489 53.6673 15.6061 53.6673C7.01559 53.6673 0.667969 46.6079 0.667969 35.8249C0.667969 11.3158 18.2204 1.51217 29.2394 0.333984V11.117C21.768 12.4891 13.368 20.1352 12.9918 28.5716C13.368 28.3776 14.8584 27.5873 16.7299 27.5873Z" fill="#2B8CFF"/>
</svg>
