<svg width="80" height="80" viewBox="0 0 80 80" fill="none" xmlns="http://www.w3.org/2000/svg">
<rect width="80" height="80" rx="40" fill="#2B8CFF"/>
<path d="M32.6531 34.3765C32.6531 34.2045 32.7041 34.0363 32.7996 33.8932C32.8952 33.7502 33.0311 33.6387 33.19 33.5728C33.3489 33.507 33.5238 33.4898 33.6926 33.5233C33.8613 33.5569 34.0163 33.6397 34.138 33.7614C34.2596 33.883 34.3425 34.038 34.376 34.2068C34.4096 34.3755 34.3924 34.5504 34.3265 34.7093C34.2607 34.8683 34.1492 35.0041 34.0061 35.0997C33.8631 35.1953 33.6949 35.2463 33.5228 35.2463C33.2922 35.246 33.0712 35.1543 32.9081 34.9912C32.7451 34.8282 32.6533 34.6071 32.6531 34.3765ZM42.7978 31.7648C42.9699 31.7648 43.1381 31.7138 43.2811 31.6183C43.4242 31.5227 43.5357 31.3868 43.6015 31.2279C43.6674 31.069 43.6846 30.8941 43.651 30.7253C43.6175 30.5566 43.5346 30.4016 43.413 30.2799C43.2913 30.1583 43.1363 30.0754 42.9676 30.0419C42.7988 30.0083 42.6239 30.0255 42.465 30.0914C42.306 30.1572 42.1702 30.2687 42.0746 30.4118C41.9791 30.5548 41.928 30.723 41.9281 30.8951C41.9283 31.1257 42.0201 31.3467 42.1831 31.5098C42.3462 31.6728 42.5672 31.7645 42.7978 31.7648ZM38.1605 37.7377C38.3326 37.7377 38.5007 37.6867 38.6438 37.5912C38.7868 37.4956 38.8983 37.3597 38.9642 37.2008C39.03 37.0419 39.0473 36.867 39.0137 36.6982C38.9801 36.5295 38.8973 36.3745 38.7756 36.2528C38.654 36.1312 38.499 36.0483 38.3303 36.0148C38.1615 35.9812 37.9866 35.9984 37.8277 36.0643C37.6687 36.1301 37.5329 36.2416 37.4373 36.3847C37.3417 36.5277 37.2907 36.6959 37.2907 36.868C37.291 37.0985 37.3827 37.3195 37.5457 37.4826C37.7086 37.6456 37.9296 37.7374 38.1602 37.7377H38.1605ZM48.332 46.1497V54.2585C48.3317 54.5295 48.224 54.7892 48.0324 54.9808C47.8408 55.1724 47.581 55.2802 47.3101 55.2805H24.979C24.7081 55.2802 24.4483 55.1724 24.2567 54.9808C24.0651 54.7892 23.9573 54.5295 23.957 54.2585V25.7417C23.9573 25.4708 24.0651 25.211 24.2567 25.0194C24.4483 24.8278 24.7081 24.72 24.979 24.7197H43.9005V28.6591C43.9005 28.7897 43.9523 28.9149 44.0446 29.0072C44.1369 29.0995 44.2621 29.1513 44.3927 29.1513H48.332V31.616C46.8504 31.9505 45.5263 32.7785 44.5771 33.9642C43.6279 35.15 43.1098 36.6231 43.1078 38.142C43.1078 38.2726 43.1596 38.3978 43.2519 38.4901C43.3442 38.5824 43.4694 38.6342 43.6 38.6342H48.332V39.3405H44.3322C44.2017 39.3405 44.0765 39.3924 43.9842 39.4847C43.8919 39.577 43.84 39.7022 43.84 39.8327C43.8417 41.2213 44.2748 42.5752 45.0796 43.7069C45.8843 44.8386 47.0209 45.6922 48.332 46.1497ZM28.8855 40.6864C29.2136 40.6866 29.5359 40.5996 29.8194 40.4344C30.1029 40.2692 30.3374 40.0317 30.4991 39.7462C30.6608 39.4607 30.7437 39.1374 30.7395 38.8093C30.7353 38.4812 30.644 38.1601 30.4751 37.8789L32.4649 35.8978C32.8438 36.1622 33.3079 36.2752 33.7659 36.2146C34.2239 36.154 34.6427 35.9242 34.9398 35.5704L36.3384 36.5248C36.2834 36.8157 36.2989 37.1156 36.3835 37.3992C36.4682 37.6829 36.6195 37.9422 36.8249 38.1554C37.0303 38.3686 37.2837 38.5296 37.564 38.6248C37.8444 38.72 38.1434 38.7466 38.4361 38.7026C38.7289 38.6586 39.0068 38.5451 39.2467 38.3716C39.4866 38.1981 39.6815 37.9697 39.815 37.7055C39.9486 37.4413 40.0169 37.149 40.0143 36.8529C40.0118 36.5569 39.9383 36.2658 39.8002 36.004L42.1919 32.647C42.6168 32.7946 43.0809 32.783 43.498 32.6145C43.915 32.446 44.2568 32.1319 44.4599 31.7305C44.663 31.3291 44.7136 30.8676 44.6023 30.4318C44.491 29.9959 44.2254 29.6152 43.8547 29.3603C43.484 29.1054 43.0335 28.9936 42.5867 29.0456C42.1399 29.0977 41.7271 29.31 41.4249 29.6433C41.1228 29.9766 40.9518 30.4081 40.9436 30.8579C40.9355 31.3077 41.0908 31.7451 41.3807 32.0891L39.1101 35.2762C38.7406 35.0551 38.3055 34.9698 37.8799 35.0349C37.4543 35.1001 37.0647 35.3117 36.7783 35.6333L35.355 34.662C35.3944 34.4095 35.3811 34.1516 35.316 33.9045C35.2509 33.6574 35.1354 33.4264 34.9769 33.226C34.8183 33.0256 34.62 32.8602 34.3944 32.7401C34.1689 32.62 33.9209 32.5478 33.6661 32.528C33.4114 32.5083 33.1553 32.5414 32.9139 32.6254C32.6725 32.7093 32.4511 32.8422 32.2636 33.0158C32.076 33.1893 31.9263 33.3998 31.824 33.6339C31.7216 33.8681 31.6687 34.1208 31.6687 34.3764C31.6686 34.6391 31.7246 34.8989 31.8331 35.1382L29.7627 37.1993C29.5142 37.0659 29.2387 36.991 28.9569 36.9801C28.6752 36.9693 28.3947 37.0229 28.1368 37.1368C27.8789 37.2507 27.6503 37.4219 27.4685 37.6375C27.2867 37.853 27.1565 38.1071 27.0877 38.3806C27.019 38.654 27.0135 38.9395 27.0717 39.2154C27.1298 39.4913 27.2502 39.7503 27.4235 39.9726C27.5969 40.195 27.8187 40.3749 28.072 40.4987C28.3253 40.6224 28.6036 40.6867 28.8855 40.6868V40.6864ZM44.0921 51.6102C44.0921 51.4796 44.0403 51.3545 43.948 51.2621C43.8557 51.1698 43.7305 51.118 43.6 51.118H29.039C28.9085 51.118 28.7833 51.1698 28.691 51.2621C28.5987 51.3545 28.5468 51.4796 28.5468 51.6102C28.5468 51.7407 28.5987 51.8659 28.691 51.9582C28.7833 52.0505 28.9085 52.1024 29.039 52.1024H43.6C43.7304 52.1024 43.8556 52.0506 43.9479 51.9583C44.0402 51.8661 44.0921 51.7409 44.0921 51.6105V51.6102ZM44.0921 48.8307C44.0921 48.7001 44.0403 48.5749 43.948 48.4826C43.8557 48.3903 43.7305 48.3385 43.6 48.3385H29.039C28.9085 48.3385 28.7833 48.3903 28.691 48.4826C28.5987 48.5749 28.5468 48.7001 28.5468 48.8307C28.5468 48.9612 28.5987 49.0864 28.691 49.1787C28.7833 49.271 28.9085 49.3228 29.039 49.3228H43.6C43.7304 49.3228 43.8556 49.271 43.9479 49.1788C44.0402 49.0865 44.0921 48.9614 44.0921 48.8309V48.8307ZM44.0921 46.0512C44.0921 45.9207 44.0403 45.7955 43.948 45.7032C43.8557 45.6109 43.7305 45.559 43.6 45.559H29.039C28.9085 45.559 28.7833 45.6109 28.691 45.7032C28.5987 45.7955 28.5468 45.9207 28.5468 46.0512C28.5468 46.1817 28.5987 46.3069 28.691 46.3992C28.7833 46.4915 28.9085 46.5434 29.039 46.5434H43.6C43.7304 46.5434 43.8556 46.4916 43.9479 46.3993C44.0402 46.3071 44.0921 46.182 44.0921 46.0515V46.0512ZM44.0921 43.2718C44.0921 43.1412 44.0403 43.016 43.948 42.9237C43.8557 42.8314 43.7305 42.7796 43.6 42.7796H29.039C28.9085 42.7796 28.7833 42.8314 28.691 42.9237C28.5987 43.016 28.5468 43.1412 28.5468 43.2718C28.5468 43.4023 28.5987 43.5275 28.691 43.6198C28.7833 43.7121 28.9085 43.7639 29.039 43.7639H43.6C43.7304 43.7639 43.8556 43.7121 43.9479 43.6199C44.0402 43.5276 44.0921 43.4025 44.0921 43.272V43.2718ZM29.7553 38.8329C29.7553 38.6609 29.7043 38.4927 29.6087 38.3496C29.5131 38.2066 29.3773 38.0951 29.2183 38.0292C29.0594 37.9634 28.8845 37.9462 28.7158 37.9797C28.547 38.0133 28.392 38.0961 28.2704 38.2178C28.1487 38.3394 28.0659 38.4944 28.0323 38.6632C27.9988 38.8319 28.016 39.0068 28.0818 39.1658C28.1477 39.3247 28.2592 39.4605 28.4022 39.5561C28.5453 39.6517 28.7135 39.7027 28.8855 39.7027C29.1161 39.7024 29.3372 39.6107 29.5002 39.4476C29.6633 39.2846 29.755 39.0635 29.7553 38.8329ZM44.8848 25.4158V28.1669H47.636L44.8848 25.4158ZM44.1132 37.6502H49.3033V32.4597C47.9664 32.5775 46.7136 33.1621 45.7646 34.1111C44.8156 35.0601 44.2309 36.3129 44.1132 37.6498V37.6502ZM50.8305 32.4601V37.9385L54.7048 41.8127C55.3766 41.0133 55.816 40.0447 55.9752 39.0127C56.1345 37.9807 56.0073 36.9248 55.6077 35.96C55.208 34.9953 54.5512 34.1588 53.7089 33.5416C52.8665 32.9245 51.8709 32.5505 50.8305 32.4603V32.4601ZM44.8453 40.3249C44.9356 41.3652 45.3096 42.3608 45.9267 43.2032C46.5439 44.0455 47.3804 44.7023 48.3451 45.1019C49.3099 45.5016 50.3658 45.6287 51.3978 45.4695C52.4298 45.3103 53.3983 44.8709 54.1978 44.1991L50.3236 40.3249H44.8453Z" fill="white"/>
</svg>
