<svg width="80" height="80" viewBox="0 0 80 80" fill="none" xmlns="http://www.w3.org/2000/svg">
<rect width="80" height="80" rx="40" fill="#2B8CFF"/>
<path d="M37.5524 26.8597L36.9915 26.2168H41.9751L41.4143 26.8597H37.5524ZM31.891 38.9773L29.6868 37.3802C29.6106 37.325 29.519 37.2953 29.4249 37.2953H22.5598C22.4114 37.2952 22.2691 37.2361 22.1641 37.1312C22.0592 37.0263 22.0002 36.884 22 36.7356V32.5754C22.0002 32.427 22.0592 32.2847 22.1641 32.1797C22.2691 32.0748 22.4114 32.0158 22.5598 32.0156H33.4036C33.552 32.0158 33.6943 32.0748 33.7993 32.1797C33.9042 32.2847 33.9632 32.427 33.9634 32.5754V36.7359C33.9632 36.8843 33.9042 37.0266 33.7993 37.1315C33.6943 37.2364 33.552 37.2954 33.4036 37.2956H32.0624C31.9952 37.2956 31.9289 37.3107 31.8684 37.34C31.8079 37.3692 31.7548 37.4116 31.713 37.4642C31.6712 37.5168 31.6418 37.5782 31.627 37.6437C31.6123 37.7093 31.6125 37.7773 31.6277 37.8428L31.891 38.9773ZM22.6384 33.6357C22.6384 33.6943 22.6499 33.7523 22.6723 33.8065C22.6947 33.8606 22.7276 33.9098 22.7691 33.9513C22.8105 33.9927 22.8597 34.0256 22.9138 34.048C22.968 34.0704 23.026 34.082 23.0846 34.082H24.6378C24.7562 34.082 24.8697 34.0349 24.9534 33.9512C25.0371 33.8676 25.0841 33.754 25.0841 33.6357C25.0841 33.5173 25.0371 33.4038 24.9534 33.3201C24.8697 33.2364 24.7562 33.1894 24.6378 33.1894H23.0846C22.9663 33.1894 22.8528 33.2364 22.7691 33.3201C22.6854 33.4038 22.6384 33.5173 22.6384 33.6357ZM28.3759 35.6747C28.3759 35.5564 28.3288 35.4429 28.2452 35.3592C28.1615 35.2755 28.048 35.2285 27.9296 35.2285H23.0851C22.9667 35.2285 22.8532 35.2755 22.7695 35.3592C22.6858 35.4429 22.6388 35.5564 22.6388 35.6747C22.6388 35.7931 22.6858 35.9066 22.7695 35.9903C22.8532 36.074 22.9667 36.121 23.0851 36.121H27.9296C28.0479 36.1209 28.1612 36.0739 28.2449 35.9903C28.3285 35.9066 28.3755 35.7932 28.3755 35.675L28.3759 35.6747ZM32.8792 34.0817C32.9975 34.0817 33.111 34.0347 33.1947 33.951C33.2784 33.8673 33.3254 33.7538 33.3254 33.6355C33.3254 33.5171 33.2784 33.4036 33.1947 33.3199C33.111 33.2362 32.9975 33.1892 32.8792 33.1892H26.6073C26.4889 33.1892 26.3754 33.2362 26.2917 33.3199C26.208 33.4036 26.161 33.5171 26.161 33.6355C26.161 33.7538 26.208 33.8673 26.2917 33.951C26.3754 34.0347 26.4889 34.0817 26.6073 34.0817H32.8792ZM29.8985 36.1208H32.8792C32.9975 36.1208 33.111 36.0738 33.1947 35.9901C33.2784 35.9064 33.3254 35.7929 33.3254 35.6745C33.3254 35.5562 33.2784 35.4427 33.1947 35.359C33.111 35.2753 32.9975 35.2283 32.8792 35.2283H29.8981C29.7798 35.2283 29.6663 35.2753 29.5826 35.359C29.4989 35.4427 29.4519 35.5562 29.4519 35.6745C29.4519 35.7929 29.4989 35.9064 29.5826 35.9901C29.6663 36.0738 29.7798 36.1208 29.8981 36.1208H29.8985ZM47.4049 45.9421C47.4848 45.9417 47.5632 45.9199 47.6317 45.8788V53.0876C47.6314 53.2721 47.558 53.449 47.4275 53.5795C47.297 53.7099 47.1202 53.7834 46.9356 53.7837H32.0317C31.8472 53.7834 31.6703 53.7099 31.5398 53.5795C31.4093 53.449 31.3359 53.2721 31.3356 53.0876V39.6769L32.334 40.4003C32.4077 40.4536 32.4958 40.4832 32.5867 40.4851C32.6776 40.487 32.7669 40.4611 32.8426 40.4108C32.9184 40.3605 32.977 40.2883 33.0106 40.2038C33.0442 40.1194 33.0512 40.0266 33.0306 39.9381L32.6242 38.1879H33.4038C33.7888 38.1875 34.158 38.0343 34.4302 37.7621C34.7025 37.4898 34.8556 37.1207 34.8561 36.7356V32.5754C34.8556 32.1903 34.7025 31.8212 34.4302 31.5489C34.158 31.2767 33.7888 31.1235 33.4038 31.1231H31.3353V26.9132C31.3356 26.7286 31.409 26.5518 31.5395 26.4213C31.67 26.2908 31.8469 26.2174 32.0314 26.2171H35.8081L35.8073 26.2178L37.0131 27.5994C37.055 27.6474 37.1067 27.6859 37.1647 27.7123C37.2227 27.7386 37.2857 27.7523 37.3494 27.7523H41.6172C41.6809 27.7523 41.7439 27.7386 41.8019 27.7123C41.8599 27.6859 41.9116 27.6474 41.9535 27.5994L43.159 26.2175L43.1582 26.2168H46.9349C47.1195 26.2171 47.2963 26.2905 47.4268 26.421C47.5573 26.5515 47.6307 26.7284 47.631 26.9129V36.5801H46.596C46.211 36.5805 45.8418 36.7337 45.5696 37.0059C45.2973 37.2782 45.1442 37.6474 45.1437 38.0324V42.1929C45.1442 42.5779 45.2973 42.947 45.5696 43.2193C45.8418 43.4916 46.211 43.6447 46.596 43.6452H47.3758L46.9697 45.3953C46.9546 45.4607 46.9543 45.5288 46.9691 45.5943C46.9839 45.6598 47.0133 45.7212 47.055 45.7738C47.0968 45.8264 47.1499 45.8688 47.2104 45.8981C47.2709 45.9273 47.3372 45.9425 47.4044 45.9425L47.4049 45.9421ZM43.4291 51.4344C43.4291 51.3161 43.3821 51.2026 43.2984 51.1189C43.2147 51.0352 43.1012 50.9882 42.9829 50.9882H35.9838C35.8655 50.9882 35.7519 51.0352 35.6683 51.1189C35.5846 51.2026 35.5375 51.3161 35.5375 51.4344C35.5375 51.5528 35.5846 51.6663 35.6683 51.75C35.7519 51.8337 35.8655 51.8807 35.9838 51.8807H42.9829C43.0415 51.8807 43.0995 51.8692 43.1536 51.8467C43.2078 51.8243 43.257 51.7914 43.2984 51.75C43.3399 51.7086 43.3727 51.6594 43.3952 51.6052C43.4176 51.5511 43.4291 51.4931 43.4291 51.4344ZM44.3102 40.0004C44.3102 39.0458 44.0271 38.1126 43.4967 37.3189C42.9664 36.5252 42.2126 35.9065 41.3307 35.5412C40.4487 35.1759 39.4783 35.0803 38.542 35.2666C37.6058 35.4528 36.7458 35.9125 36.0708 36.5875C35.3957 37.2625 34.9361 38.1225 34.7498 39.0588C34.5636 39.995 34.6592 40.9655 35.0245 41.8474C35.3898 42.7293 36.0084 43.4831 36.8021 44.0135C37.5959 44.5438 38.529 44.8269 39.4836 44.8269C40.7633 44.8254 41.9901 44.3165 42.8949 43.4116C43.7997 42.5068 44.3087 41.28 44.3102 40.0004ZM43.4172 40.0004C43.4172 40.7784 43.1865 41.539 42.7542 42.186C42.3219 42.8329 41.7075 43.3371 40.9887 43.6349C40.2698 43.9326 39.4788 44.0106 38.7157 43.8588C37.9526 43.707 37.2516 43.3323 36.7015 42.7821C36.1513 42.2319 35.7766 41.531 35.6248 40.7679C35.473 40.0047 35.5509 39.2137 35.8487 38.4949C36.1464 37.7761 36.6507 37.1617 37.2976 36.7294C37.9445 36.2971 38.7051 36.0664 39.4832 36.0664C40.5262 36.0676 41.5261 36.4824 42.2637 37.2199C43.0012 37.9574 43.416 38.9574 43.4172 40.0004ZM42.4341 39.5715C42.4339 39.3543 42.3475 39.1461 42.194 38.9926C42.0405 38.839 41.8323 38.7527 41.6151 38.7524H40.7312V37.8684C40.731 37.6513 40.6446 37.4431 40.4911 37.2895C40.3376 37.136 40.1294 37.0496 39.9123 37.0494H39.0542C38.837 37.0496 38.6288 37.136 38.4753 37.2895C38.3218 37.4431 38.2354 37.6513 38.2352 37.8684V38.7521H37.3514C37.1342 38.7524 36.926 38.8388 36.7724 38.9924C36.6189 39.146 36.5325 39.3543 36.5323 39.5715V40.4299C36.5326 40.6471 36.619 40.8552 36.7725 41.0088C36.9261 41.1623 37.1343 41.2487 37.3514 41.2489H38.2352V42.1326C38.2354 42.3498 38.3218 42.5579 38.4753 42.7115C38.6289 42.865 38.8371 42.9514 39.0542 42.9517H39.9126C40.1297 42.9513 40.3379 42.8649 40.4913 42.7112C40.6448 42.5576 40.7311 42.3494 40.7312 42.1323V41.2486H41.615C41.8321 41.2484 42.0403 41.162 42.1939 41.0085C42.3474 40.8549 42.4338 40.6468 42.434 40.4296L42.4341 39.5715ZM39.8388 39.1988V37.9423H39.1276V39.1988C39.1276 39.3172 39.0806 39.4307 38.9969 39.5144C38.9132 39.5981 38.7997 39.6451 38.6814 39.6451H37.4249V40.3564H38.6814C38.7997 40.3564 38.9132 40.4034 38.9969 40.4871C39.0806 40.5708 39.1276 40.6843 39.1276 40.8027V42.0591H39.839V40.8024C39.839 40.684 39.886 40.5705 39.9697 40.4868C40.0534 40.4031 40.1669 40.3561 40.2853 40.3561H41.5417V39.6447H40.2853C40.167 39.6447 40.0535 39.5978 39.9698 39.5141C39.8861 39.4305 39.8391 39.3171 39.839 39.1988H39.8388ZM58 38.0324V42.1929C57.9999 42.3413 57.9408 42.4835 57.8359 42.5885C57.731 42.6934 57.5887 42.7524 57.4403 42.7526H50.575C50.4809 42.7526 50.3893 42.7823 50.3132 42.8375L48.109 44.4346L48.3723 43.2998C48.3875 43.2343 48.3877 43.1663 48.373 43.1008C48.3582 43.0352 48.3288 42.9739 48.287 42.9213C48.2452 42.8687 48.1921 42.8262 48.1316 42.797C48.0711 42.7678 48.0048 42.7526 47.9376 42.7526H46.5964C46.448 42.7524 46.3057 42.6934 46.2007 42.5885C46.0958 42.4835 46.0368 42.3413 46.0366 42.1929V38.0324C46.0368 37.884 46.0958 37.7417 46.2007 37.6368C46.3057 37.5318 46.448 37.4728 46.5964 37.4726H57.4403C57.5887 37.4728 57.731 37.5318 57.8359 37.6368C57.9408 37.7417 57.9999 37.884 58 38.0324ZM50.5482 41.1324C50.5482 41.014 50.5012 40.9005 50.4175 40.8168C50.3338 40.7331 50.2203 40.6861 50.1019 40.6861H47.1213C47.0029 40.6861 46.8894 40.7331 46.8057 40.8168C46.722 40.9005 46.675 41.014 46.675 41.1324C46.675 41.2508 46.722 41.3643 46.8057 41.448C46.8894 41.5317 47.0029 41.5787 47.1213 41.5787H50.1019C50.2203 41.5787 50.3338 41.5317 50.4175 41.448C50.5012 41.3643 50.5482 41.2508 50.5482 41.1324ZM53.3933 39.5395C53.5118 39.5395 53.6253 39.4924 53.709 39.4087C53.7928 39.325 53.8398 39.2114 53.8398 39.093C53.8398 38.9746 53.7928 38.861 53.709 38.7773C53.6253 38.6935 53.5118 38.6465 53.3933 38.6465H47.1215C47.003 38.6465 46.8895 38.6935 46.8057 38.7773C46.722 38.861 46.675 38.9746 46.675 39.093C46.675 39.2114 46.722 39.325 46.8057 39.4087C46.8895 39.4924 47.003 39.5395 47.1215 39.5395H53.3933ZM57.3616 41.1324C57.3616 41.0738 57.3501 41.0158 57.3277 40.9616C57.3053 40.9075 57.2724 40.8583 57.2309 40.8168C57.1895 40.7754 57.1403 40.7425 57.0862 40.7201C57.032 40.6977 56.974 40.6861 56.9154 40.6861H52.0708C51.9525 40.6861 51.839 40.7331 51.7553 40.8168C51.6716 40.9005 51.6246 41.014 51.6246 41.1324C51.6246 41.2508 51.6716 41.3643 51.7553 41.448C51.839 41.5317 51.9525 41.5787 52.0708 41.5787H56.9154C57.0337 41.5787 57.1472 41.5317 57.2309 41.448C57.3146 41.3643 57.3616 41.2508 57.3616 41.1324ZM57.3616 39.0933C57.3616 39.0347 57.3501 38.9767 57.3277 38.9225C57.3053 38.8684 57.2724 38.8192 57.2309 38.7777C57.1895 38.7363 57.1403 38.7034 57.0862 38.681C57.032 38.6585 56.974 38.647 56.9154 38.647H55.3622C55.2437 38.647 55.1302 38.694 55.0464 38.7778C54.9627 38.8615 54.9157 38.9751 54.9157 39.0935C54.9157 39.2119 54.9627 39.3255 55.0464 39.4092C55.1302 39.4929 55.2437 39.54 55.3622 39.54H56.9154C56.974 39.54 57.0321 39.5284 57.0862 39.506C57.1404 39.4835 57.1896 39.4506 57.231 39.4091C57.2725 39.3676 57.3054 39.3184 57.3278 39.2642C57.3502 39.21 57.3617 39.152 57.3616 39.0933Z" fill="white"/>
</svg>
