<svg width="80" height="80" viewBox="0 0 80 80" fill="none" xmlns="http://www.w3.org/2000/svg">
<rect width="80" height="80" rx="40" fill="#2B8CFF"/>
<g clip-path="url(#clip0_1096_1420)">
<path d="M56.9637 35.514C56.8554 35.5401 56.7617 35.6079 56.7032 35.7028C56.6447 35.7976 56.6262 35.9117 56.6515 36.0203C56.959 37.3255 57.1148 38.6618 57.1156 40.0028C57.1102 44.54 55.3053 48.8899 52.097 52.0982C48.8887 55.3066 44.5388 57.1114 40.0015 57.1168C36.275 57.1299 32.6484 55.9118 29.6853 53.6518C30.0831 53.0586 30.2421 52.3369 30.1303 51.6315C30.0185 50.926 29.6443 50.2888 29.0825 49.8477C28.5208 49.4065 27.813 49.1939 27.1012 49.2525C26.3893 49.3112 25.7259 49.6366 25.2439 50.1638C24.7619 50.6909 24.4969 51.3807 24.502 52.095C24.5072 52.8092 24.782 53.4951 25.2716 54.0153C25.7611 54.5354 26.4291 54.8513 27.1418 54.8997C27.8544 54.9481 28.559 54.7254 29.1143 54.2762C32.2342 56.678 36.0642 57.9742 40.0015 57.9606C42.714 57.9576 45.3906 57.341 47.8309 56.1567C50.2711 54.9725 52.4118 53.2514 54.0925 51.1224C55.7732 48.9934 56.9503 46.5117 57.5357 43.8632C58.1211 41.2147 58.0996 38.468 57.4728 35.829C57.4602 35.7748 57.437 35.7236 57.4046 35.6784C57.3722 35.6332 57.3311 35.5948 57.2838 35.5656C57.2365 35.5363 57.1838 35.5167 57.1289 35.5078C57.074 35.499 57.0178 35.5011 56.9637 35.514Z" fill="white"/>
<path d="M22.8867 40.0028C22.8869 36.9586 23.699 33.9695 25.2394 31.3438C26.7797 28.718 28.9925 26.5506 31.6496 25.065C34.3067 23.5794 37.312 22.8294 40.3555 22.8923C43.3991 22.9552 46.3708 23.8287 48.9642 25.4228C48.6966 25.9955 48.6537 26.6478 48.8442 27.2506C49.0347 27.8534 49.4446 28.3627 49.9928 28.6776C50.541 28.9924 51.1874 29.09 51.8041 28.9508C52.4207 28.8117 52.9627 28.446 53.3225 27.9262C53.6823 27.4065 53.8338 26.7705 53.747 26.1443C53.6602 25.5182 53.3414 24.9474 52.8537 24.5452C52.366 24.1429 51.745 23.9385 51.1138 23.9724C50.4825 24.0062 49.887 24.276 49.4452 24.7281C46.7248 23.0464 43.6047 22.1217 40.4074 22.0495C37.21 21.9773 34.0514 22.7602 31.2579 24.3174C28.4644 25.8746 26.1374 28.1495 24.5174 30.907C22.8974 33.6645 22.0432 36.8046 22.043 40.0028C22.0415 41.099 22.1413 42.1931 22.3411 43.2709C22.3583 43.368 22.4091 43.456 22.4848 43.5193C22.5604 43.5825 22.6559 43.6171 22.7545 43.6169C22.7801 43.6168 22.8056 43.614 22.8305 43.6084C22.9405 43.5886 23.0381 43.5259 23.1019 43.4341C23.1657 43.3424 23.1905 43.2291 23.1708 43.119C22.9812 42.0911 22.8861 41.048 22.8867 40.0028Z" fill="white"/>
<path d="M37.4688 37.2156V37.4688H42.5312V37.2156C42.4919 33.7956 37.5081 33.7956 37.4688 37.2156Z" fill="white"/>
<path d="M51.7991 31.2363C47.0516 31.2841 42.4841 28.3506 40.7375 27.085C40.523 26.9301 40.2652 26.8467 40.0006 26.8467C39.7361 26.8467 39.4782 26.9301 39.2638 27.085C37.5172 28.3506 32.9384 31.2728 28.2022 31.2363C28.034 31.2346 27.8671 31.2662 27.7112 31.3293C27.5552 31.3924 27.4133 31.4857 27.2936 31.6038C27.1739 31.722 27.0787 31.8627 27.0136 32.0178C26.9484 32.1729 26.9146 32.3393 26.9141 32.5075C26.9169 39.0016 28.2163 48.2913 39.4297 53.9669C39.6065 54.057 39.8022 54.104 40.0006 54.104C40.1991 54.104 40.3947 54.057 40.5716 53.9669C51.785 48.2913 53.0844 39.0016 53.0872 32.5075C53.0847 32.1682 52.9476 31.8438 52.7061 31.6054C52.4646 31.3671 52.1384 31.2343 51.7991 31.2363ZM44.6413 44.0781C44.6413 44.6376 44.419 45.1741 44.0234 45.5697C43.6278 45.9653 43.0913 46.1875 42.5319 46.1875H37.4694C36.9099 46.1875 36.3734 45.9653 35.9778 45.5697C35.5822 45.1741 35.36 44.6376 35.36 44.0781V39.5781C35.3602 39.1679 35.4801 38.7666 35.7048 38.4234C35.9296 38.0802 36.2496 37.81 36.6256 37.6459V37.21C36.6762 32.6959 43.325 32.6959 43.3756 37.21V37.6459C43.7516 37.81 44.0716 38.0802 44.2964 38.4234C44.5212 38.7666 44.641 39.1679 44.6413 39.5781V44.0781Z" fill="white"/>
<path d="M40.6906 41.3437C40.6844 41.306 40.6861 41.2673 40.6958 41.2303C40.7055 41.1933 40.7229 41.1587 40.7469 41.1288C40.8411 40.9926 40.8962 40.8332 40.9063 40.6679C40.9164 40.5025 40.8811 40.3376 40.8042 40.1909C40.7273 40.0442 40.6117 39.9213 40.47 39.8356C40.3283 39.7499 40.1658 39.7046 40.0001 39.7046C39.8345 39.7046 39.672 39.7499 39.5303 39.8356C39.3886 39.9213 39.273 40.0442 39.1961 40.1909C39.1192 40.3376 39.0838 40.5025 39.094 40.6679C39.1041 40.8332 39.1592 40.9926 39.2534 41.1288C39.2773 41.1584 39.2946 41.1926 39.3043 41.2293C39.314 41.266 39.3158 41.3043 39.3097 41.3418C39.2436 41.6711 39.0565 42.6127 38.9246 43.2663C38.9086 43.3479 38.9108 43.4319 38.9311 43.5125C38.9515 43.5931 38.9894 43.6681 39.0422 43.7323C39.095 43.7964 39.1613 43.8481 39.2364 43.8836C39.3116 43.9191 39.3936 43.9374 39.4767 43.9374H40.523C40.6062 43.9374 40.6884 43.919 40.7637 43.8834C40.8389 43.8478 40.9053 43.796 40.9581 43.7316C41.0109 43.6673 41.0488 43.592 41.0689 43.5113C41.0891 43.4305 41.0911 43.3463 41.0748 43.2647L40.6906 41.3437Z" fill="white"/>
</g>
<defs>
<clipPath id="clip0_1096_1420">
<rect width="36" height="36" fill="white" transform="translate(22 22)"/>
</clipPath>
</defs>
</svg>
