<svg width="80" height="80" viewBox="0 0 80 80" fill="none" xmlns="http://www.w3.org/2000/svg">
<rect width="80" height="80" rx="40" fill="#2B8CFF"/>
<g clip-path="url(#clip0_1096_1404)">
<path d="M55.8957 53.4678H41.0547V57.9999H57.2413L55.8957 53.4678Z" fill="white"/>
<path d="M38.9445 57.9999V53.4678H24.1035L22.7578 57.9999H38.9445Z" fill="white"/>
<path d="M58 23.3172C58 22.5909 57.4091 22 56.6828 22C55.9564 22 55.3655 22.5909 55.3655 23.3172V35.809C55.3531 36.6733 55.0199 37.5345 54.3619 38.1925L45.49 47.0643L43.9985 45.5728L52.8703 36.7009C53.3839 36.1873 53.3839 35.3516 52.8703 34.838C52.6214 34.5892 52.2907 34.4522 51.9389 34.4522C51.587 34.4522 51.2562 34.5892 51.0074 34.8381L42.132 43.7134C41.4373 44.4082 41.0547 45.3357 41.0547 46.3247V51.3586H53.2561V48.574L58 40.3113V23.3172Z" fill="white"/>
<path d="M38.9453 51.3585V46.3247C38.9453 45.3356 38.5627 44.4082 37.8679 43.7133L28.9926 34.838C28.7438 34.5892 28.413 34.4522 28.0611 34.4522C27.7093 34.4522 27.3786 34.5892 27.1297 34.838C26.6161 35.3516 26.6161 36.1873 27.1297 36.7009L36.0015 45.5728L34.51 47.0643L25.6382 38.1925C24.9802 37.5345 24.6469 36.6733 24.6371 35.809C24.6345 35.809 24.6345 23.3172 24.6345 23.3172C24.6345 22.5909 24.0436 22 23.3172 22C22.5909 22 22 22.5909 22 23.3172V40.3112L26.7439 48.574V51.3585H38.9453Z" fill="white"/>
<path d="M33.9915 31.4877C34.9809 31.4877 35.9246 31.1784 36.7206 30.5933L40.0002 28.184L43.2808 30.5943C44.0772 31.1788 45.0208 31.4877 46.0095 31.4877C48.5529 31.4877 50.6221 29.4184 50.6221 26.875C50.6221 24.3316 48.5529 22.2625 46.0095 22.2625C45.0201 22.2625 44.0763 22.5718 43.2805 23.1568L40.0004 25.5665L36.7209 23.157C35.9247 22.5718 34.9809 22.2625 33.9915 22.2625C31.4481 22.2625 29.3789 24.3317 29.3789 26.8751C29.3789 29.4185 31.4481 31.4877 33.9915 31.4877ZM44.5295 24.8566C44.961 24.5395 45.4727 24.3718 46.0095 24.3718C47.3898 24.3718 48.5128 25.4948 48.5128 26.8751C48.5128 28.2554 47.3898 29.3784 46.0095 29.3784C45.4728 29.3784 44.9609 29.2108 44.5294 28.8941L41.7816 26.8753L44.5295 24.8566ZM33.9915 24.3718C34.5283 24.3718 35.04 24.5395 35.4716 24.8566L38.2189 26.8752L35.4716 28.8936C35.04 29.2107 34.5283 29.3784 33.9915 29.3784C32.6112 29.3784 31.4883 28.2554 31.4883 26.8751C31.4883 25.4948 32.6112 24.3718 33.9915 24.3718Z" fill="white"/>
</g>
<defs>
<clipPath id="clip0_1096_1404">
<rect width="36" height="36" fill="white" transform="translate(22 22)"/>
</clipPath>
</defs>
</svg>
