<svg width="80" height="80" viewBox="0 0 80 80" fill="none" xmlns="http://www.w3.org/2000/svg">
<rect width="80" height="80" rx="40" fill="#2B8CFF"/>
<path d="M37.5006 40L37.5 39H36.5V40H37.5L37.5006 40Z" fill="white"/>
<path d="M32.1465 42.0606C32.0999 42.107 32.063 42.1621 32.0378 42.2227C32.0127 42.2834 31.9998 42.3485 32 42.4142V45.5858C32.0004 46.0694 31.9111 46.5489 31.7366 47H41V42.914C40.7078 42.8103 40.4548 42.6187 40.2758 42.3656C40.0967 42.1124 40.0004 41.8101 40 41.5V38.2403L37.1996 36L40 33.7597V30.5C40.0004 30.1899 40.0967 29.8876 40.2758 29.6344C40.4548 29.3813 40.7078 29.1897 41 29.086V28H30V38.7929L30.7322 38.0607C31.0913 37.7019 31.5781 37.5004 32.0857 37.5004C32.5932 37.5005 33.08 37.7022 33.4389 38.0611C33.7978 38.42 33.9995 38.9067 33.9996 39.4143C33.9997 39.9219 33.7982 40.4087 33.4394 40.7678L32.1465 42.0606ZM35.5 30C35.5003 29.7349 35.6058 29.4807 35.7932 29.2932C35.9807 29.1058 36.2349 29.0003 36.5 29H37.5C37.7651 29.0003 38.0193 29.1058 38.2068 29.2932C38.3942 29.4807 38.4997 29.7349 38.5 30V31C38.4997 31.2651 38.3942 31.5193 38.2068 31.7068C38.0193 31.8942 37.7651 31.9997 37.5 32H36.5C36.2349 31.9997 35.9807 31.8942 35.7932 31.7068C35.6058 31.5193 35.5003 31.2651 35.5 31V30ZM35.5 34.5C35.5003 34.2349 35.6058 33.9807 35.7932 33.7932C35.9807 33.6058 36.2349 33.5003 36.5 33.5H37.5V34.5H36.5V35.5H35.5V34.5ZM35.5 39C35.5003 38.7349 35.6058 38.4807 35.7932 38.2932C35.9807 38.1058 36.2349 38.0003 36.5 38H37.5C37.7651 38.0003 38.0193 38.1058 38.2068 38.2932C38.3942 38.4807 38.4997 38.7349 38.5 39V40C38.4997 40.2651 38.3942 40.5193 38.2068 40.7068C38.0193 40.8942 37.7651 40.9997 37.5 41H36.5C36.2349 40.9997 35.9807 40.8942 35.7932 40.7068C35.6058 40.5193 35.5003 40.2651 35.5 40V39ZM35.5 43.5C35.5003 43.2349 35.6058 42.9807 35.7932 42.7932C35.9807 42.6058 36.2349 42.5003 36.5 42.5H37.5C37.7651 42.5003 38.0193 42.6058 38.2068 42.7932C38.3942 42.9807 38.4997 43.2349 38.5 43.5V44.5C38.4997 44.7651 38.3942 45.0193 38.2068 45.2068C38.0193 45.3942 37.7651 45.4997 37.5 45.5H36.5C36.2349 45.4997 35.9807 45.3942 35.7932 45.2068C35.6058 45.0193 35.5003 44.7651 35.5 44.5V43.5ZM31.5 30C31.5003 29.7349 31.6058 29.4807 31.7932 29.2932C31.9807 29.1058 32.2349 29.0003 32.5 29H33.5C33.7651 29.0003 34.0193 29.1058 34.2068 29.2932C34.3942 29.4807 34.4997 29.7349 34.5 30V31C34.4997 31.2651 34.3942 31.5193 34.2068 31.7068C34.0193 31.8942 33.7651 31.9997 33.5 32H32.5C32.2349 31.9997 31.9807 31.8942 31.7932 31.7068C31.6058 31.5193 31.5003 31.2651 31.5 31V30ZM33.5 36.5H32.5C32.2349 36.4997 31.9807 36.3942 31.7932 36.2068C31.6058 36.0193 31.5003 35.7651 31.5 35.5V34.5C31.5003 34.2349 31.6058 33.9807 31.7932 33.7932C31.9807 33.6058 32.2349 33.5003 32.5 33.5H33.5C33.7651 33.5003 34.0193 33.6058 34.2068 33.7932C34.3942 33.9807 34.4997 34.2349 34.5 34.5V35.5C34.4997 35.7651 34.3942 36.0193 34.2068 36.2068C34.0193 36.3942 33.7651 36.4997 33.5 36.5ZM34.5 43.5V44.5C34.4997 44.7651 34.3942 45.0193 34.2068 45.2068C34.0193 45.3942 33.7651 45.4997 33.5 45.5H33V44.5H33.5V43.5H33V42.5H33.5C33.7651 42.5003 34.0193 42.6058 34.2068 42.7932C34.3942 42.9807 34.4997 43.2349 34.5 43.5Z" fill="white"/>
<path d="M37.5006 44.5L37.5 43.5H36.5V44.5H37.5L37.5006 44.5Z" fill="white"/>
<path d="M31 45.5858V42.4142C30.9995 42.2172 31.038 42.0219 31.1134 41.8399C31.1888 41.6578 31.2996 41.4925 31.4393 41.3535L32.7322 40.0607C32.8172 39.9758 32.8847 39.875 32.9307 39.7641C32.9767 39.6531 33.0005 39.5342 33.0005 39.4141C33.0006 39.294 32.9769 39.175 32.931 39.0641C32.8851 38.9531 32.8177 38.8522 32.7328 38.7673C32.6478 38.6824 32.547 38.615 32.436 38.569C32.325 38.5231 32.2061 38.4995 32.086 38.4995C31.9659 38.4996 31.8469 38.5233 31.736 38.5693C31.625 38.6153 31.5243 38.6828 31.4394 38.7678L29.5607 40.6465C29.3509 40.8562 29.0836 40.9991 28.7926 41.057C28.5017 41.1149 28.2001 41.0852 27.926 40.9716C27.6519 40.8581 27.4176 40.6658 27.2528 40.4191C27.088 40.1725 27 39.8825 27 39.5858V34L26.6 34.3C26.4141 34.4401 26.2632 34.6214 26.1591 34.8296C26.055 35.0378 26.0006 35.2672 26 35.5V54H29V50.4142C28.9986 49.9 29.0992 49.3906 29.296 48.9155C29.4928 48.4404 29.7818 48.0091 30.1464 47.6464C30.4179 47.3765 30.6331 47.0553 30.7796 46.7016C30.9262 46.3479 31.0011 45.9686 31 45.5858Z" fill="white"/>
<path d="M33.5006 31L33.5 30H32.5V31H33.5L33.5006 31Z" fill="white"/>
<path d="M28.3087 40.0477C28.3998 40.0869 28.5007 40.0975 28.598 40.0782C28.6952 40.0588 28.7844 40.0104 28.8536 39.9394L29 39.7929V27H42V29H43V26.5C42.9999 26.3674 42.9472 26.2403 42.8534 26.1466C42.7597 26.0529 42.6326 26.0002 42.5 26H28.5C28.3675 26.0002 28.2404 26.0529 28.1467 26.1466C28.0529 26.2403 28.0002 26.3674 28 26.5V39.5858C27.9987 39.685 28.0275 39.7822 28.0827 39.8647C28.1378 39.9471 28.2166 40.011 28.3087 40.0477Z" fill="white"/>
<path d="M37.5006 31L37.5 30H36.5V31H37.5L37.5006 31Z" fill="white"/>
<path d="M32.5 34.5V35.5H33.5L33.5006 35.5L33.5 34.5H32.5Z" fill="white"/>
<path d="M42 48H31.1661C31.069 48.1239 30.9647 48.242 30.8536 48.3536C30.5821 48.6235 30.3669 48.9447 30.2204 49.2984C30.0738 49.6521 29.999 50.0314 30 50.4142V51H41.8302C42.1403 50.9997 42.4377 50.8763 42.657 50.657C42.8763 50.4377 42.9997 50.1403 43 49.8301V43H42V48ZM36.5 50H34.5V49H36.5V50Z" fill="white"/>
<path d="M47.9209 36.2849L46.9209 37.2849L45.9745 35.8655L45.2461 36.8367L47.4986 39.2649L49.1357 37.5001H48.731L47.9209 36.2849Z" fill="white"/>
<path d="M46.0222 34.1346L47.0758 35.7152L48.0758 34.7152L49.2657 36.5H50.0629L51.0266 35.4612C51.3314 35.1223 51.5001 34.6826 51.5001 34.2267C51.5001 33.7708 51.3314 33.3311 51.0266 32.9922C50.8894 32.8375 50.7209 32.7136 50.5323 32.6287C50.3437 32.5439 50.1393 32.5 49.9325 32.5C49.7257 32.5 49.5212 32.5439 49.3326 32.6287C49.1441 32.7136 48.9756 32.8375 48.8384 32.9922L47.4981 34.4371L46.1578 32.9923C46.0206 32.8375 45.8522 32.7136 45.6636 32.6287C45.475 32.5439 45.2706 32.5 45.0638 32.5C44.857 32.5 44.6525 32.5439 44.4639 32.6287C44.2753 32.7136 44.1069 32.8375 43.9697 32.9922C43.6648 33.3311 43.4961 33.7708 43.4961 34.2267C43.4961 34.6826 43.6648 35.1223 43.9697 35.4612L44.5544 36.0916L46.0222 34.1346Z" fill="white"/>
<path d="M41.0004 30.5V34.2403L38.8008 36L41.0004 37.7597V41.5C41.0005 41.6326 41.0532 41.7597 41.147 41.8534C41.2407 41.9471 41.3678 41.9998 41.5004 42H53.5004C53.6329 41.9998 53.76 41.9471 53.8538 41.8534C53.9475 41.7597 54.0002 41.6326 54.0004 41.5V30.5C54.0002 30.3674 53.9475 30.2403 53.8538 30.1466C53.76 30.0529 53.6329 30.0002 53.5004 30H41.5004C41.3678 30.0002 41.2407 30.0529 41.147 30.1466C41.0532 30.2403 41.0005 30.3674 41.0004 30.5ZM42.5004 36.5H43.5715L43.2388 36.1413C42.2595 35.0856 42.2595 33.3679 43.2388 32.3122C43.4696 32.0565 43.7514 31.8521 44.0662 31.7122C44.3809 31.5723 44.7215 31.5 45.066 31.5C45.4104 31.5 45.751 31.5723 46.0658 31.7122C46.3805 31.8521 46.6624 32.0565 46.8932 32.3121L47.5004 32.9667L48.1075 32.3121C48.3389 32.0571 48.6208 31.8532 48.9355 31.7133C49.2501 31.5735 49.5904 31.5008 49.9348 31.5H49.9348C50.2791 31.5008 50.6194 31.5735 50.934 31.7133C51.2487 31.8532 51.5306 32.0571 51.7619 32.3122C52.7412 33.3678 52.7413 35.0856 51.762 36.1413L51.4292 36.5H52.5004V37.5H50.5015L47.5004 40.7352L44.4992 37.5H42.5004V36.5Z" fill="white"/>
<path d="M53.5 45.5H44L45.5 47.5V53.5C45.5 53.7652 45.6054 54.0196 45.7929 54.2071C45.9804 54.3946 46.2348 54.5 46.5 54.5H53.5C53.7652 54.5 54.0196 54.3946 54.2071 54.2071C54.3946 54.0196 54.5 53.7652 54.5 53.5V46.5C54.5 46.2348 54.3946 45.9804 54.2071 45.7929C54.0196 45.6054 53.7652 45.5 53.5 45.5ZM52.5 51H51V52.5H49V51H47.5V49H49V47.5H51V49H52.5V51Z" fill="white"/>
</svg>
