<svg width="28" height="28" viewBox="0 0 28 28" fill="none" xmlns="http://www.w3.org/2000/svg">
<path fill-rule="evenodd" clip-rule="evenodd" d="M18.631 8.18582C19.1461 8.32368 19.5753 8.65164 19.8395 9.10932C20.3493 9.99247 20.1021 11.1082 19.3014 11.7011L17.3255 8.27939C17.7347 8.10193 18.1902 8.06769 18.631 8.18576V8.18582ZM6.31378 21.1084L9.07113 19.5165L5.43851 13.2334L2.6851 14.8233C1.84992 15.3055 1.2512 16.0885 0.99969 17.0279C0.747635 17.9674 0.874455 18.945 1.35663 19.7799C2.02836 20.9428 3.25057 21.5937 4.50571 21.5937C5.12078 21.5937 5.74378 21.4374 6.31378 21.1084ZM12.0663 24.7128L9.75073 20.7026L7.58948 21.9504L9.90446 25.9608C10.249 26.5566 11.0136 26.7614 11.6097 26.4174C11.8962 26.2519 12.1019 25.9824 12.1889 25.6592C12.2753 25.3358 12.2318 24.9999 12.0663 24.7128V24.7128ZM20.6767 16.8177L13.5822 4.53007C13.4345 4.2738 13.1917 4.13331 12.898 4.13331C12.8925 4.13331 12.8867 4.13358 12.8812 4.13358C12.5799 4.13911 12.336 4.28884 12.1947 4.55539C11.9453 5.02597 11.7049 5.52817 11.4505 6.05995C10.3799 8.29607 9.17613 10.8098 6.61123 12.5295L10.2665 18.8533C13.0354 17.494 15.8136 17.7081 18.2841 17.8989C18.8728 17.9445 19.4283 17.9872 19.9611 18.0068C20.263 18.0184 20.5139 17.8818 20.6693 17.6235C20.8251 17.3651 20.8274 17.0788 20.6769 16.8178L20.6767 16.8177ZM18.8933 4.20107C18.7048 4.52799 18.8168 4.94607 19.1437 5.13486C19.251 5.19709 19.3686 5.22662 19.4846 5.22662C19.7208 5.22662 19.951 5.10401 20.0773 4.88471L21.4896 2.43953C21.6781 2.11261 21.566 1.69452 21.2391 1.50574C20.9119 1.31701 20.4941 1.42901 20.3056 1.75593L18.8933 4.20107ZM27.1249 11.6988C27.1249 11.3215 26.8191 11.0152 26.4395 11.0152L23.6168 11.0155C23.2396 11.0155 22.9332 11.3215 22.9332 11.699C22.9332 12.0766 23.2396 12.3826 23.6168 12.3826L26.4395 12.3824C26.8191 12.3824 27.1249 12.0766 27.1249 11.6988ZM25.4904 5.84667C25.3006 5.51975 24.884 5.40775 24.5571 5.59647L22.0521 7.04225C21.7249 7.2313 21.6129 7.64911 21.8017 7.97631C21.9285 8.19566 22.1581 8.31827 22.3943 8.31827C22.5103 8.31827 22.6279 8.28846 22.7357 8.2265L25.24 6.78046C25.5669 6.59168 25.6802 6.17359 25.4904 5.84667Z" fill="#2B8CFF"/>
</svg>
