<svg width="28" height="29" viewBox="0 0 28 29" fill="none" xmlns="http://www.w3.org/2000/svg">
<path fill-rule="evenodd" clip-rule="evenodd" d="M18.6329 8.99099C19.148 9.12886 19.5773 9.45682 19.8414 9.9145C20.3513 10.7976 20.104 11.9134 19.3034 12.5062L17.3274 9.08456C17.7366 8.9071 18.1922 8.87287 18.6329 8.99094V8.99099ZM6.31574 21.9135L9.07308 20.3217L5.44046 14.0385L2.68706 15.6285C1.85187 16.1107 1.25315 16.8937 1.00164 17.833C0.749588 18.7726 0.876408 19.7502 1.35859 20.5851C2.03031 21.7479 3.25253 22.3989 4.50766 22.3989C5.12273 22.3989 5.74573 22.2425 6.31574 21.9135ZM12.0682 25.5179L9.75268 21.5078L7.59143 22.7556L9.90641 26.766C10.251 27.3618 11.0155 27.5666 11.6116 27.2226C11.8982 27.0571 12.1038 26.7876 12.1908 26.4644C12.2773 26.1409 12.2338 25.805 12.0682 25.518V25.5179ZM20.6787 17.6229L13.5841 5.33524C13.4365 5.07898 13.1937 4.93848 12.9 4.93848C12.8945 4.93848 12.8887 4.93876 12.8832 4.93876C12.5818 4.94428 12.338 5.09402 12.1967 5.36056C11.9473 5.83115 11.7068 6.33334 11.4524 6.86512C10.3818 9.10124 9.17808 11.615 6.61318 13.3347L10.2684 19.6584C13.0374 18.2991 15.8156 18.5132 18.2861 18.7041C18.8748 18.7497 19.4302 18.7924 19.9631 18.8119C20.2649 18.8235 20.5159 18.687 20.6712 18.4286C20.827 18.1702 20.8294 17.8839 20.6789 17.623L20.6787 17.6229ZM18.8952 5.00624C18.7067 5.33316 18.8188 5.75125 19.1457 5.94003C19.253 6.00227 19.3706 6.0318 19.4866 6.0318C19.7228 6.0318 19.9529 5.90919 20.0792 5.68989L21.4915 3.2447C21.68 2.91778 21.568 2.4997 21.241 2.31091C20.9139 2.12219 20.496 2.23419 20.3075 2.56111L18.8952 5.00624ZM27.1269 12.504C27.1269 12.1267 26.8211 11.8204 26.4414 11.8204L23.6188 11.8206C23.2415 11.8206 22.9352 12.1267 22.9352 12.5042C22.9352 12.8817 23.2415 13.1878 23.6188 13.1878L26.4414 13.1875C26.8211 13.1875 27.1269 12.8817 27.1269 12.504ZM25.4923 6.65184C25.3025 6.32492 24.886 6.21292 24.5591 6.40165L22.0541 7.84742C21.7269 8.03648 21.6149 8.45429 21.8036 8.78148C21.9304 9.00084 22.1601 9.12345 22.3963 9.12345C22.5123 9.12345 22.6298 9.09364 22.7377 9.03168L25.2419 7.58563C25.5689 7.39685 25.6822 6.97877 25.4923 6.65184Z" fill="white"/>
</svg>
