<svg width="200" height="33" viewBox="0 0 200 33" fill="none" xmlns="http://www.w3.org/2000/svg">
<path d="M29.9112 14.2507L23.6822 20.3227L25.1532 28.8987C25.2172 29.2737 25.0632 29.6527 24.7552 29.8767C24.5812 30.0037 24.3742 30.0677 24.1672 30.0677C24.0082 30.0677 23.8482 30.0297 23.7022 29.9527L16.0002 25.9037L8.29916 29.9517C7.96316 30.1297 7.55416 30.1007 7.24616 29.8757C6.93816 29.6517 6.78416 29.2727 6.84816 28.8977L8.31916 20.3217L2.08916 14.2507C1.81716 13.9847 1.71816 13.5867 1.83616 13.2257C1.95416 12.8647 2.26716 12.5997 2.64416 12.5447L11.2532 11.2947L15.1032 3.49272C15.4402 2.80972 16.5602 2.80972 16.8972 3.49272L20.7472 11.2947L29.3562 12.5447C29.7332 12.5997 30.0462 12.8637 30.1642 13.2257C30.2822 13.5877 30.1832 13.9837 29.9112 14.2507Z" fill="#FFC400"/>
<path d="M71.9112 14.2507L65.6822 20.3227L67.1532 28.8987C67.2172 29.2737 67.0632 29.6527 66.7552 29.8767C66.5812 30.0037 66.3742 30.0677 66.1672 30.0677C66.0082 30.0677 65.8482 30.0297 65.7022 29.9527L58.0002 25.9037L50.2992 29.9517C49.9632 30.1297 49.5542 30.1007 49.2462 29.8757C48.9382 29.6517 48.7842 29.2727 48.8482 28.8977L50.3192 20.3217L44.0892 14.2507C43.8172 13.9847 43.7182 13.5867 43.8362 13.2257C43.9542 12.8647 44.2672 12.5997 44.6442 12.5447L53.2532 11.2947L57.1032 3.49272C57.4402 2.80972 58.5602 2.80972 58.8972 3.49272L62.7472 11.2947L71.3562 12.5447C71.7332 12.5997 72.0462 12.8637 72.1642 13.2257C72.2822 13.5877 72.1832 13.9837 71.9112 14.2507Z" fill="#FFC400"/>
<path d="M113.911 14.2507L107.682 20.3227L109.153 28.8987C109.217 29.2737 109.063 29.6527 108.755 29.8767C108.581 30.0037 108.374 30.0677 108.167 30.0677C108.008 30.0677 107.848 30.0297 107.702 29.9527L100 25.9037L92.2992 29.9517C91.9632 30.1297 91.5542 30.1007 91.2462 29.8757C90.9382 29.6517 90.7842 29.2727 90.8482 28.8977L92.3192 20.3217L86.0892 14.2507C85.8172 13.9847 85.7182 13.5867 85.8362 13.2257C85.9542 12.8647 86.2672 12.5997 86.6442 12.5447L95.2532 11.2947L99.1032 3.49272C99.4402 2.80972 100.56 2.80972 100.897 3.49272L104.747 11.2947L113.356 12.5447C113.733 12.5997 114.046 12.8637 114.164 13.2257C114.282 13.5877 114.183 13.9837 113.911 14.2507Z" fill="#FFC400"/>
<path d="M155.911 14.2507L149.682 20.3227L151.153 28.8987C151.217 29.2737 151.063 29.6527 150.755 29.8767C150.581 30.0037 150.374 30.0677 150.167 30.0677C150.008 30.0677 149.848 30.0297 149.702 29.9527L142 25.9037L134.299 29.9517C133.963 30.1297 133.554 30.1007 133.246 29.8757C132.938 29.6517 132.784 29.2727 132.848 28.8977L134.319 20.3217L128.089 14.2507C127.817 13.9847 127.718 13.5867 127.836 13.2257C127.954 12.8647 128.267 12.5997 128.644 12.5447L137.253 11.2947L141.103 3.49272C141.44 2.80972 142.56 2.80972 142.897 3.49272L146.747 11.2947L155.356 12.5447C155.733 12.5997 156.046 12.8637 156.164 13.2257C156.282 13.5877 156.183 13.9837 155.911 14.2507Z" fill="#FFC400"/>
<path d="M197.911 14.2507L191.682 20.3227L193.153 28.8987C193.217 29.2737 193.063 29.6527 192.755 29.8767C192.581 30.0037 192.374 30.0677 192.167 30.0677C192.008 30.0677 191.848 30.0297 191.702 29.9527L184 25.9037L176.299 29.9517C175.963 30.1297 175.554 30.1007 175.246 29.8757C174.938 29.6517 174.784 29.2727 174.848 28.8977L176.319 20.3217L170.089 14.2507C169.817 13.9847 169.718 13.5867 169.836 13.2257C169.954 12.8647 170.267 12.5997 170.644 12.5447L179.253 11.2947L183.103 3.49272C183.44 2.80972 184.56 2.80972 184.897 3.49272L188.747 11.2947L197.356 12.5447C197.733 12.5997 198.046 12.8637 198.164 13.2257C198.282 13.5877 198.183 13.9837 197.911 14.2507Z" fill="#FFC400"/>
</svg>
