<svg width="31" height="31" viewBox="0 0 31 31" fill="none" xmlns="http://www.w3.org/2000/svg">
<path d="M14.5165 1.33842C14.7177 0.246648 16.2823 0.246645 16.4835 1.33841L18.4087 11.789C18.4838 12.197 18.803 12.5162 19.211 12.5913L29.6616 14.5165C30.7534 14.7177 30.7534 16.2823 29.6616 16.4835L19.211 18.4087C18.803 18.4838 18.4838 18.803 18.4087 19.211L16.4835 29.6616C16.2823 30.7534 14.7177 30.7534 14.5165 29.6616L12.5913 19.211C12.5162 18.803 12.197 18.4838 11.789 18.4087L1.33842 16.4835C0.246648 16.2823 0.246645 14.7177 1.33841 14.5165L11.789 12.5913C12.197 12.5162 12.5162 12.197 12.5913 11.789L14.5165 1.33842Z" fill="#2B8CFF"/>
</svg>
