<svg width="80" height="80" viewBox="0 0 80 80" fill="none" xmlns="http://www.w3.org/2000/svg">
<rect width="80" height="80" rx="40" fill="#2B8CFF"/>
<g clip-path="url(#clip0_1096_1412)">
<path fill-rule="evenodd" clip-rule="evenodd" d="M49.1553 56.7472L56.7449 49.1668C57.3885 48.524 57.3885 47.4712 56.7449 46.8284L55.4935 45.5805C54.85 44.9377 53.7979 44.9377 53.1543 45.5805L53.1205 45.6123L45.5966 53.1271L45.5647 53.1609C44.9211 53.8037 44.9211 54.8545 45.5647 55.4973L46.8161 56.7472C46.9436 56.8746 47.089 56.9781 47.2444 57.0556H48.7269C48.8823 56.9781 49.0258 56.8746 49.1553 56.7472Z" fill="white"/>
<path fill-rule="evenodd" clip-rule="evenodd" d="M45.598 53.1273L53.1218 45.6126L49.8301 42.3248C44.9006 39.5327 40.9096 45.933 42.0074 49.5411L45.598 53.1273Z" fill="white"/>
<path fill-rule="evenodd" clip-rule="evenodd" d="M31.1452 57.0558H32.6277C32.7831 56.9782 32.9266 56.8747 33.0561 56.7473L34.3074 55.4975C34.951 54.8547 34.951 53.8039 34.3074 53.1611L34.2736 53.1273L26.7497 45.6126L26.7178 45.5808C26.0742 44.9379 25.0201 44.9379 24.3766 45.5808L23.1273 46.8286C22.4836 47.4714 22.4836 48.5242 23.1273 49.167L30.7148 56.7474C30.8443 56.8747 30.9897 56.9782 31.1452 57.0558Z" fill="white"/>
<path fill-rule="evenodd" clip-rule="evenodd" d="M43.2264 48.918L47.8729 44.279L49.8297 42.3246L50.4454 41.7098C51.1247 41.0291 51.1247 39.9186 50.4454 39.24C49.766 38.5593 48.6521 38.5593 47.9726 39.24L48.5923 38.619C49.2737 37.9405 49.2737 36.828 48.5923 36.1493C47.9128 35.4687 46.799 35.4687 46.1195 36.1493L46.7392 35.5284C47.4207 34.8498 47.4207 33.7373 46.7392 33.0587C46.0598 32.38 44.946 32.38 44.2665 33.0587L44.8882 32.4398C45.5676 31.7591 45.5676 30.6486 44.8882 29.968C44.4757 29.558 43.9059 29.3949 43.3698 29.4824C43.0191 29.5382 42.6824 29.6993 42.4134 29.968L39.9367 32.4437L40.0164 32.5233L40.0303 32.5373C40.7098 33.2159 40.7098 34.3284 40.0303 35.007C39.3508 35.6876 38.237 35.6876 37.5575 35.007C38.237 35.6876 38.237 36.7981 37.5575 37.4787C36.8761 38.1574 35.7643 38.1574 35.0828 37.4787C35.7643 38.1574 35.7643 39.2699 35.0828 39.9485C34.4034 40.6271 33.2915 40.6271 32.6101 39.9485C33.2915 40.6271 33.2915 41.7396 32.6101 42.4182C31.9306 43.0989 30.8168 43.0989 30.1373 42.4182L30.0436 42.3246L26.75 45.6124L34.2738 53.1271L37.418 49.9867C38.3087 49.0653 40.3948 49.8713 42.0068 49.5409C42.4653 49.4474 42.8836 49.2603 43.2264 48.918Z" fill="white"/>
<path fill-rule="evenodd" clip-rule="evenodd" d="M37.5571 35.0071C38.2366 35.6877 39.3504 35.6877 40.0298 35.0071C40.7093 34.3284 40.7093 33.2159 40.0298 32.5373L40.0159 32.5233C38.9659 32.4478 36.9574 30.6268 36.8379 29.3491C36.1563 28.6685 35.0445 28.6685 34.3631 29.3491C33.6836 30.0277 33.6836 31.1402 34.3631 31.8188L34.9848 32.4397L37.5571 35.0071Z" fill="white"/>
<path fill-rule="evenodd" clip-rule="evenodd" d="M35.0834 37.4789C35.7649 38.1575 36.8767 38.1575 37.5581 37.4789C38.2376 36.7982 38.2376 35.6878 37.5581 35.0072L34.9858 32.4399C34.3043 31.7593 33.1925 31.7593 32.5131 32.4399C31.8316 33.1185 31.8316 34.229 32.5131 34.9096L33.1327 35.5286L35.0834 37.4789Z" fill="white"/>
<path fill-rule="evenodd" clip-rule="evenodd" d="M32.6102 39.9486C33.2916 40.6272 34.4035 40.6272 35.0829 39.9486C35.7644 39.2699 35.7644 38.1575 35.0829 37.4788L33.1322 35.5285C32.4528 34.8499 31.339 34.8499 30.6595 35.5285C29.9781 36.2091 29.9781 37.3196 30.6595 38.0002L31.9009 39.2401L32.6102 39.9486Z" fill="white"/>
<path fill-rule="evenodd" clip-rule="evenodd" d="M30.1369 42.4185C30.8164 43.0991 31.9302 43.0991 32.6097 42.4185C33.2911 41.7399 33.2911 40.6273 32.6097 39.9487L31.9004 39.2402C31.2189 38.5596 30.107 38.5596 29.4256 39.2402C28.7461 39.9189 28.7461 41.0293 29.4256 41.71L30.0433 42.3249L30.1369 42.4185Z" fill="white"/>
<path fill-rule="evenodd" clip-rule="evenodd" d="M39.9369 32.4438L42.4136 29.9681C42.6826 29.6995 43.0193 29.5383 43.3701 29.4825L38.5859 28.5771C37.6415 28.3979 36.7468 28.392 36.8385 29.3492C36.9581 30.6269 38.9665 32.4478 40.0166 32.5235L39.9369 32.4438Z" fill="white"/>
<path d="M39.9366 26.5745C40.3277 26.5745 40.6448 26.2575 40.6448 25.8664V22.7081C40.6448 22.317 40.3277 22 39.9366 22C39.5456 22 39.2285 22.317 39.2285 22.7081V25.8664C39.2286 26.2575 39.5456 26.5745 39.9366 26.5745Z" fill="#2B8CFF"/>
<path d="M57.2459 46.327L55.995 45.0796C55.55 44.6352 54.9569 44.3903 54.3249 44.3903C53.9208 44.3903 53.5329 44.4909 53.1891 44.6793L50.8318 42.3248L50.9467 42.2101C51.903 41.2519 51.9026 39.6948 50.9466 38.7398C50.6049 38.3975 50.1786 38.1693 49.7139 38.0733C49.7779 37.8524 49.8116 37.6211 49.8116 37.3843C49.8116 36.7266 49.5561 36.1098 49.0936 35.6492C48.7519 35.3069 48.3256 35.0786 47.8609 34.9826C47.9249 34.7617 47.9586 34.5305 47.9586 34.2937C47.9586 33.6358 47.7031 33.0191 47.2398 32.5578C46.8899 32.2083 46.4598 31.9871 46.0082 31.893C46.2498 31.06 46.0434 30.1228 45.388 29.4664C44.8426 28.9232 44.1024 28.6898 43.3891 28.7654L38.7178 27.8812C38.0054 27.7461 37.1158 27.6567 36.5543 28.169C36.5188 28.2013 36.4827 28.2385 36.447 28.2799C35.5763 27.9625 34.5608 28.1515 33.8634 28.848C33.4008 29.3101 33.146 29.9266 33.146 30.584C33.146 30.8208 33.1795 31.0521 33.2435 31.273C32.7793 31.369 32.3535 31.5969 32.013 31.9381C31.5495 32.3997 31.2939 33.0155 31.2934 33.6721C31.2932 33.9095 31.3269 34.1415 31.3911 34.363C30.9267 34.4588 30.5007 34.6863 30.1591 35.0275C29.6956 35.4905 29.4404 36.1073 29.4404 36.7644C29.4404 37.2678 29.5906 37.7471 29.8691 38.1521C29.5175 38.2713 29.1955 38.4697 28.9258 38.739C27.9689 39.6948 27.9685 41.2519 28.9265 42.2116L29.0409 42.3255L26.6833 44.6788C25.8071 44.2662 24.7276 44.4208 24.0046 45.1429L22.7529 46.3911C22.3077 46.8357 22.0626 47.4289 22.0625 48.0612C22.0625 48.6936 22.3077 49.2868 22.7529 49.7316L24.315 51.2918C24.5917 51.5682 25.0401 51.5679 25.3164 51.2912C25.5928 51.0146 25.5925 50.5662 25.3159 50.2898L23.7537 48.7296C23.5764 48.5525 23.4787 48.3151 23.4787 48.0613C23.4787 47.8075 23.5764 47.5702 23.7533 47.3935L25.0051 46.1453C25.3178 45.8328 25.7965 45.7863 26.16 46.0037C26.1856 46.0421 26.2152 46.0788 26.2491 46.1126C26.3097 46.1735 26.379 46.2201 26.4526 46.2542L33.631 53.4221C33.6651 53.4964 33.7119 53.5663 33.773 53.6275C33.8325 53.6871 33.9004 53.7331 33.9724 53.767C34.1242 53.9386 34.2081 54.1579 34.2081 54.3917C34.2081 54.6456 34.1104 54.8829 33.9331 55.06L32.6826 56.309C32.3131 56.6769 31.712 56.6768 31.3437 56.3101L29.7815 54.7479C29.5049 54.4713 29.0566 54.4713 28.7801 54.7478C28.5035 55.0243 28.5035 55.4726 28.78 55.7492L30.3433 57.3126C30.8035 57.7707 31.4077 57.9998 32.0122 57.9998C32.6169 57.9998 33.2219 57.7705 33.6826 57.3118L34.9338 56.062C35.3791 55.6173 35.6242 55.0241 35.6242 54.3917C35.6242 53.9403 35.4987 53.5093 35.2653 53.1376L37.9186 50.4876C37.9214 50.4847 37.9243 50.4818 37.9271 50.479C38.2309 50.1649 39.077 50.2237 39.8952 50.2805C40.4766 50.3208 41.1247 50.3658 41.7579 50.2929L44.6635 53.195C44.4753 53.5382 44.3748 53.9256 44.3748 54.3291C44.3748 54.9608 44.62 55.5536 45.0652 55.9984L46.3166 57.2482C46.7615 57.6926 47.3546 57.9374 47.9866 57.9374C48.6185 57.9374 49.2116 57.6926 49.6566 57.2482L57.2462 49.6678C57.6914 49.2231 57.9366 48.63 57.9366 47.9976C57.9367 47.3653 57.6915 46.7721 57.2459 46.327ZM38.4542 29.2727L41.5259 29.8541L39.6873 31.692C39.4029 31.5554 39.0131 31.3004 38.5854 30.8913C38.0001 30.3314 37.5813 29.6848 37.5433 29.2816C37.5432 29.2814 37.5432 29.2812 37.5432 29.281C37.5432 29.2809 37.5432 29.2808 37.5432 29.2807C37.5405 29.2518 37.5398 29.2286 37.5401 29.211C37.6326 29.1885 37.8787 29.1635 38.4542 29.2727ZM34.8642 29.8501C35.2229 29.4917 35.7802 29.4503 36.1855 29.7248C36.4153 30.688 37.2369 31.5609 37.6065 31.9146C37.8804 32.1767 38.7594 32.9626 39.6466 33.1786C39.7666 33.3506 39.8319 33.5557 39.8319 33.7722C39.8319 34.051 39.7247 34.3116 39.5293 34.5068C39.3345 34.702 39.0734 34.8094 38.7941 34.8094C38.5148 34.8094 38.2537 34.702 38.058 34.5059L38.0579 34.5058L38.0575 34.5055L34.8641 31.3178C34.6694 31.1234 34.5622 30.8627 34.5622 30.584C34.5622 30.3052 34.6695 30.0446 34.8642 29.8501ZM33.0138 32.9401C33.2086 32.745 33.4694 32.6375 33.7483 32.6375C34.0275 32.6375 34.2891 32.7452 34.4852 32.9411L37.0567 35.5074C37.4616 35.913 37.4616 36.5729 37.0581 36.9771C36.8622 37.1722 36.6002 37.2796 36.3205 37.2796C36.0407 37.2796 35.7787 37.1722 35.5837 36.9779L35.5836 36.9779L33.6328 35.0275C33.6298 35.0244 33.6264 35.0216 33.6234 35.0185L33.013 34.4085C32.8172 34.2129 32.7094 33.9517 32.7096 33.6732C32.7099 33.3955 32.8174 33.1357 33.0138 32.9401ZM31.16 36.0295C31.3549 35.8348 31.6163 35.7276 31.896 35.7276C32.1734 35.7276 32.4325 35.8332 32.6266 36.0246L34.5834 37.9804C34.7785 38.1748 34.886 38.4352 34.886 38.7136C34.886 38.992 34.7785 39.2523 34.5826 39.4474C34.3877 39.6421 34.1266 39.7493 33.8474 39.7493C33.5678 39.7493 33.3059 39.6418 33.1107 39.4474L32.4013 38.7389C32.4012 38.7387 32.401 38.7386 32.4008 38.7384L31.16 37.4991C30.9644 37.3037 30.8567 37.0427 30.8567 36.7642C30.8567 36.4859 30.9644 36.2248 31.16 36.0295ZM29.9267 39.7411C30.1225 39.5455 30.3842 39.4377 30.6635 39.4377C30.9428 39.4377 31.2044 39.5454 31.4002 39.7409L32.1106 40.4504C32.3057 40.6447 32.4132 40.9051 32.4132 41.1835C32.4132 41.462 32.3057 41.7223 32.1091 41.9182C31.9143 42.1133 31.6532 42.2208 31.3739 42.2208C31.0946 42.2208 30.8335 42.1133 30.6372 41.9167L30.5483 41.8282C30.5471 41.827 30.5462 41.8257 30.5451 41.8246C30.5437 41.8233 30.5423 41.8222 30.541 41.8209L29.9274 41.2097C29.5224 40.8038 29.5221 40.1451 29.9267 39.7411ZM44.3572 47.7888C44.0808 47.5121 43.6324 47.5119 43.3558 47.7882L42.7258 48.4173C42.1272 49.016 41.0424 48.9406 39.9934 48.8678C38.8542 48.7887 37.6763 48.707 36.914 49.4895L34.3058 52.0946L27.7834 45.5818L30.0916 43.2777C30.4731 43.5116 30.9134 43.6369 31.374 43.6369C32.032 43.6369 32.6491 43.3818 33.11 42.9201C33.574 42.458 33.8296 41.8413 33.8296 41.1835C33.8296 41.1773 33.8292 41.1713 33.8292 41.1652C33.8353 41.1652 33.8414 41.1656 33.8475 41.1656C34.5046 41.1656 35.1212 40.9113 35.5828 40.4503C36.0467 39.9882 36.3023 39.3714 36.3023 38.7137C36.3023 38.7075 36.3019 38.7015 36.3019 38.6954C36.3081 38.6954 36.3143 38.6958 36.3205 38.6958C36.9775 38.6958 37.5944 38.4418 38.059 37.979C38.5414 37.4959 38.7799 36.8599 38.7754 36.2252C38.7817 36.2252 38.788 36.2256 38.7943 36.2256C39.4524 36.2256 40.0694 35.9705 40.531 35.508C40.9936 35.046 41.2484 34.4295 41.2484 33.7721C41.2484 33.3124 41.1234 32.8729 40.8903 32.4921L42.9134 30.4698C43.0641 30.3197 43.25 30.2255 43.4449 30.1866C43.466 30.1843 43.4868 30.181 43.5074 30.1769C43.82 30.1338 44.1483 30.2302 44.3874 30.4683C44.7923 30.874 44.7923 31.5339 44.3888 31.9381L43.7727 32.5517C43.7706 32.5537 43.7685 32.5556 43.7664 32.5577L43.0568 33.2661C42.7801 33.5425 42.7798 33.9908 43.0562 34.2675C43.3327 34.5443 43.781 34.5445 44.0576 34.2682L44.6762 33.6504C44.6763 33.6502 44.6765 33.6501 44.6766 33.65L44.7701 33.5568C45.1762 33.1545 45.834 33.1553 46.2397 33.5604C46.4349 33.7547 46.5424 34.0151 46.5424 34.2935C46.5424 34.5719 46.4349 34.8323 46.2381 35.0282L45.6185 35.6491C45.6184 35.6492 45.6183 35.6492 45.6182 35.6494L44.9086 36.3561C44.6315 36.6321 44.6306 37.0804 44.9066 37.3575C45.1826 37.6346 45.6309 37.6354 45.908 37.3595L46.6208 36.6496C46.8157 36.4544 47.0767 36.3469 47.356 36.3469C47.6354 36.3469 47.8965 36.4544 48.0927 36.651C48.2879 36.8454 48.3954 37.1058 48.3954 37.3841C48.3954 37.6625 48.2879 37.9229 48.0916 38.1183L46.8562 39.3542C46.5798 39.6308 46.5798 40.0791 46.8564 40.3556C46.9947 40.4938 47.1758 40.5629 47.357 40.5629C47.5383 40.5629 47.7195 40.4937 47.8578 40.3554L48.4632 39.7497C48.4667 39.7464 48.4704 39.7435 48.4738 39.7401C48.6687 39.5449 48.9297 39.4375 49.209 39.4375C49.4883 39.4375 49.7495 39.5449 49.945 39.7408C50.3495 40.1449 50.3491 40.8037 49.9451 41.2086L49.3295 41.8234C49.3293 41.8237 49.329 41.8239 49.3288 41.8241C49.3286 41.8243 49.3284 41.8246 49.3281 41.8248L48.3511 42.8006C48.0744 43.077 48.0741 43.5254 48.3504 43.8021C48.4887 43.9406 48.6702 44.0098 48.8515 44.0098C49.0326 44.0098 49.2137 43.9408 49.3519 43.8027L49.8298 43.3254L52.1204 45.6133L45.5986 52.1272L43.2618 49.7932C43.4247 49.6885 43.5806 49.5653 43.7269 49.419L44.3566 48.7901C44.6333 48.5139 44.6336 48.0655 44.3572 47.7888ZM56.2455 48.6658L48.6559 56.2462C48.4783 56.4235 48.2407 56.5211 47.9867 56.5211C47.7327 56.5211 47.4951 56.4235 47.3175 56.2461L46.0661 54.9963C45.8888 54.8192 45.7911 54.5823 45.7911 54.3291C45.7911 54.076 45.8888 53.839 46.0661 53.6619L53.6557 46.0815C53.8333 45.9041 54.071 45.8064 54.325 45.8064C54.5789 45.8064 54.8166 45.9041 54.9946 46.0819L56.2455 47.3293C56.4228 47.5064 56.5205 47.7437 56.5205 47.9975C56.5205 48.2514 56.4228 48.4887 56.2455 48.6658Z" fill="#2B8CFF"/>
<path d="M30.5343 25.9775C30.6726 26.1154 30.8535 26.1843 31.0345 26.1843C31.2159 26.1843 31.3974 26.115 31.5357 25.9764C31.812 25.6996 31.8115 25.2513 31.5347 24.975L28.9544 22.3998C28.6776 22.1235 28.2293 22.1239 27.953 22.4008C27.6767 22.6776 27.6772 23.126 27.954 23.4022L30.5343 25.9775Z" fill="#2B8CFF"/>
<path d="M48.839 26.1846C49.02 26.1846 49.2011 26.1155 49.3394 25.9775L51.9177 23.4022C52.1944 23.1259 52.1947 22.6775 51.9183 22.4008C51.642 22.1241 51.1937 22.1239 50.9169 22.4003L48.3385 24.9755C48.0619 25.2519 48.0616 25.7002 48.338 25.9769C48.4763 26.1153 48.6576 26.1846 48.839 26.1846Z" fill="#2B8CFF"/>
<path d="M26.416 52.4597C26.1419 52.7386 26.1457 53.187 26.4246 53.4611L26.4266 53.4631C26.5643 53.5984 26.7429 53.6657 26.9215 53.6657C27.1048 53.6657 27.2881 53.5948 27.427 53.4535C27.7011 53.1747 27.6963 52.7253 27.4174 52.4512C27.1386 52.177 26.6903 52.1809 26.416 52.4597Z" fill="#2B8CFF"/>
<path d="M46.0888 46.7688C46.1965 46.7688 46.3058 46.7443 46.4084 46.6926C46.7576 46.5164 46.8978 46.0906 46.7218 45.7415C46.5456 45.3923 46.1198 45.2519 45.7707 45.4281L45.7667 45.43C45.4175 45.6062 45.2792 46.031 45.4553 46.3802C45.5796 46.6268 45.8296 46.7688 46.0888 46.7688Z" fill="#2B8CFF"/>
</g>
<defs>
<clipPath id="clip0_1096_1412">
<rect width="36" height="36" fill="white" transform="translate(22 22)"/>
</clipPath>
</defs>
</svg>
