<svg width="88" height="89" viewBox="0 0 88 89" fill="none" xmlns="http://www.w3.org/2000/svg">
<path fill-rule="evenodd" clip-rule="evenodd" d="M13.136 32.1964C13.136 37.0401 15.0817 41.6041 18.4738 44.72C18.6522 44.8847 18.7672 45.106 18.7981 45.348C19.1138 47.7964 19.33 50.4593 19.5582 53.2801C19.7504 55.6599 19.9494 58.0911 20.2153 60.519C20.2874 60.1535 20.3406 59.7812 20.3698 59.3968C20.4092 58.8598 20.857 58.4429 21.3958 58.4429C21.9363 58.4429 22.3841 58.8598 22.4236 59.3968C22.7942 64.4018 27.027 67.8557 30.6714 67.9175C30.7434 67.9157 30.8138 67.9157 30.8841 67.9175C31.4469 67.926 31.8982 68.3842 31.8982 68.9469C31.8982 69.5097 31.4469 69.9678 30.8841 69.9764C30.8138 69.9781 30.7434 69.9781 30.6714 69.9764C27.9673 70.021 24.9406 71.9359 23.4067 74.9659C24.7793 78.3066 26.55 80.8339 28.8097 82.6767C29.3674 83.1314 30.0074 83.291 30.7125 83.1537C31.4194 83.0147 31.9513 82.6252 32.2979 81.9955C34.012 78.8625 35.0157 75.2405 35.1993 71.5172C35.3795 67.8677 36.0658 64.7638 37.4247 61.4558C38.3753 59.1463 40.5149 57.7119 43.0113 57.7119C45.5095 57.7119 47.6491 59.1463 48.5979 61.4558C49.9586 64.7638 50.6449 67.8677 50.825 71.5172C51.0086 75.2405 52.0124 78.8625 53.7264 81.9955C54.073 82.6252 54.6049 83.0147 55.3118 83.1537C56.017 83.291 56.657 83.1314 57.2146 82.6767C64.572 76.6783 65.5791 64.2474 66.4662 53.2801C66.6944 50.461 66.9106 47.7964 67.2263 45.348C67.2572 45.106 67.3721 44.8847 67.5506 44.72C70.9427 41.6041 72.8884 37.0401 72.8884 32.1964V31.8773C72.8884 29.7806 72.4354 27.7045 71.5724 25.8051C69.613 27.7594 68.1786 30.4669 67.9435 33.6548C67.9023 34.1919 67.4562 34.6088 66.9157 34.6088C66.377 34.6088 65.9292 34.1919 65.8897 33.6548C65.4024 27.0782 59.8261 22.54 55.0236 22.461C54.9344 22.4627 54.8451 22.4627 54.7559 22.461C54.1931 22.4524 53.7419 21.9943 53.7419 21.4316C53.7419 20.8688 54.1931 20.4107 54.7559 20.4021H55.0236C57.2867 20.366 59.7197 19.3383 61.7135 17.5745C60.6531 17.3102 59.5653 17.1609 58.462 17.1369C55.7545 17.185 53.1139 17.7151 50.6123 18.712C45.5696 20.7246 40.4548 20.7246 35.4104 18.712C32.9088 17.7151 30.2699 17.185 27.5624 17.1369C19.6062 17.3068 13.136 23.9143 13.136 31.8773V32.1964ZM74.2181 66.5826C74.6299 67.1865 75.1395 67.6978 75.7023 68.1011C75.1395 68.5025 74.6299 69.0139 74.2181 69.6178C73.8064 69.0139 73.2968 68.5025 72.734 68.1011C73.2968 67.6978 73.8081 67.1865 74.2181 66.5826ZM69.6593 67.0716C69.6936 67.0699 69.7279 67.0699 69.7622 67.0716C71.1091 67.0424 73.0274 65.6938 73.1921 63.4804C73.2316 62.9434 73.6794 62.5265 74.2181 62.5265C74.7569 62.5265 75.2047 62.9434 75.2442 63.4804C75.4089 65.6938 77.3272 67.0424 78.674 67.0716C78.7084 67.0699 78.7427 67.0699 78.777 67.0716C79.3398 67.0802 79.791 67.5383 79.791 68.1011C79.791 68.6638 79.3398 69.1219 78.777 69.1305C78.7427 69.1305 78.7084 69.1305 78.674 69.1305C77.3272 69.158 75.4089 70.5066 75.2442 72.72C75.2047 73.2587 74.7569 73.6739 74.2181 73.6739C73.6794 73.6739 73.2316 73.2587 73.1921 72.72C73.0274 70.5066 71.1091 69.158 69.7622 69.1305C69.7279 69.1305 69.6936 69.1305 69.6593 69.1305C69.0965 69.1219 68.6452 68.6638 68.6452 68.1011C68.647 67.5383 69.0982 67.0802 69.6593 67.0716ZM24.0604 67.1368C24.8634 67.8763 25.7453 68.4854 26.665 68.9469C25.7453 69.4085 24.8634 70.0176 24.0604 70.7571C22.9263 71.8003 22.0272 73.0374 21.3958 74.3946C20.7661 73.0374 19.8653 71.8003 18.7312 70.7571C17.9282 70.0176 17.048 69.4085 16.1283 68.9469C17.048 68.4854 17.9282 67.8763 18.7312 67.1368C19.8653 66.0936 20.7661 64.8565 21.3958 63.4993C22.0272 64.8565 22.9246 66.0936 24.0604 67.1368ZM18.038 9.16193C18.6008 9.15335 19.052 8.69524 19.052 8.13246C19.052 7.56968 18.6008 7.11156 18.038 7.10298C18.0037 7.10298 17.9694 7.10298 17.935 7.10298C16.5882 7.07382 14.6699 5.72692 14.5052 3.51183C14.4657 2.97479 14.0179 2.55957 13.4791 2.55957C12.9404 2.55957 12.4926 2.97479 12.4531 3.51183C12.2884 5.72692 10.3701 7.07553 9.02323 7.10298C8.98891 7.10298 8.9546 7.10298 8.92028 7.10298C8.3575 7.11156 7.90625 7.56968 7.90625 8.13246C7.90625 8.69524 8.3575 9.15335 8.92028 9.16193H9.02323C10.3701 9.1911 12.2884 10.5397 12.4531 12.7531C12.4926 13.2901 12.9404 13.7071 13.4791 13.7071C14.0179 13.7071 14.4657 13.2901 14.5052 12.7531C14.6699 10.5397 16.5882 9.1911 17.935 9.16193C17.9694 9.16365 18.0054 9.16193 18.038 9.16193ZM13.4809 6.6157C13.8926 7.21794 14.4022 7.73096 14.965 8.13246C14.4022 8.53567 13.8926 9.04698 13.4809 9.65093C13.0691 9.04698 12.5595 8.53567 11.9967 8.13246C12.5578 7.73096 13.0691 7.21794 13.4809 6.6157ZM63.304 23.9658C62.1355 22.8917 60.8367 22.0355 59.4846 21.4316C60.8367 20.8293 62.1355 19.9731 63.304 18.8973C64.8945 17.432 66.1196 15.6648 66.9157 13.7225C67.7136 15.6648 68.9369 17.432 70.5292 18.8973C71.6976 19.9731 72.9965 20.8293 74.3485 21.4316C72.9965 22.0355 71.6976 22.8917 70.5292 23.9658C68.9369 25.4311 67.7136 27.1983 66.9157 29.1423C66.1196 27.1983 64.8945 25.4311 63.304 23.9658Z" fill="white"/>
</svg>
