<svg width="26" height="28" viewBox="0 0 26 28" fill="none" xmlns="http://www.w3.org/2000/svg">
<path fill-rule="evenodd" clip-rule="evenodd" d="M2.48516 10.5247C2.48516 12.1788 3.14961 13.7374 4.30801 14.8015C4.36895 14.8577 4.4082 14.9333 4.41875 15.0159C4.52656 15.852 4.60039 16.7614 4.67832 17.7247C4.74395 18.5374 4.81191 19.3677 4.90273 20.1968C4.92734 20.072 4.94551 19.9448 4.95547 19.8136C4.96895 19.6302 5.12187 19.4878 5.30586 19.4878C5.49043 19.4878 5.64336 19.6302 5.65684 19.8136C5.7834 21.5228 7.22891 22.7022 8.47344 22.7233C8.49805 22.7228 8.52207 22.7228 8.54609 22.7233C8.73828 22.7263 8.89238 22.8827 8.89238 23.0749C8.89238 23.2671 8.73828 23.4235 8.54609 23.4265C8.52207 23.427 8.49805 23.427 8.47344 23.4265C7.55 23.4417 6.51641 24.0956 5.99258 25.1304C6.46133 26.2712 7.06602 27.1343 7.8377 27.7636C8.02813 27.9188 8.24668 27.9733 8.4875 27.9265C8.72891 27.879 8.91055 27.746 9.02891 27.531C9.61426 26.461 9.95703 25.2241 10.0197 23.9526C10.0813 22.7063 10.3156 21.6464 10.7797 20.5167C11.1043 19.728 11.835 19.2382 12.6875 19.2382C13.5406 19.2382 14.2713 19.728 14.5953 20.5167C15.06 21.6464 15.2943 22.7063 15.3559 23.9526C15.4186 25.2241 15.7613 26.461 16.3467 27.531C16.465 27.746 16.6467 27.879 16.8881 27.9265C17.1289 27.9733 17.3475 27.9188 17.5379 27.7636C20.0504 25.7151 20.3943 21.47 20.6973 17.7247C20.7752 16.762 20.849 15.852 20.9568 15.0159C20.9674 14.9333 21.0066 14.8577 21.0676 14.8015C22.226 13.7374 22.8904 12.1788 22.8904 10.5247V10.4157C22.8904 9.69971 22.7357 8.99072 22.441 8.34209C21.7719 9.00947 21.282 9.93408 21.2018 11.0228C21.1877 11.2062 21.0354 11.3485 20.8508 11.3485C20.6668 11.3485 20.5139 11.2062 20.5004 11.0228C20.334 8.77686 18.4297 7.22705 16.7896 7.2001C16.7592 7.20068 16.7287 7.20068 16.6982 7.2001C16.5061 7.19717 16.352 7.04072 16.352 6.84854C16.352 6.65635 16.5061 6.4999 16.6982 6.49697H16.7896C17.5625 6.48467 18.3934 6.13369 19.0742 5.53135C18.7121 5.44111 18.3406 5.39014 17.9639 5.38193C17.0393 5.39834 16.1375 5.57939 15.2832 5.91982C13.5611 6.60713 11.8145 6.60713 10.0918 5.91982C9.2375 5.57939 8.33633 5.39834 7.41172 5.38193C4.69473 5.43994 2.48516 7.69639 2.48516 10.4157V10.5247ZM23.3445 22.2675C23.4852 22.4737 23.6592 22.6483 23.8514 22.786C23.6592 22.9231 23.4852 23.0978 23.3445 23.304C23.2039 23.0978 23.0299 22.9231 22.8377 22.786C23.0299 22.6483 23.2045 22.4737 23.3445 22.2675ZM21.7877 22.4345C21.7994 22.4339 21.8111 22.4339 21.8229 22.4345C22.2828 22.4245 22.9379 21.964 22.9941 21.2081C23.0076 21.0247 23.1605 20.8823 23.3445 20.8823C23.5285 20.8823 23.6814 21.0247 23.6949 21.2081C23.7512 21.964 24.4063 22.4245 24.8662 22.4345C24.8779 22.4339 24.8897 22.4339 24.9014 22.4345C25.0936 22.4374 25.2477 22.5938 25.2477 22.786C25.2477 22.9782 25.0936 23.1347 24.9014 23.1376C24.8897 23.1376 24.8779 23.1376 24.8662 23.1376C24.4063 23.147 23.7512 23.6075 23.6949 24.3634C23.6814 24.5474 23.5285 24.6892 23.3445 24.6892C23.1605 24.6892 23.0076 24.5474 22.9941 24.3634C22.9379 23.6075 22.2828 23.147 21.8229 23.1376C21.8111 23.1376 21.7994 23.1376 21.7877 23.1376C21.5955 23.1347 21.4414 22.9782 21.4414 22.786C21.442 22.5938 21.5961 22.4374 21.7877 22.4345ZM6.21582 22.4567C6.49004 22.7093 6.79121 22.9173 7.10527 23.0749C6.79121 23.2325 6.49004 23.4405 6.21582 23.6931C5.82852 24.0493 5.52148 24.4718 5.30586 24.9353C5.09082 24.4718 4.7832 24.0493 4.3959 23.6931C4.12168 23.4405 3.82109 23.2325 3.50703 23.0749C3.82109 22.9173 4.12168 22.7093 4.3959 22.4567C4.7832 22.1005 5.09082 21.678 5.30586 21.2146C5.52148 21.678 5.82793 22.1005 6.21582 22.4567ZM4.15918 2.6585C4.35137 2.65557 4.50547 2.49912 4.50547 2.30693C4.50547 2.11475 4.35137 1.9583 4.15918 1.95537C4.14746 1.95537 4.13574 1.95537 4.12402 1.95537C3.66406 1.94541 3.00898 1.48545 2.95273 0.729004C2.93926 0.545605 2.78633 0.403809 2.60234 0.403809C2.41836 0.403809 2.26543 0.545605 2.25195 0.729004C2.1957 1.48545 1.54062 1.946 1.08066 1.95537C1.06895 1.95537 1.05723 1.95537 1.04551 1.95537C0.85332 1.9583 0.699219 2.11475 0.699219 2.30693C0.699219 2.49912 0.85332 2.65557 1.04551 2.6585H1.08066C1.54062 2.66846 2.1957 3.129 2.25195 3.88486C2.26543 4.06826 2.41836 4.21064 2.60234 4.21064C2.78633 4.21064 2.93926 4.06826 2.95273 3.88486C3.00898 3.129 3.66406 2.66846 4.12402 2.6585C4.13574 2.65908 4.14805 2.6585 4.15918 2.6585ZM2.60293 1.78896C2.74355 1.99463 2.91758 2.16982 3.10977 2.30693C2.91758 2.44463 2.74355 2.61924 2.60293 2.82549C2.4623 2.61924 2.28828 2.44463 2.09609 2.30693C2.2877 2.16982 2.4623 1.99463 2.60293 1.78896ZM19.6174 7.71397C19.2184 7.34717 18.7748 7.05479 18.3131 6.84854C18.7748 6.64287 19.2184 6.35049 19.6174 5.98311C20.1605 5.48272 20.5789 4.8792 20.8508 4.21592C21.1232 4.8792 21.541 5.48272 22.0848 5.98311C22.4838 6.35049 22.9273 6.64287 23.3891 6.84854C22.9273 7.05479 22.4838 7.34717 22.0848 7.71397C21.541 8.21436 21.1232 8.81787 20.8508 9.48174C20.5789 8.81787 20.1605 8.21436 19.6174 7.71397Z" fill="#2B8CFF"/>
</svg>
