<svg width="73" height="82" viewBox="0 0 73 82" fill="none" xmlns="http://www.w3.org/2000/svg">
<path fill-rule="evenodd" clip-rule="evenodd" d="M6.13598 30.1964C6.13598 35.0401 8.08169 39.6041 11.4738 42.72C11.6522 42.8847 11.7672 43.106 11.7981 43.348C12.1138 45.7964 12.33 48.4593 12.5582 51.2801C12.7504 53.6599 12.9494 56.0911 13.2153 58.519C13.2874 58.1535 13.3406 57.7812 13.3698 57.3968C13.4092 56.8598 13.857 56.4429 14.3958 56.4429C14.9363 56.4429 15.3841 56.8598 15.4236 57.3968C15.7942 62.4018 20.027 65.8557 23.6714 65.9175C23.7434 65.9157 23.8138 65.9157 23.8841 65.9175C24.4469 65.926 24.8982 66.3842 24.8982 66.9469C24.8982 67.5097 24.4469 67.9678 23.8841 67.9764C23.8138 67.9781 23.7434 67.9781 23.6714 67.9764C20.9673 68.021 17.9406 69.9359 16.4067 72.9659C17.7793 76.3066 19.55 78.8339 21.8097 80.6767C22.3674 81.1314 23.0074 81.291 23.7125 81.1537C24.4194 81.0147 24.9513 80.6252 25.2979 79.9955C27.012 76.8625 28.0157 73.2405 28.1993 69.5172C28.3795 65.8677 29.0658 62.7638 30.4247 59.4558C31.3753 57.1463 33.5149 55.7119 36.0113 55.7119C38.5095 55.7119 40.6491 57.1463 41.5979 59.4558C42.9586 62.7638 43.6449 65.8677 43.825 69.5172C44.0086 73.2405 45.0124 76.8625 46.7264 79.9955C47.073 80.6252 47.6049 81.0147 48.3118 81.1537C49.017 81.291 49.657 81.1314 50.2146 80.6767C57.572 74.6783 58.5791 62.2474 59.4662 51.2801C59.6944 48.461 59.9106 45.7964 60.2263 43.348C60.2572 43.106 60.3721 42.8847 60.5506 42.72C63.9427 39.6041 65.8884 35.0401 65.8884 30.1964V29.8773C65.8884 27.7806 65.4354 25.7045 64.5724 23.8051C62.613 25.7594 61.1786 28.4669 60.9435 31.6548C60.9023 32.1919 60.4562 32.6088 59.9157 32.6088C59.377 32.6088 58.9292 32.1919 58.8897 31.6548C58.4024 25.0782 52.8261 20.54 48.0236 20.461C47.9344 20.4627 47.8451 20.4627 47.7559 20.461C47.1931 20.4524 46.7419 19.9943 46.7419 19.4316C46.7419 18.8688 47.1931 18.4107 47.7559 18.4021H48.0236C50.2867 18.366 52.7197 17.3383 54.7135 15.5745C53.6531 15.3102 52.5653 15.1609 51.462 15.1369C48.7545 15.185 46.1139 15.7151 43.6123 16.712C38.5696 18.7246 33.4548 18.7246 28.4104 16.712C25.9088 15.7151 23.2699 15.185 20.5624 15.1369C12.6062 15.3068 6.13598 21.9143 6.13598 29.8773V30.1964ZM67.2181 64.5826C67.6299 65.1865 68.1395 65.6978 68.7023 66.1011C68.1395 66.5025 67.6299 67.0139 67.2181 67.6178C66.8064 67.0139 66.2968 66.5025 65.734 66.1011C66.2968 65.6978 66.8081 65.1865 67.2181 64.5826ZM62.6593 65.0716C62.6936 65.0699 62.7279 65.0699 62.7622 65.0716C64.1091 65.0424 66.0274 63.6938 66.1921 61.4804C66.2316 60.9434 66.6794 60.5265 67.2181 60.5265C67.7569 60.5265 68.2047 60.9434 68.2442 61.4804C68.4089 63.6938 70.3272 65.0424 71.674 65.0716C71.7084 65.0699 71.7427 65.0699 71.777 65.0716C72.3398 65.0802 72.791 65.5383 72.791 66.1011C72.791 66.6638 72.3398 67.1219 71.777 67.1305C71.7427 67.1305 71.7084 67.1305 71.674 67.1305C70.3272 67.158 68.4089 68.5066 68.2442 70.72C68.2047 71.2587 67.7569 71.6739 67.2181 71.6739C66.6794 71.6739 66.2316 71.2587 66.1921 70.72C66.0274 68.5066 64.1091 67.158 62.7622 67.1305C62.7279 67.1305 62.6936 67.1305 62.6593 67.1305C62.0965 67.1219 61.6452 66.6638 61.6452 66.1011C61.647 65.5383 62.0982 65.0802 62.6593 65.0716ZM17.0604 65.1368C17.8634 65.8763 18.7453 66.4854 19.665 66.9469C18.7453 67.4085 17.8634 68.0176 17.0604 68.7571C15.9263 69.8003 15.0272 71.0374 14.3958 72.3946C13.7661 71.0374 12.8653 69.8003 11.7312 68.7571C10.9282 68.0176 10.048 67.4085 9.12832 66.9469C10.048 66.4854 10.9282 65.8763 11.7312 65.1368C12.8653 64.0936 13.7661 62.8565 14.3958 61.4993C15.0272 62.8565 15.9246 64.0936 17.0604 65.1368ZM11.038 7.16193C11.6008 7.15335 12.052 6.69524 12.052 6.13246C12.052 5.56968 11.6008 5.11156 11.038 5.10298C11.0037 5.10298 10.9694 5.10298 10.935 5.10298C9.58815 5.07382 7.6699 3.72692 7.50518 1.51183C7.46572 0.974792 7.0179 0.55957 6.47914 0.55957C5.94038 0.55957 5.49256 0.974792 5.4531 1.51183C5.28838 3.72692 3.37013 5.07553 2.02323 5.10298C1.98891 5.10298 1.9546 5.10298 1.92028 5.10298C1.3575 5.11156 0.90625 5.56968 0.90625 6.13246C0.90625 6.69524 1.3575 7.15335 1.92028 7.16193H2.02323C3.37013 7.1911 5.28838 8.53971 5.4531 10.7531C5.49256 11.2901 5.94038 11.7071 6.47914 11.7071C7.0179 11.7071 7.46572 11.2901 7.50518 10.7531C7.6699 8.53971 9.58815 7.1911 10.935 7.16193C10.9694 7.16365 11.0054 7.16193 11.038 7.16193ZM6.48085 4.6157C6.89264 5.21794 7.40224 5.73096 7.96501 6.13246C7.40224 6.53567 6.89264 7.04698 6.48085 7.65093C6.06907 7.04698 5.55947 6.53567 4.9967 6.13246C5.55776 5.73096 6.06907 5.21794 6.48085 4.6157ZM56.304 21.9658C55.1355 20.8917 53.8367 20.0355 52.4846 19.4316C53.8367 18.8293 55.1355 17.9731 56.304 16.8973C57.8945 15.432 59.1196 13.6648 59.9157 11.7225C60.7136 13.6648 61.9369 15.432 63.5292 16.8973C64.6976 17.9731 65.9965 18.8293 67.3485 19.4316C65.9965 20.0355 64.6976 20.8917 63.5292 21.9658C61.9369 23.4311 60.7136 25.1983 59.9157 27.1423C59.1196 25.1983 57.8945 23.4311 56.304 21.9658Z" fill="white"/>
</svg>
