<svg width="26" height="29" viewBox="0 0 26 29" fill="none" xmlns="http://www.w3.org/2000/svg">
<path fill-rule="evenodd" clip-rule="evenodd" d="M2.48516 10.7204C2.48516 12.3745 3.14961 13.9331 4.30801 14.9971C4.36895 15.0534 4.4082 15.129 4.41875 15.2116C4.52656 16.0477 4.60039 16.9571 4.67832 17.9204C4.74395 18.7331 4.81191 19.5634 4.90273 20.3925C4.92734 20.2677 4.94551 20.1405 4.95547 20.0093C4.96895 19.8259 5.12187 19.6835 5.30586 19.6835C5.49043 19.6835 5.64336 19.8259 5.65684 20.0093C5.7834 21.7184 7.22891 22.8979 8.47344 22.919C8.49805 22.9184 8.52207 22.9184 8.54609 22.919C8.73828 22.9219 8.89238 23.0784 8.89238 23.2706C8.89238 23.4628 8.73828 23.6192 8.54609 23.6221C8.52207 23.6227 8.49805 23.6227 8.47344 23.6221C7.55 23.6374 6.51641 24.2913 5.99258 25.326C6.46133 26.4669 7.06602 27.33 7.8377 27.9593C8.02813 28.1145 8.24668 28.169 8.4875 28.1221C8.72891 28.0747 8.91055 27.9417 9.02891 27.7266C9.61426 26.6567 9.95703 25.4198 10.0197 24.1483C10.0813 22.902 10.3156 21.8421 10.7797 20.7124C11.1043 19.9237 11.835 19.4339 12.6875 19.4339C13.5406 19.4339 14.2713 19.9237 14.5953 20.7124C15.06 21.8421 15.2943 22.902 15.3559 24.1483C15.4186 25.4198 15.7613 26.6567 16.3467 27.7266C16.465 27.9417 16.6467 28.0747 16.8881 28.1221C17.1289 28.169 17.3475 28.1145 17.5379 27.9593C20.0504 25.9108 20.3943 21.6657 20.6973 17.9204C20.7752 16.9577 20.849 16.0477 20.9568 15.2116C20.9674 15.129 21.0066 15.0534 21.0676 14.9971C22.226 13.9331 22.8904 12.3745 22.8904 10.7204V10.6114C22.8904 9.89539 22.7357 9.1864 22.441 8.53777C21.7719 9.20515 21.282 10.1298 21.2018 11.2184C21.1877 11.4018 21.0354 11.5442 20.8508 11.5442C20.6668 11.5442 20.5139 11.4018 20.5004 11.2184C20.334 8.97254 18.4297 7.42273 16.7896 7.39578C16.7592 7.39636 16.7287 7.39636 16.6982 7.39578C16.5061 7.39285 16.352 7.2364 16.352 7.04421C16.352 6.85203 16.5061 6.69558 16.6982 6.69265H16.7896C17.5625 6.68035 18.3934 6.32937 19.0742 5.72703C18.7121 5.63679 18.3406 5.58582 17.9639 5.57761C17.0393 5.59402 16.1375 5.77507 15.2832 6.1155C13.5611 6.80281 11.8145 6.80281 10.0918 6.1155C9.2375 5.77507 8.33633 5.59402 7.41172 5.57761C4.69473 5.63562 2.48516 7.89207 2.48516 10.6114V10.7204ZM23.3445 22.4632C23.4852 22.6694 23.6592 22.844 23.8514 22.9817C23.6592 23.1188 23.4852 23.2934 23.3445 23.4997C23.2039 23.2934 23.0299 23.1188 22.8377 22.9817C23.0299 22.844 23.2045 22.6694 23.3445 22.4632ZM21.7877 22.6301C21.7994 22.6296 21.8111 22.6296 21.8229 22.6301C22.2828 22.6202 22.9379 22.1596 22.9941 21.4038C23.0076 21.2204 23.1605 21.078 23.3445 21.078C23.5285 21.078 23.6814 21.2204 23.6949 21.4038C23.7512 22.1596 24.4063 22.6202 24.8662 22.6301C24.8779 22.6296 24.8897 22.6296 24.9014 22.6301C25.0936 22.6331 25.2477 22.7895 25.2477 22.9817C25.2477 23.1739 25.0936 23.3303 24.9014 23.3333C24.8897 23.3333 24.8779 23.3333 24.8662 23.3333C24.4063 23.3427 23.7512 23.8032 23.6949 24.5591C23.6814 24.743 23.5285 24.8848 23.3445 24.8848C23.1605 24.8848 23.0076 24.743 22.9941 24.5591C22.9379 23.8032 22.2828 23.3427 21.8229 23.3333C21.8111 23.3333 21.7994 23.3333 21.7877 23.3333C21.5955 23.3303 21.4414 23.1739 21.4414 22.9817C21.442 22.7895 21.5961 22.6331 21.7877 22.6301ZM6.21582 22.6524C6.49004 22.905 6.79121 23.113 7.10527 23.2706C6.79121 23.4282 6.49004 23.6362 6.21582 23.8887C5.82852 24.245 5.52148 24.6675 5.30586 25.1309C5.09082 24.6675 4.7832 24.245 4.3959 23.8887C4.12168 23.6362 3.82109 23.4282 3.50703 23.2706C3.82109 23.113 4.12168 22.905 4.3959 22.6524C4.7832 22.2962 5.09082 21.8737 5.30586 21.4102C5.52148 21.8737 5.82793 22.2962 6.21582 22.6524ZM4.15918 2.85417C4.35137 2.85125 4.50547 2.6948 4.50547 2.50261C4.50547 2.31042 4.35137 2.15398 4.15918 2.15105C4.14746 2.15105 4.13574 2.15105 4.12402 2.15105C3.66406 2.14109 3.00898 1.68113 2.95273 0.924683C2.93926 0.741284 2.78633 0.599487 2.60234 0.599487C2.41836 0.599487 2.26543 0.741284 2.25195 0.924683C2.1957 1.68113 1.54062 2.14167 1.08066 2.15105C1.06895 2.15105 1.05723 2.15105 1.04551 2.15105C0.85332 2.15398 0.699219 2.31042 0.699219 2.50261C0.699219 2.6948 0.85332 2.85125 1.04551 2.85417H1.08066C1.54062 2.86414 2.1957 3.32468 2.25195 4.08054C2.26543 4.26394 2.41836 4.40632 2.60234 4.40632C2.78633 4.40632 2.93926 4.26394 2.95273 4.08054C3.00898 3.32468 3.66406 2.86414 4.12402 2.85417C4.13574 2.85476 4.14805 2.85417 4.15918 2.85417ZM2.60293 1.98464C2.74355 2.19031 2.91758 2.3655 3.10977 2.50261C2.91758 2.64031 2.74355 2.81492 2.60293 3.02117C2.4623 2.81492 2.28828 2.64031 2.09609 2.50261C2.2877 2.3655 2.4623 2.19031 2.60293 1.98464ZM19.6174 7.90964C19.2184 7.54285 18.7748 7.25046 18.3131 7.04421C18.7748 6.83855 19.2184 6.54617 19.6174 6.17878C20.1605 5.67839 20.5789 5.07488 20.8508 4.4116C21.1232 5.07488 21.541 5.67839 22.0848 6.17878C22.4838 6.54617 22.9273 6.83855 23.3891 7.04421C22.9273 7.25046 22.4838 7.54285 22.0848 7.90964C21.541 8.41003 21.1232 9.01355 20.8508 9.67742C20.5789 9.01355 20.1605 8.41003 19.6174 7.90964Z" fill="#2B8CFF"/>
</svg>
