<svg width="31" height="31" viewBox="0 0 31 31" fill="none" xmlns="http://www.w3.org/2000/svg">
<path fill-rule="evenodd" clip-rule="evenodd" d="M29.1027 1.25C28.673 1.25 27.8822 1.3321 26.7281 1.49329C25.5741 1.65508 24.8281 1.81166 24.4917 1.95984C24.1541 2.10801 23.5444 2.62223 22.6637 3.49663C21.7823 4.37426 20.5037 5.99379 18.832 8.35418C17.1576 10.7172 15.5962 13.2115 14.1445 15.8392C12.6922 18.4679 11.3368 21.197 10.0789 24.0261C8.91512 22.0337 7.86346 20.6829 6.91878 19.9723C5.97646 19.259 5.18151 18.9032 4.53517 18.9032C4.03037 18.9032 3.398 19.1724 2.63514 19.7082C1.87326 20.2456 1.49219 20.7716 1.49219 21.2904C1.49219 21.6659 1.8418 22.2224 2.54103 22.9582C3.92588 24.4213 5.15173 25.9729 6.21256 27.6155C6.86055 28.5978 7.29144 29.2006 7.50628 29.4204C7.71993 29.6381 8.37089 29.75 9.45956 29.75C10.974 29.75 11.8734 29.5558 12.1596 29.1651C12.4431 28.7891 12.9677 27.668 13.733 25.7989C15.6238 21.1196 17.9748 16.651 20.7849 12.3964C23.5974 8.14354 26.1734 4.92617 28.5186 2.74657C28.9857 2.33249 29.2665 2.06419 29.3652 1.94025C29.4613 1.8159 29.5104 1.69075 29.5104 1.56039C29.5102 1.35475 29.374 1.25 29.1027 1.25Z" fill="#2B8CFF"/>
</svg>
