<svg width="80" height="80" viewBox="0 0 80 80" fill="none" xmlns="http://www.w3.org/2000/svg">
<rect width="80" height="80" rx="40" fill="#2B8CFF"/>
<path fill-rule="evenodd" clip-rule="evenodd" d="M31.4531 28.1322H40.5015C40.8039 28.1322 41.0463 27.8811 41.0463 27.5784V25.1996C41.0463 24.8969 40.7952 24.6547 40.5015 24.6547H39.6188V23.6081C39.6188 22.9592 39.0911 22.4229 38.4425 22.4229H33.5032C32.8631 22.4229 32.3267 22.9593 32.3267 23.6081V24.6547H31.4532C31.1503 24.6547 30.8996 24.8969 30.8996 25.1996V27.5784C30.8995 27.8811 31.1503 28.1322 31.4531 28.1322ZM48.4161 40.7788C49.3678 40.9864 50.2502 41.3583 51.0458 41.8688L52.0753 41.4103C52.2656 41.3323 52.4992 41.3842 52.6721 41.5576L53.7014 42.5869C53.8746 42.7596 53.9266 42.9932 53.84 43.1837L53.3901 44.213C53.9006 45 54.2725 45.8911 54.4716 46.8425L55.5268 47.2493C55.7173 47.3182 55.8468 47.5259 55.8468 47.7683V49.2215C55.8468 49.4637 55.7173 49.6713 55.5268 49.7491L54.4716 50.1556C54.2725 51.0986 53.9006 51.9895 53.3901 52.7766L53.84 53.8062C53.9266 53.9965 53.8746 54.2388 53.7014 54.4029L52.6721 55.4326C52.4992 55.6055 52.2656 55.6659 52.0753 55.5794L51.0458 55.1211C50.2502 55.6314 49.3678 56.003 48.4161 56.211L48.0098 57.2574C47.9403 57.4565 47.7329 57.5777 47.4905 57.5777H46.0288C45.7866 57.5777 45.5876 57.4565 45.5097 57.2574L45.1032 56.211C44.1517 56.003 43.2693 55.6314 42.4823 55.1211L41.4439 55.5794C41.2537 55.6659 41.0203 55.6055 40.8474 55.4326L39.8178 54.4029C39.6534 54.2388 39.5932 53.9965 39.6794 53.8062L40.1377 52.7766C39.6276 51.9895 39.2471 51.0986 39.048 50.1556L37.9927 49.7491C37.8024 49.6714 37.6727 49.4637 37.6727 49.2215V47.7683C37.6727 47.5259 37.8024 47.3183 37.9927 47.2493L39.048 46.8425C39.2471 45.8911 39.6276 45 40.1377 44.213L39.6794 43.1837C39.5931 42.9932 39.6534 42.7596 39.8178 42.5869L40.8474 41.5576C41.0203 41.3842 41.2537 41.3323 41.4439 41.4103L42.4823 41.8688C43.2693 41.3583 44.1517 40.9864 45.1032 40.7788L45.5097 39.7322C45.5875 39.533 45.7866 39.412 46.0288 39.412H47.4905C47.7329 39.412 47.9403 39.533 48.0098 39.7322L48.4161 40.7788ZM46.3227 44.957C46.3227 44.7147 46.5217 44.516 46.7641 44.516C47.0063 44.516 47.1965 44.7147 47.1965 44.957V45.3461C47.1965 45.5883 47.0063 45.7876 46.7641 45.7876C46.5217 45.7876 46.3227 45.5883 46.3227 45.3461V44.957ZM50.3021 48.0539C50.5443 48.0539 50.7431 48.2526 50.7431 48.4949C50.7431 48.7371 50.5443 48.9359 50.3021 48.9359H49.9129C49.6706 48.9359 49.4715 48.7371 49.4715 48.4949C49.4715 48.2526 49.6706 48.0539 49.9129 48.0539H50.3021ZM47.1965 52.0416C47.1965 52.2838 47.0063 52.4739 46.7641 52.4739C46.5217 52.4739 46.3227 52.2838 46.3227 52.0416V51.6436C46.3227 51.4012 46.5217 51.2022 46.7641 51.2022C47.0063 51.2022 47.1965 51.4012 47.1965 51.6436V52.0416ZM43.2174 48.936C42.9752 48.936 42.7764 48.7372 42.7764 48.4949C42.7764 48.2527 42.9752 48.054 43.2174 48.054H43.6153C43.8576 48.054 44.0477 48.2527 44.0477 48.4949C44.0477 48.7372 43.8576 48.936 43.6153 48.936H43.2174ZM46.3227 46.3496C46.3227 46.1073 46.5217 45.9171 46.7641 45.9171C47.0063 45.9171 47.1965 46.1073 47.1965 46.3496V48.4949C47.1965 48.6249 47.1446 48.7372 47.0668 48.8149L46.1238 49.7492C45.9596 49.9224 45.6742 49.9224 45.5097 49.7492C45.3365 49.5761 45.3365 49.2995 45.5097 49.1264L46.3227 48.3134V46.3496ZM48.7363 42.3877C48.6412 42.1631 48.7363 41.9035 48.9613 41.8081C49.1773 41.713 49.4369 41.8081 49.5406 42.0331L50.0078 43.0798C50.103 43.3048 50.0078 43.5644 49.7829 43.6593C49.6532 43.7198 49.5061 43.7025 49.3938 43.6423C48.4423 43.1229 47.361 42.9069 46.2968 42.9933C45.2502 43.0797 44.2294 43.4607 43.3557 44.1527C42.2918 44.9828 41.6085 46.1334 41.3491 47.3705C41.0981 48.6249 41.2626 49.9569 41.9113 51.1331C42.0237 51.3495 41.9459 51.6091 41.7296 51.7302C41.5221 51.8425 41.2537 51.7647 41.1412 51.5486C40.3974 50.1817 40.1987 48.642 40.4924 47.1975C40.7952 45.7617 41.5825 44.4296 42.8196 43.4607C43.8318 42.6646 45.0166 42.2236 46.2277 42.1196C47.0756 42.0504 47.932 42.1455 48.7536 42.4137L48.7363 42.3877ZM44.7832 54.6021C44.8783 54.827 44.7832 55.0866 44.5582 55.1816C44.3419 55.2856 44.0827 55.1816 43.9871 54.9652L43.5116 53.9101C43.4165 53.6936 43.5116 53.434 43.7365 53.3303C43.8661 53.2785 44.0131 53.2873 44.1343 53.3562C45.0859 53.8668 46.1585 54.0828 47.2224 53.9965C48.2692 53.9101 49.29 53.5295 50.1635 52.846C51.2276 52.0068 51.911 50.8564 52.1704 49.6196C52.4298 48.3737 52.2569 47.0418 51.6168 45.8566C51.4955 45.6488 51.5736 45.3806 51.7896 45.2683C51.9974 45.1471 52.2656 45.2252 52.3865 45.4415C53.1306 46.8082 53.3208 48.3479 53.0267 49.7923C52.7326 51.2285 51.937 52.5691 50.7085 53.5295C49.6877 54.325 48.5026 54.7752 47.3 54.8702C46.4439 54.9479 45.5875 54.8442 44.7659 54.576L44.7832 54.6021ZM46.7641 44.1439C49.1687 44.1439 51.1151 46.0903 51.1151 48.4949C51.1151 50.9 49.1687 52.8547 46.7641 52.8547C44.359 52.8547 42.404 50.9 42.404 48.4949C42.404 46.0902 44.359 44.1439 46.7641 44.1439ZM47.707 26.3416C47.707 25.857 47.3176 25.4679 46.8333 25.4679H46.2536V38.5296H47.4905C47.5596 38.5296 47.6378 38.5384 47.707 38.5469V26.3416ZM39.4027 55.2335H26.0466C25.8045 55.2335 25.6053 55.0344 25.6053 54.7924V25.4679H25.026C24.5415 25.4679 24.1523 25.857 24.1523 26.3416V55.8131C24.1523 56.2975 24.5415 56.6866 25.026 56.6866H43.624C43.2089 56.5223 42.8023 56.3318 42.413 56.1073L41.7989 56.3841C41.2626 56.626 40.6397 56.4706 40.2332 56.0554L39.4027 55.2335ZM45.3714 25.4679H41.9285V27.5784C41.9285 28.3656 41.2884 29.0059 40.5014 29.0059H31.4531C30.6658 29.0059 30.0257 28.3657 30.0257 27.5784V25.4679H26.4877V54.3511H38.8057C38.728 54.057 38.7451 53.7456 38.8747 53.4514L39.143 52.8376C38.7797 52.1974 38.4941 51.5224 38.3041 50.8046L37.6812 50.5713C37.1275 50.3548 36.7988 49.8096 36.7988 49.2216V47.7684C36.7988 47.1801 37.1275 46.635 37.6812 46.4277L38.3041 46.1853C38.4941 45.476 38.7797 44.7928 39.143 44.1529L38.8747 43.5386C38.6328 42.9934 38.7883 42.3793 39.2035 41.9642L40.2331 40.9348C40.6396 40.5192 41.2625 40.3726 41.7988 40.6062L42.4129 40.8829C43.0529 40.5193 43.7365 40.2341 44.4458 40.0351L44.6877 39.4123C44.8177 39.0835 45.0686 38.8239 45.3714 38.6771V25.4679ZM31.8769 49.1955H28.4426V52.6299H31.8769V49.1955ZM31.8769 43.5556H28.4426V46.9896H31.8769V43.5556ZM31.8769 37.9069H28.4426V41.3412H31.8769V37.9069ZM34.9824 30.2429H36.8853V32.068H38.702V33.971H36.8853V35.7965H34.9824V33.971H33.1573V32.068H34.9824V30.2429ZM38.157 43.5643C38.3992 43.5643 38.5982 43.7629 38.5982 44.0053C38.5982 44.2476 38.3992 44.4465 38.157 44.4465H34.9045C34.6621 44.4465 34.4634 44.2476 34.4634 44.0053C34.4634 43.7629 34.6621 43.5643 34.9045 43.5643H38.157ZM37.8801 51.7387C38.131 51.7387 38.3213 51.9379 38.3213 52.1801C38.3213 52.4219 38.131 52.621 37.8801 52.621H34.9045C34.6621 52.621 34.4634 52.4219 34.4634 52.1801C34.4634 51.9379 34.6621 51.7387 34.9045 51.7387H37.8801ZM35.9596 49.2127C36.2019 49.2127 36.4011 49.4032 36.4011 49.654C36.4011 49.896 36.2019 50.0865 35.9596 50.0865H34.9045C34.6621 50.0865 34.4634 49.896 34.4634 49.654C34.4634 49.4032 34.6621 49.2127 34.9045 49.2127H35.9596ZM36.3578 46.0989C36.5999 46.0989 36.7989 46.289 36.7989 46.54C36.7989 46.7821 36.5999 46.9722 36.3578 46.9722H34.9045C34.6621 46.9722 34.4634 46.7821 34.4634 46.54C34.4634 46.289 34.6621 46.0989 34.9045 46.0989H36.3578ZM39.2122 40.4501C39.4543 40.4501 39.6534 40.6491 39.6534 40.8913C39.6534 41.1334 39.4543 41.3323 39.2122 41.3323H34.9045C34.6621 41.3323 34.4634 41.1334 34.4634 40.8913C34.4634 40.6491 34.6621 40.4501 34.9045 40.4501H39.2122ZM42.9751 37.9156C43.2174 37.9156 43.4165 38.1146 43.4165 38.3569C43.4165 38.5989 43.2174 38.7979 42.9751 38.7979H34.9045C34.6621 38.7979 34.4634 38.5989 34.4634 38.3569C34.4634 38.1146 34.6621 37.9156 34.9045 37.9156H42.9751Z" fill="white"/>
</svg>
