<svg width="60" height="60" viewBox="0 0 60 60" fill="none" xmlns="http://www.w3.org/2000/svg">
<rect width="60" height="60" rx="30" fill="white"/>
<g clip-path="url(#clip0_1778_7)">
<path d="M40.3818 16.8221C39.8954 16.598 39.3222 16.6852 38.9243 17.0438L36.8249 18.9026C36.7678 18.9535 36.6817 18.9531 36.6249 18.902L33.7684 16.3472C33.2518 15.8843 32.4696 15.8843 31.953 16.3472L29.0991 18.8997C29.0417 18.951 28.9549 18.951 28.8975 18.8997L26.0433 16.3472C25.5267 15.8843 24.7446 15.8843 24.228 16.3472L21.3711 18.902C21.3139 18.9531 21.2275 18.9534 21.17 18.9025L19.0688 17.0438C18.5113 16.548 17.6575 16.598 17.1617 17.1555C16.9394 17.4055 16.8178 17.7291 16.8204 18.0635V45.9365C16.8154 46.6837 17.417 47.2934 18.1642 47.2984C18.4989 47.3007 18.8225 47.1788 19.0725 46.9563L21.1719 45.0975C21.229 45.0466 21.3152 45.0469 21.372 45.0981L24.2285 47.6529C24.7451 48.1158 25.5272 48.1158 26.0439 47.6529L28.8981 45.1004C28.9555 45.0491 29.0422 45.0491 29.0996 45.1004L31.9539 47.6528C32.4706 48.1155 33.2526 48.1155 33.7692 47.6528L36.6262 45.098C36.6834 45.0469 36.7698 45.0466 36.8273 45.0975L38.9286 46.9562C39.4863 47.4518 40.34 47.4014 40.8355 46.8437C41.0575 46.5939 41.1789 46.2707 41.1765 45.9365V18.0635C41.1836 17.5281 40.8711 17.0398 40.3818 16.8221ZM21.8283 26.8565H29.361C29.6952 26.8565 29.9661 27.1274 29.9661 27.4616C29.9661 27.7958 29.6952 28.0667 29.361 28.0667H21.8283C21.4941 28.0667 21.2231 27.7958 21.2231 27.4616C21.2231 27.1274 21.4941 26.8565 21.8283 26.8565ZM36.1686 37.1436H21.8283C21.4941 37.1436 21.2231 36.8726 21.2231 36.5385C21.2231 36.2043 21.4941 35.9333 21.8283 35.9333H36.1686C36.5028 35.9333 36.7737 36.2043 36.7737 36.5385C36.7737 36.8726 36.5028 37.1436 36.1686 37.1436ZM36.1686 32.6052H21.8283C21.4941 32.6052 21.2231 32.3342 21.2231 32C21.2231 31.6659 21.4941 31.3949 21.8283 31.3949H36.1686C36.5028 31.3949 36.7737 31.6659 36.7737 32C36.7737 32.3342 36.5028 32.6052 36.1686 32.6052Z" fill="#2B8CFF"/>
</g>
<defs>
<clipPath id="clip0_1778_7">
<rect width="32" height="32" fill="white" transform="translate(13 16)"/>
</clipPath>
</defs>
</svg>
