<svg width="81" height="80" viewBox="0 0 81 80" fill="none" xmlns="http://www.w3.org/2000/svg">
<rect x="0.666016" width="80" height="80" rx="40" fill="#2B8CFF"/>
<g clip-path="url(#clip0_1230_546)">
<path d="M49.4785 48.8125C47.3246 48.8125 45.5723 47.0602 45.5723 44.9062C45.5723 42.7523 47.3246 41 49.4785 41C51.6325 41 53.3848 42.7523 53.3848 44.9062C53.3848 47.0602 51.6325 48.8125 49.4785 48.8125Z" fill="white"/>
<path d="M53.4678 49.0868C52.4296 50.078 51.0239 50.6875 49.4785 50.6875C47.9331 50.6875 46.5275 50.078 45.4892 49.0868C43.5623 50.3774 42.291 52.5742 42.291 55.0625C42.291 55.5803 42.7108 56 43.2285 56H55.7285C56.2463 56 56.666 55.5803 56.666 55.0625C56.666 52.5742 55.3948 50.3774 53.4678 49.0868Z" fill="white"/>
<path d="M35.8428 49.0868C34.8046 50.078 33.3989 50.6875 31.8535 50.6875C30.3081 50.6875 28.9025 50.078 27.8642 49.0868C25.9373 50.3774 24.666 52.5742 24.666 55.0625C24.666 55.5803 25.0858 56 25.6035 56H38.1035C38.6213 56 39.041 55.5803 39.041 55.0625C39.041 52.5742 37.7698 50.3774 35.8428 49.0868Z" fill="white"/>
<path d="M31.8535 48.8125C29.6996 48.8125 27.9473 47.0602 27.9473 44.9062C27.9473 42.7523 29.6996 41 31.8535 41C34.0075 41 35.7598 42.7523 35.7598 44.9062C35.7598 47.0602 34.0075 48.8125 31.8535 48.8125Z" fill="white"/>
<path d="M49.416 24C45.3251 24 42.0999 27.5998 40.666 29.5276C39.2321 27.5998 36.007 24 31.916 24C27.9528 24 24.7285 27.2243 24.7285 31.1875C24.7285 35.1507 27.9528 38.375 31.916 38.375C36.007 38.375 39.2321 34.7752 40.666 32.8474C42.0999 34.7752 45.3251 38.375 49.416 38.375C53.3792 38.375 56.6035 35.1507 56.6035 31.1875C56.6035 27.2243 53.3792 24 49.416 24ZM31.916 36.5C28.9867 36.5 26.6035 34.1168 26.6035 31.1875C26.6035 28.2582 28.9867 25.875 31.916 25.875C35.5558 25.875 38.584 29.7952 39.5445 31.1875C38.584 32.5798 35.5558 36.5 31.916 36.5ZM49.416 36.5C45.7763 36.5 42.7481 32.5798 41.7876 31.1875C42.7481 29.7952 45.7763 25.875 49.416 25.875C52.3453 25.875 54.7285 28.2582 54.7285 31.1875C54.7285 34.1168 52.3453 36.5 49.416 36.5Z" fill="white"/>
</g>
<defs>
<clipPath id="clip0_1230_546">
<rect width="32" height="32" fill="white" transform="translate(24.666 24)"/>
</clipPath>
</defs>
</svg>
