<svg width="80" height="80" viewBox="0 0 80 80" fill="none" xmlns="http://www.w3.org/2000/svg">
<rect width="80" height="80" rx="40" fill="#F5F9FF"/>
<g clip-path="url(#clip0_2896_2498)">
<path d="M40 45.8333C38.8463 45.8333 37.7185 45.4912 36.7592 44.8502C35.7999 44.2093 35.0522 43.2982 34.6107 42.2323C34.1692 41.1664 34.0537 39.9935 34.2788 38.862C34.5038 37.7304 35.0594 36.691 35.8752 35.8752C36.691 35.0594 37.7304 34.5038 38.862 34.2788C39.9935 34.0537 41.1664 34.1692 42.2323 34.6107C43.2982 35.0522 44.2093 35.7999 44.8502 36.7592C45.4912 37.7185 45.8333 38.8463 45.8333 40C45.8333 41.5471 45.2188 43.0308 44.1248 44.1248C43.0308 45.2188 41.5471 45.8333 40 45.8333ZM30.7877 45.8333H23.9583C23.5716 45.8333 23.2006 45.6797 22.9271 45.4062C22.6536 45.1327 22.5 44.7618 22.5 44.375C22.5138 42.281 23.2754 40.2608 24.6475 38.6789C26.0195 37.0969 27.9117 36.0573 29.9827 35.7475C30.2234 35.7138 30.4686 35.7407 30.6962 35.8259C30.9238 35.9111 31.1265 36.0518 31.2859 36.2352C31.4453 36.4187 31.5563 36.639 31.6089 36.8763C31.6614 37.1135 31.6539 37.3602 31.5869 37.5938C31.3634 38.3763 31.25 39.1862 31.25 40C31.2504 41.2976 31.5425 42.5784 32.1046 43.7479C32.2103 43.9699 32.2582 44.215 32.2438 44.4604C32.2294 44.7059 32.1532 44.9437 32.0222 45.1518C31.8912 45.3599 31.7098 45.5315 31.4947 45.6506C31.2797 45.7698 31.038 45.8326 30.7921 45.8333H30.7877ZM47.2917 57.5H32.7083C32.3216 57.5 31.9506 57.3464 31.6771 57.0729C31.4036 56.7994 31.25 56.4284 31.25 56.0417C31.25 53.721 32.1719 51.4954 33.8128 49.8545C35.4538 48.2135 37.6794 47.2917 40 47.2917C42.3206 47.2917 44.5462 48.2135 46.1872 49.8545C47.8281 51.4954 48.75 53.721 48.75 56.0417C48.75 56.4284 48.5964 56.7994 48.3229 57.0729C48.0494 57.3464 47.6784 57.5 47.2917 57.5ZM48.75 34.1667C47.5963 34.1667 46.4685 33.8246 45.5092 33.1836C44.5499 32.5426 43.8022 31.6316 43.3607 30.5657C42.9192 29.4998 42.8037 28.3269 43.0288 27.1953C43.2538 26.0638 43.8094 25.0244 44.6252 24.2085C45.441 23.3927 46.4804 22.8372 47.612 22.6121C48.7435 22.387 49.9164 22.5025 50.9823 22.944C52.0482 23.3855 52.9593 24.1332 53.6002 25.0925C54.2412 26.0518 54.5833 27.1796 54.5833 28.3333C54.5833 29.8804 53.9688 31.3642 52.8748 32.4581C51.7808 33.5521 50.2971 34.1667 48.75 34.1667ZM31.25 34.1667C30.0963 34.1667 28.9685 33.8246 28.0092 33.1836C27.0499 32.5426 26.3022 31.6316 25.8607 30.5657C25.4192 29.4998 25.3037 28.3269 25.5288 27.1953C25.7538 26.0638 26.3094 25.0244 27.1252 24.2085C27.941 23.3927 28.9804 22.8372 30.112 22.6121C31.2435 22.387 32.4164 22.5025 33.4823 22.944C34.5482 23.3855 35.4593 24.1332 36.1002 25.0925C36.7412 26.0518 37.0833 27.1796 37.0833 28.3333C37.0833 29.8804 36.4688 31.3642 35.3748 32.4581C34.2808 33.5521 32.7971 34.1667 31.25 34.1667ZM56.0417 45.8333H49.2123C48.9664 45.8326 48.7247 45.7698 48.5097 45.6506C48.2946 45.5315 48.1131 45.3599 47.9822 45.1518C47.8512 44.9437 47.775 44.7059 47.7606 44.4604C47.7462 44.215 47.7941 43.9699 47.8998 43.7479C48.4604 42.5781 48.7509 41.2972 48.75 40C48.7476 39.1858 48.6318 38.376 48.4058 37.5938C48.3385 37.3595 48.3309 37.1121 48.3838 36.8741C48.4367 36.6362 48.5484 36.4153 48.7087 36.2317C48.8689 36.048 49.0727 35.9075 49.3013 35.8229C49.5299 35.7383 49.7761 35.7124 50.0173 35.7475C52.0883 36.0573 53.9805 37.0969 55.3525 38.6789C56.7246 40.2608 57.4862 42.281 57.5 44.375C57.5 44.7618 57.3464 45.1327 57.0729 45.4062C56.7994 45.6797 56.4284 45.8333 56.0417 45.8333Z" fill="#2B8CFF"/>
</g>
<defs>
<clipPath id="clip0_2896_2498">
<rect width="35" height="35" fill="white" transform="translate(22.5 22.5)"/>
</clipPath>
</defs>
</svg>
