<svg width="18" height="19" viewBox="0 0 18 19" fill="none" xmlns="http://www.w3.org/2000/svg">
<path d="M17 0.0834275L4 0.083428C3.73478 0.0834281 3.48043 0.188784 3.29289 0.376321C3.10536 0.563857 3 0.818211 3 1.08343C3 1.34864 3.10536 1.603 3.29289 1.79054C3.48043 1.97807 3.73478 2.08343 4 2.08343L14.5862 2.08343L0.292499 16.3759C0.104858 16.5636 -0.000557001 16.8181 -0.00055699 17.0834C-0.000556978 17.3488 0.104858 17.6033 0.2925 17.7909C0.480141 17.9786 0.734636 18.084 1 18.084C1.26536 18.084 1.51986 17.9786 1.7075 17.7909L16 3.49718L16 14.0834C16 14.3486 16.1054 14.603 16.2929 14.7905C16.4804 14.9781 16.7348 15.0834 17 15.0834C17.2652 15.0834 17.5196 14.9781 17.7071 14.7905C17.8946 14.603 18 14.3486 18 14.0834L18 1.08343C18 0.818211 17.8946 0.563856 17.7071 0.37632C17.5196 0.188784 17.2652 0.0834275 17 0.0834275Z" fill="#2B8CFF"/>
</svg>
