<svg width="80" height="80" viewBox="0 0 80 80" fill="none" xmlns="http://www.w3.org/2000/svg">
<rect width="80" height="80" rx="40" fill="#F5F9FF"/>
<path d="M39.4375 23.8848V28.0698C39.4375 28.3803 39.6889 28.6323 40 28.6323C40.3111 28.6323 40.5625 28.3803 40.5625 28.0698V23.8848C40.5625 23.5743 40.3111 23.3223 40 23.3223C39.6889 23.3223 39.4375 23.5743 39.4375 23.8848Z" fill="#2B8CFF"/>
<path d="M51.4041 31.7508L54.6188 28.8517C54.8494 28.6436 54.8674 28.2881 54.6593 28.0569C54.4506 27.8257 54.0957 27.8083 53.865 28.0158L50.6504 30.9149C50.4197 31.1231 50.4017 31.4786 50.6099 31.7098C50.7207 31.8329 50.8737 31.8954 51.0272 31.8954C51.1617 31.8954 51.2967 31.8476 51.4041 31.7508Z" fill="#2B8CFF"/>
<path d="M46.1559 29.2927C46.3641 29.2927 46.5637 29.1768 46.6611 28.9777L48.402 25.4294C48.5387 25.1504 48.4239 24.8135 48.1449 24.6768C47.8654 24.5395 47.529 24.656 47.3923 24.9344L45.6514 28.4827C45.5147 28.7617 45.6294 29.0986 45.9084 29.2353C45.9883 29.2741 46.0732 29.2927 46.1559 29.2927Z" fill="#2B8CFF"/>
<path d="M28.9724 31.8954C29.1254 31.8954 29.2789 31.8329 29.3898 31.7098C29.5979 31.4791 29.5799 31.1236 29.3493 30.9149L26.1346 28.0158C25.9045 27.8083 25.5484 27.8257 25.3403 28.0569C25.1322 28.2875 25.1502 28.643 25.3808 28.8517L28.5955 31.7508C28.7029 31.8476 28.8379 31.8954 28.9724 31.8954Z" fill="#2B8CFF"/>
<path d="M33.8433 29.2928C33.926 29.2928 34.0109 29.2742 34.0902 29.2354C34.3692 29.0981 34.484 28.7612 34.3473 28.4828L32.6064 24.9345C32.4697 24.6555 32.1333 24.5396 31.8537 24.6769C31.5747 24.8141 31.46 25.1511 31.5967 25.4295L33.3376 28.9778C33.4355 29.1769 33.6352 29.2928 33.8433 29.2928Z" fill="#2B8CFF"/>
<path d="M55.7405 47.269C55.4795 47.0991 55.1313 47.1734 54.962 47.4333C51.6511 52.5177 46.0581 55.553 40 55.553C33.9419 55.553 28.349 52.5177 25.0381 47.4333C24.8688 47.1734 24.5206 47.0991 24.2596 47.269C23.9991 47.4383 23.9255 47.7871 24.0953 48.0475C27.6143 53.4515 33.56 56.678 39.9995 56.678C46.439 56.678 52.3851 53.4515 55.9036 48.0475C56.0735 47.7871 55.9998 47.4383 55.7393 47.269H55.7405Z" fill="#2B8CFF"/>
<path d="M39.9972 47.7971C43.6011 47.7971 46.5334 44.8648 46.5334 41.2609C46.5334 37.6569 43.6011 34.7246 39.9972 34.7246C36.3933 34.7246 33.4609 37.6569 33.4609 41.2609C33.4609 44.8648 36.3933 47.7971 39.9972 47.7971ZM40.5777 41.8234H39.4167C38.4306 41.8234 37.6285 41.0212 37.6285 40.0352V39.6054C37.6285 38.6194 38.4306 37.8172 39.4167 37.8172H39.4347V37.154C39.4347 36.8435 39.6861 36.5915 39.9972 36.5915C40.3083 36.5915 40.5597 36.8435 40.5597 37.154V37.8172H40.5777C41.5638 37.8172 42.3659 38.6194 42.3659 39.6054C42.3659 39.9159 42.1144 40.1679 41.8034 40.1679C41.4923 40.1679 41.2409 39.9159 41.2409 39.6054C41.2409 39.2398 40.9439 38.9422 40.5777 38.9422H39.4167C39.0511 38.9422 38.7535 39.2398 38.7535 39.6054V40.0352C38.7535 40.4008 39.0505 40.6984 39.4167 40.6984H40.5777C41.5638 40.6984 42.3659 41.5005 42.3659 42.4865V42.9169C42.3659 43.9029 41.5638 44.705 40.5777 44.705H40.5597V45.3682C40.5597 45.6787 40.3083 45.9307 39.9972 45.9307C39.6861 45.9307 39.4347 45.6787 39.4347 45.3682V44.705H39.4167C38.4306 44.705 37.6285 43.9029 37.6285 42.9169C37.6285 42.6064 37.8799 42.3544 38.191 42.3544C38.5021 42.3544 38.7535 42.6064 38.7535 42.9169C38.7535 43.2825 39.0505 43.58 39.4167 43.58H40.5777C40.9433 43.58 41.2409 43.2825 41.2409 42.9169V42.4865C41.2409 42.1209 40.9439 41.8234 40.5777 41.8234Z" fill="#2B8CFF"/>
<path d="M39.999 50.7995C46.4796 50.7995 52.473 47.0651 55.3457 41.2624C52.473 35.4596 46.479 31.7246 39.999 31.7246C33.519 31.7246 27.525 35.4596 24.6523 41.2624C27.525 47.0651 33.519 50.7995 39.999 50.7995ZM39.999 33.6011C44.2234 33.6011 47.6603 37.038 47.6603 41.2624C47.6603 45.4867 44.2234 48.9236 39.999 48.9236C35.7747 48.9236 32.3378 45.4867 32.3378 41.2624C32.3378 37.038 35.7747 33.6011 39.999 33.6011Z" fill="#2B8CFF"/>
</svg>
