<svg width="60" height="60" viewBox="0 0 60 60" fill="none" xmlns="http://www.w3.org/2000/svg">
<rect width="60" height="60" rx="30" fill="#2B8CFF"/>
<path d="M30 17C27.4288 17 24.9154 17.7624 22.7776 19.1909C20.6398 20.6194 18.9735 22.6497 17.9896 25.0251C17.0056 27.4006 16.7482 30.0144 17.2498 32.5362C17.7514 35.0579 18.9895 37.3743 20.8076 39.1924C22.6257 41.0105 24.9421 42.2486 27.4638 42.7502C29.9856 43.2518 32.5995 42.9944 34.9749 42.0104C37.3503 41.0265 39.3807 39.3603 40.8091 37.2224C42.2376 35.0846 43 32.5712 43 30C42.996 26.5534 41.6251 23.2491 39.188 20.812C36.7509 18.3749 33.4466 17.004 30 17ZM41 30C41.0009 31.0145 40.8608 32.0241 40.5838 33H35.77C36.0767 31.0118 36.0767 28.9882 35.77 27H40.5838C40.8608 27.9759 41.0009 28.9855 41 30ZM26.75 35H33.25C32.6096 37.0982 31.498 39.0223 30 40.625C28.5026 39.0218 27.391 37.098 26.75 35ZM26.2625 33C25.9192 31.0147 25.9192 28.9853 26.2625 27H33.7475C34.0908 28.9853 34.0908 31.0147 33.7475 33H26.2625ZM19 30C18.9991 28.9855 19.1392 27.9759 19.4163 27H24.23C23.9233 28.9882 23.9233 31.0118 24.23 33H19.4163C19.1392 32.0241 18.9991 31.0145 19 30ZM33.25 25H26.75C27.3904 22.9018 28.502 20.9777 30 19.375C31.4974 20.9782 32.609 22.902 33.25 25ZM39.7913 25H35.3388C34.7776 22.9411 33.8318 21.0071 32.5513 19.3C34.0984 19.6717 35.5469 20.3735 36.7974 21.3573C38.0479 22.3412 39.0709 23.5838 39.7963 25H39.7913ZM27.4488 19.3C26.1683 21.0071 25.2224 22.9411 24.6613 25H20.2038C20.9291 23.5838 21.9521 22.3412 23.2026 21.3573C24.4531 20.3735 25.9016 19.6717 27.4488 19.3ZM20.2038 35H24.6613C25.2224 37.0589 26.1683 38.9929 27.4488 40.7C25.9016 40.3283 24.4531 39.6265 23.2026 38.6427C21.9521 37.6588 20.9291 36.4162 20.2038 35ZM32.5513 40.7C33.8318 38.9929 34.7776 37.0589 35.3388 35H39.7963C39.0709 36.4162 38.0479 37.6588 36.7974 38.6427C35.5469 39.6265 34.0984 40.3283 32.5513 40.7Z" fill="white"/>
</svg>
