<svg width="81" height="80" viewBox="0 0 81 80" fill="none" xmlns="http://www.w3.org/2000/svg">
<rect x="0.5" width="80" height="80" rx="40" fill="#2B8CFF"/>
<path d="M49.7549 27.2H31.2484C29.2964 27.2 27.707 28.7893 27.707 30.7413V49.2479C27.707 51.2106 29.2964 52.8 31.2484 52.8H49.7549C51.707 52.8 53.2964 51.2106 53.2964 49.2479V30.7413C53.2964 28.7893 51.707 27.2 49.7549 27.2ZM39.2271 30.0266C39.8137 30.0266 40.2938 30.5066 40.2938 31.0932C40.2938 31.68 39.8137 32.1599 39.2271 32.1599C38.6297 32.1599 38.1604 31.68 38.1604 31.0932C38.1604 30.5066 38.6297 30.0266 39.2271 30.0266ZM35.4938 30.0266C36.0803 30.0266 36.5604 30.5066 36.5604 31.0932C36.5604 31.68 36.0803 32.1599 35.4938 32.1599C34.8964 32.1599 34.4271 31.68 34.4271 31.0932C34.4271 30.5066 34.8964 30.0266 35.4938 30.0266ZM31.963 30.0266C32.5604 30.0266 33.0297 30.5066 33.0297 31.0932C33.0297 31.68 32.5604 32.1599 31.9737 32.1599H31.963C31.3763 32.1599 30.8964 31.68 30.8964 31.0932C30.8964 30.5066 31.3763 30.0266 31.963 30.0266ZM51.163 49.1306C51.163 49.9733 50.4803 50.6559 49.6378 50.6559H31.3656C30.523 50.6559 29.8404 49.9733 29.8404 49.1306V36C29.8404 35.1572 30.523 34.4746 31.3656 34.4746H41.5844C41.9151 34.4746 42.235 34.2932 42.4057 34.0053L43.163 32.7786C43.4404 32.3306 43.931 32.0533 44.4643 32.0533H49.6378C50.4803 32.0533 51.163 32.736 51.163 33.5786V49.1306ZM45.1044 41.0026L42.2564 40.5866L40.9763 38.0053C40.8057 37.6426 40.1977 37.6426 40.0164 38.0053L38.747 40.5866L35.899 41.0026C35.6964 41.0346 35.5257 41.1733 35.4617 41.3759C35.3977 41.5679 35.451 41.7813 35.6003 41.9199L37.659 43.936L37.1684 46.7626C37.1363 46.9759 37.2216 47.1786 37.3923 47.2959C37.5523 47.4133 37.7763 47.4346 37.947 47.3386L40.507 45.9946L43.0457 47.3386C43.131 47.3706 43.2164 47.3919 43.3017 47.3919C43.4083 47.3919 43.5151 47.3599 43.6216 47.2959C43.7818 47.1786 43.8669 46.9759 43.8244 46.7626L43.3443 43.936L45.403 41.9199C45.5523 41.7813 45.6057 41.5679 45.5417 41.3759C45.4776 41.1733 45.307 41.0346 45.1044 41.0026Z" fill="white"/>
<path d="M45.4015 41.9198L43.3428 43.9358L43.8229 46.7625C43.8655 46.9758 43.7803 47.1785 43.6202 47.2958C43.5136 47.3598 43.4069 47.3918 43.3002 47.3918C43.2149 47.3918 43.1295 47.3705 43.0442 47.3385L40.5056 45.9945L37.9455 47.3385C37.7748 47.4345 37.5509 47.4132 37.3909 47.2958C37.2202 47.1785 37.1349 46.9758 37.1669 46.7625L37.6575 43.9358L35.5988 41.9198C35.4496 41.7812 35.3962 41.5678 35.4603 41.3758C35.5242 41.1731 35.6949 41.0345 35.8975 41.0025L38.7455 40.5865L40.0149 38.0052C40.1962 37.6425 40.8043 37.6425 40.9748 38.0052L42.2549 40.5865L45.103 41.0025C45.3056 41.0345 45.4761 41.1731 45.5402 41.3758C45.6043 41.5678 45.5509 41.7812 45.4015 41.9198Z" fill="white"/>
</svg>
