<svg width="75" height="75" viewBox="0 0 75 75" fill="none" xmlns="http://www.w3.org/2000/svg">
<circle cx="37.5" cy="37.5" r="37.5" fill="#24D366"/>
<path d="M37.5 16.4062C25.8689 16.4062 16.4062 25.8682 16.4062 37.5C16.4062 41.5924 17.5797 45.5379 19.8072 48.9642L16.5202 56.6341C16.2936 57.1614 16.4117 57.7753 16.8182 58.1818C17.0874 58.4509 17.4472 58.5938 17.8125 58.5938C17.9993 58.5938 18.1881 58.5567 18.3666 58.4798L26.0365 55.1921C29.4621 57.421 33.4076 58.5938 37.5 58.5938C49.1318 58.5938 58.5938 49.1318 58.5938 37.5C58.5938 25.8682 49.1318 16.4062 37.5 16.4062ZM48.327 45.0504C48.327 45.0504 46.5733 47.2998 45.3058 47.8258C42.084 49.1592 37.5357 47.8258 32.3543 42.6457C27.1742 37.4643 25.8401 32.916 27.1742 29.6942C27.7002 28.4253 29.9496 26.673 29.9496 26.673C30.5594 26.1978 31.507 26.2569 32.0535 26.8034L34.5982 29.3481C35.1448 29.8947 35.1448 30.7901 34.5982 31.3367L33.0011 32.9324C33.0011 32.9324 32.3543 34.8743 36.2393 38.7607C40.1244 42.6457 42.0676 41.9989 42.0676 41.9989L43.6633 40.4018C44.2099 39.8552 45.1053 39.8552 45.6519 40.4018L48.1966 42.9465C48.7431 43.493 48.8022 44.4392 48.327 45.0504Z" fill="white"/>
</svg>
